<svg width="44" height="44" viewBox="0 0 44 44" fill="none" xmlns="http://www.w3.org/2000/svg">
<mask id="mask0" mask-type="alpha" maskUnits="userSpaceOnUse" x="0" y="0" width="44" height="44">
<rect width="44" height="44" fill="#C4C4C4"/>
</mask>
<g mask="url(#mask0)">
<path d="M41.2074 2V6.24526C41.2074 26.6798 29.8025 35.9621 15.7358 35.9621H11.6985C12.1485 29.5687 14.1396 25.6992 19.3358 21.1016C21.8914 18.841 21.6749 17.5355 20.4162 18.2848C11.7474 23.4428 7.44267 30.4135 7.25163 41.5446L7.24526 42.33H3C3 39.4369 3.24623 36.8112 3.73443 34.4083C3.24623 31.6617 3 27.9343 3 23.2263C3 11.503 12.503 2 24.2263 2C28.4716 2 32.7168 4.12263 41.2074 2Z" fill="#9E533C"/>
</g>
</svg>
