<svg width="44" height="44" viewBox="0 0 44 44" fill="none" xmlns="http://www.w3.org/2000/svg">
<mask id="mask0" mask-type="alpha" maskUnits="userSpaceOnUse" x="0" y="0" width="44" height="44">
<rect width="44" height="44" fill="#C4C4C4"/>
</mask>
<g mask="url(#mask0)">
<path d="M22.165 2C33.2961 2 42.33 11.0339 42.33 22.165C42.33 33.2961 33.2961 42.33 22.165 42.33C11.0339 42.33 2 33.2961 2 22.165C2 11.0339 11.0339 2 22.165 2ZM22.165 12.0825C16.5995 12.0825 12.0825 16.5995 12.0825 22.165C12.0825 27.7305 16.5995 32.2475 22.165 32.2475C25.835 32.2475 29.0473 30.2854 30.8118 27.3514L27.3535 25.2785C26.8092 26.1851 26.0368 26.9333 25.1132 27.4484C24.1897 27.9635 23.1473 28.2274 22.0899 28.214C21.0325 28.2006 19.9971 27.9102 19.0869 27.3719C18.1767 26.8335 17.4236 26.066 16.9025 25.1458C16.3815 24.2256 16.1107 23.1849 16.1173 22.1274C16.1239 21.07 16.4075 20.0327 16.9399 19.1191C17.4724 18.2054 18.235 17.4473 19.1518 16.9203C20.0686 16.3933 21.1075 16.1158 22.165 16.1155C24.369 16.1155 26.2988 17.2931 27.3555 19.0535L30.8118 16.9765C29.9159 15.4835 28.6486 14.2479 27.1332 13.3902C25.6179 12.5325 23.9062 12.082 22.165 12.0825Z" fill="#D6434C"/>
</g>
</svg>
