<svg width="28" height="28" viewBox="0 0 28 28" fill="none" xmlns="http://www.w3.org/2000/svg">
<mask id="mask0" mask-type="alpha" maskUnits="userSpaceOnUse" x="0" y="0" width="28" height="28">
<rect width="28" height="28" fill="#C4C4C4"/>
</mask>
<g mask="url(#mask0)">
<path d="M25.6668 4.66659V23.3333C25.6668 24.6166 24.6168 25.6666 23.3335 25.6666H4.66683C3.3835 25.6666 2.3335 24.6166 2.3335 23.3333V4.66659C2.3335 3.38325 3.3835 2.33325 4.66683 2.33325H23.3335C24.6168 2.33325 25.6668 3.38325 25.6668 4.66659Z" fill="#F57B31"/>
<path d="M20.125 14.8748H7.875V17.7914H20.125V14.8748Z" fill="white"/>
<path d="M20.125 10.2083H7.875V13.1249H20.125V10.2083Z" fill="white"/>
<path d="M7.875 2.33325V4.37492C7.875 4.85325 8.27167 5.24992 8.75 5.24992H19.25C19.7283 5.24992 20.125 4.85325 20.125 4.37492V2.33325H7.875Z" fill="#F8A573"/>
</g>
</svg>
