<svg width="28" height="28" viewBox="0 0 28 28" fill="none" xmlns="http://www.w3.org/2000/svg">
<g clip-path="url(#clip0)">
<path d="M10.7917 6.41667V4.66667H17.2083V6.41667H20.125V4.08333C20.125 3.46449 19.8791 2.871 19.4415 2.43342C19.004 1.99583 18.4105 1.75 17.7917 1.75H10.2083C9.58949 1.75 8.99604 1.99583 8.55845 2.43342C8.12087 2.871 7.875 3.46449 7.875 4.08333V6.41667H10.7917Z" fill="#F8A573"/>
<path d="M23.7019 6.41676H4.2979C3.9742 6.4168 3.65399 6.48418 3.35775 6.61464C3.0615 6.7451 2.79567 6.93579 2.5771 7.17455C2.35852 7.41331 2.19203 7.69493 2.08818 8.00152C1.98434 8.30811 1.94541 8.63297 1.9739 8.95542L2.79058 18.1721C6.23695 20.0269 10.0896 20.9978 14.0034 20.9978C17.9172 20.9978 21.7699 20.0269 25.2162 18.1721L26.0329 8.95542C26.0614 8.63238 26.0223 8.30696 25.918 7.99988C25.8138 7.69281 25.6466 7.41082 25.4273 7.17195C25.208 6.93308 24.9412 6.74257 24.6441 6.61254C24.3471 6.48251 24.0261 6.41582 23.7019 6.41676Z" fill="#F57B31"/>
<path d="M21.9915 21.4911L21.8294 23.3333H6.17037L6.00823 21.4911C4.96856 21.1472 3.95481 20.7293 2.97485 20.2405L3.31672 24.122C3.36805 24.703 3.6351 25.2436 4.06526 25.6375C4.49541 26.0314 5.05748 26.2499 5.64073 26.25H22.3683C22.9516 26.2499 23.5137 26.0314 23.9438 25.6375C24.374 25.2436 24.641 24.703 24.6923 24.122L25.0353 20.2405C24.0519 20.7295 23.0347 21.1474 21.9915 21.4911Z" fill="#F8A573"/>
<path d="M16.3332 11.375H11.6665V16.0417H16.3332V11.375Z" fill="white"/>
</g>
<defs>
<clipPath id="clip0">
<rect width="24.0707" height="24.5" fill="white" transform="translate(1.9646 1.75)"/>
</clipPath>
</defs>
</svg>
