<svg width="28" height="28" viewBox="0 0 28 28" fill="none" xmlns="http://www.w3.org/2000/svg">
<path d="M26.0168 8.10817L24.7335 23.2748C24.6168 24.4415 23.5668 25.3748 22.4001 25.3748H5.60013C4.43346 25.3748 3.38346 24.4415 3.2668 23.2748L1.98346 8.10817C1.8668 6.70817 2.9168 5.5415 4.3168 5.5415H23.6835C25.0835 5.5415 26.1335 6.70817 26.0168 8.10817Z" fill="#D6434C"/>
<path d="M14.0002 18.2583L11.2002 19.8916L11.7835 16.6249L9.3335 14.4083L12.6002 14.0583L14.0002 11.1416L15.4002 14.0583L18.6668 14.4083L16.2168 16.6249L16.8002 19.7749L14.0002 18.2583Z" fill="white"/>
<path d="M20.4172 2.625H17.5005V8.45833H20.4172V2.625Z" fill="#E37F85"/>
<path d="M10.5002 2.625H7.5835V8.45833H10.5002V2.625Z" fill="#E37F85"/>
</svg>
