<svg width="28" height="28" viewBox="0 0 28 28" fill="none" xmlns="http://www.w3.org/2000/svg">
<mask id="mask0" mask-type="alpha" maskUnits="userSpaceOnUse" x="0" y="0" width="28" height="28">
<rect width="28" height="28" fill="#C4C4C4"/>
</mask>
<g mask="url(#mask0)">
<path d="M14 27C21.1797 27 27 21.1797 27 14C27 6.8203 21.1797 1 14 1C6.8203 1 1 6.8203 1 14C1 21.1797 6.8203 27 14 27Z" fill="#299E63"/>
<path fill-rule="evenodd" clip-rule="evenodd" d="M12.762 7.80957C10.0258 7.80957 7.80957 10.0258 7.80957 12.762V17.6277C7.87148 17.5534 7.921 17.4915 7.9829 17.4172C8.37909 16.8972 8.88671 16.3772 9.481 15.8696C12.601 13.022 16.4762 11.5239 16.4762 11.5239C16.4762 11.5239 16.1791 11.7096 15.7086 12.0315C14.1362 13.1581 10.4839 16.08 8.63909 20.1905H15.2381C17.9743 20.1905 20.1905 17.9743 20.1905 15.2381V7.80957H12.762Z" fill="white"/>
<path fill-rule="evenodd" clip-rule="evenodd" d="M9.02283 25.9973C7.88378 25.5392 6.84378 24.9078 5.90283 24.1526C7.15331 16.2288 15.2752 12.0564 16.3276 11.623C15.3371 12.2792 6.8314 18.0364 9.02283 25.9973Z" fill="#6EBD95"/>
</g>
</svg>
