<svg width="28" height="28" viewBox="0 0 28 28" fill="none" xmlns="http://www.w3.org/2000/svg">
<path d="M24.5 5.83325H3.5V3.49992C3.5 2.79992 3.96667 2.33325 4.66667 2.33325H23.3333C24.0333 2.33325 24.5 2.79992 24.5 3.49992V5.83325Z" fill="#74A5E3"/>
<path d="M26.0168 7.81667L24.6168 22.8667C24.6168 23.45 24.0335 23.9167 23.4501 23.9167H4.55013C3.9668 23.9167 3.50013 23.45 3.38346 22.8667L1.98346 7.81667C1.8668 6.41667 2.9168 5.25 4.3168 5.25H23.6835C25.0835 5.25 26.1335 6.41667 26.0168 7.81667Z" fill="#337BD6"/>
<path d="M23.3332 23.9165H20.4165V25.6665H23.3332V23.9165Z" fill="#74A5E3"/>
<path d="M7.58317 23.9165H4.6665V25.6665H7.58317V23.9165Z" fill="#74A5E3"/>
<path d="M24.85 17.4999H24.5V14.5833H24.85C25.6667 14.5833 26.25 15.2833 26.25 15.9833C26.25 16.7999 25.55 17.4999 24.85 17.4999Z" fill="#337BD6"/>
<path d="M3.15 17.4999H3.5V14.5833H3.15C2.33333 14.5833 1.75 15.2833 1.75 15.9833C1.75 16.7999 2.45 17.4999 3.15 17.4999Z" fill="#337BD6"/>
<path d="M22.75 11.0833L22.1667 16.9166H5.83333L5.25 11.0833H22.75Z" fill="white"/>
<path d="M22.0504 19.25L21.9338 20.7667C21.9338 20.8833 21.8171 21 21.7004 21H19.0171L19.1338 19.4833C19.1338 19.3667 19.2504 19.25 19.3671 19.25H22.0504Z" fill="white"/>
<path d="M5.9502 19.25L6.06686 20.7667C6.18353 20.8833 6.3002 21 6.41686 21H9.1002L8.98353 19.4833C8.98353 19.3667 8.86686 19.25 8.7502 19.25H5.9502Z" fill="white"/>
</svg>
