<svg width="28" height="28" viewBox="0 0 28 28" fill="none" xmlns="http://www.w3.org/2000/svg">
<path d="M25.7835 8.88112L25.0835 17.7478L17.1502 21.9478L14.0002 23.5811L10.8502 21.9478L2.91684 17.7478L2.21684 8.88112C2.10017 7.94779 2.56684 7.01445 3.50017 6.66445L9.56684 3.51445L12.9502 1.76445C13.6502 1.41445 14.4668 1.41445 15.1668 1.76445L18.5502 3.51445L24.6168 6.66445C25.4335 7.13112 25.9002 7.94779 25.7835 8.88112Z" fill="#299E63"/>
<path d="M14.5838 5.4978L10.1924 3.18726L6.13184 5.29728L10.5005 7.5978L17.3838 11.2145C17.7338 11.4478 17.9671 11.7978 17.9671 12.2645V18.0978L20.0671 13.8978L21.8171 15.9978L22.0505 10.1645C22.0505 9.6978 21.8171 9.23114 21.4671 9.11447L14.5838 5.4978Z" fill="white"/>
<path d="M25.0837 17.7478L24.967 19.9645C24.8503 20.7811 24.3837 21.4811 23.6837 21.8311L18.4337 24.5145L15.0503 26.2645C14.7003 26.4978 14.3503 26.4978 14.0003 26.4978C13.6503 26.4978 13.3003 26.3811 12.9503 26.2645L9.56699 24.5145L4.31699 21.8311C3.61699 21.4811 3.15033 20.7811 3.03366 19.9645L2.91699 17.7478L10.8503 21.9478L14.0003 23.5811L17.1503 21.9478L25.0837 17.7478Z" fill="#6EBD95"/>
</svg>
