<svg width="160" height="48" viewBox="0 0 160 48" fill="none" xmlns="http://www.w3.org/2000/svg">
<rect x="0.375" y="0.375" width="159.25" height="47.25" rx="3.625" fill="#222D33" stroke="#464F54" stroke-width="0.75"/>
<path d="M36.6701 22.8273C36.6338 19.076 39.7418 17.2496 39.8819 17.1665C38.123 14.5982 35.3937 14.2505 34.439 14.2246C32.1508 13.9859 29.9301 15.5944 28.7627 15.5944C27.5745 15.5944 25.774 14.2454 23.8387 14.2869C21.3481 14.3284 19.0184 15.7708 17.7368 18.0071C15.101 22.5731 17.0675 29.282 19.5944 32.9763C20.8604 34.7819 22.334 36.8003 24.2693 36.7277C26.158 36.6498 26.8636 35.5239 29.1518 35.5239C31.4141 35.5239 32.0782 36.7277 34.0499 36.681C36.0786 36.6498 37.355 34.865 38.5744 33.0386C40.0376 30.9683 40.6239 28.9292 40.6446 28.8202C40.6031 28.8098 36.7065 27.3259 36.6701 22.8273Z" fill="white"/>
<path d="M32.9449 11.7963C33.9619 10.5251 34.6624 8.79209 34.4652 7.03833C32.9916 7.10578 31.1549 8.0553 30.0912 9.30057C29.152 10.3954 28.3115 12.1958 28.5294 13.8821C30.1846 14.0067 31.8813 13.0468 32.9449 11.7963Z" fill="white"/>
<path d="M64.0038 35.5764H61.368L59.9255 31.0364H54.9081L53.5332 35.5764H50.97L55.9459 20.1299H59.0123L64.0038 35.5764ZM59.4897 29.1373L58.1874 25.1058C58.0473 24.6959 57.7878 23.7256 57.4091 22.195H57.3624C57.2067 22.8539 56.9628 23.819 56.6256 25.1058L55.344 29.1373H59.4897Z" fill="white"/>
<path d="M76.7886 29.869C76.7886 31.7628 76.2801 33.2623 75.2528 34.3623C74.3344 35.3378 73.1981 35.8255 71.8387 35.8255C70.3703 35.8255 69.317 35.2963 68.6736 34.243H68.6321V40.1061H66.1571V28.1048C66.1571 26.9167 66.126 25.6921 66.0637 24.4417H68.2378L68.3778 26.2058H68.4245C69.2495 24.8775 70.5 24.2134 72.1811 24.2134C73.4938 24.2134 74.5886 24.7322 75.4707 25.77C76.3528 26.8077 76.7886 28.1775 76.7886 29.869ZM74.2721 29.9624C74.2721 28.878 74.0283 27.9855 73.5405 27.2799C73.0061 26.5483 72.2849 26.1799 71.3873 26.1799C70.775 26.1799 70.2198 26.3822 69.7269 26.7869C69.2288 27.1968 68.9071 27.7261 68.7514 28.3798C68.6736 28.686 68.6373 28.935 68.6373 29.1322V30.9897C68.6373 31.7992 68.8863 32.4841 69.3793 33.0392C69.8774 33.5996 70.5208 33.8746 71.3146 33.8746C72.2486 33.8746 72.975 33.5166 73.4886 32.8006C74.0127 32.0845 74.2721 31.1402 74.2721 29.9624Z" fill="white"/>
<path d="M89.5994 29.869C89.5994 31.7628 89.0909 33.2623 88.0636 34.3623C87.1452 35.3378 86.0089 35.8255 84.6495 35.8255C83.1863 35.8255 82.133 35.2963 81.4896 34.243H81.4429V40.1061H78.9679V28.1048C78.9679 26.9167 78.9368 25.6921 78.8745 24.4417H81.0485L81.1886 26.2058H81.2353C82.0551 24.8775 83.3108 24.2134 84.9919 24.2134C86.3046 24.2134 87.3994 24.7322 88.2815 25.77C89.1584 26.8077 89.5994 28.1775 89.5994 29.869ZM87.0777 29.9624C87.0777 28.878 86.8339 27.9855 86.3409 27.2799C85.8065 26.5483 85.0905 26.1799 84.1877 26.1799C83.5754 26.1799 83.0202 26.3822 82.5273 26.7869C82.0292 27.1968 81.7075 27.7261 81.557 28.3798C81.4792 28.686 81.4429 28.935 81.4429 29.1322V30.9897C81.4429 31.7992 81.6868 32.4841 82.1849 33.0392C82.683 33.5996 83.3264 33.8746 84.1202 33.8746C85.049 33.8746 85.7806 33.5166 86.2943 32.8006C86.8183 32.0845 87.0777 31.1402 87.0777 29.9624Z" fill="white"/>
<path d="M103.92 31.2439C103.92 32.5566 103.463 33.6255 102.545 34.4505C101.538 35.3533 100.138 35.7995 98.3423 35.7995C96.6819 35.7995 95.3485 35.4778 94.3367 34.8396L94.9126 32.7797C96.0022 33.4387 97.1904 33.7656 98.4928 33.7656C99.4267 33.7656 100.153 33.558 100.672 33.1377C101.191 32.7175 101.45 32.1519 101.45 31.4514C101.45 30.8236 101.238 30.2944 100.812 29.8689C100.387 29.4382 99.6706 29.0439 98.6795 28.6755C95.9763 27.6637 94.6272 26.1902 94.6272 24.2444C94.6272 22.9732 95.0994 21.9355 96.0489 21.1261C96.9932 20.3166 98.2541 19.9067 99.8314 19.9067C101.238 19.9067 102.405 20.1506 103.334 20.6383L102.716 22.6567C101.845 22.1845 100.859 21.9459 99.7588 21.9459C98.8871 21.9459 98.2074 22.1586 97.7197 22.5893C97.3097 22.9732 97.1022 23.4402 97.1022 23.985C97.1022 24.5973 97.3357 25.1006 97.813 25.4949C98.223 25.8633 98.9753 26.2576 100.06 26.6883C101.388 27.2227 102.363 27.8505 102.991 28.5666C103.609 29.2826 103.92 30.175 103.92 31.2439Z" fill="white"/>
<path d="M112.102 26.294H109.373V31.7006C109.373 33.0756 109.856 33.7605 110.816 33.7605C111.257 33.7605 111.625 33.7241 111.916 33.6463L111.983 35.5246C111.495 35.7062 110.852 35.7996 110.058 35.7996C109.077 35.7996 108.315 35.5038 107.765 34.9071C107.215 34.3105 106.94 33.3091 106.94 31.9029V26.294H105.311V24.4365H106.94V22.4026L109.368 21.6658V24.4365H112.097V26.294H112.102Z" fill="white"/>
<path d="M124.405 29.9157C124.405 31.6279 123.917 33.034 122.942 34.134C121.914 35.2652 120.555 35.8307 118.863 35.8307C117.229 35.8307 115.927 35.2911 114.956 34.2015C113.986 33.1171 113.503 31.7525 113.503 30.1025C113.503 28.3747 114.002 26.9634 115.003 25.8634C115.999 24.7634 117.348 24.2134 119.045 24.2134C120.679 24.2134 121.992 24.7582 122.988 25.8426C123.933 26.8907 124.405 28.2501 124.405 29.9157ZM121.836 29.9935C121.836 28.9662 121.613 28.0893 121.172 27.3525C120.653 26.4652 119.911 26.019 118.951 26.019C117.955 26.019 117.203 26.4652 116.684 27.3525C116.238 28.0893 116.02 28.9817 116.02 30.0402C116.02 31.0676 116.238 31.9444 116.684 32.6812C117.218 33.5685 117.966 34.0147 118.931 34.0147C119.875 34.0147 120.617 33.5633 121.151 32.6605C121.608 31.9133 121.836 31.0209 121.836 29.9935Z" fill="white"/>
<path d="M132.447 26.6157C132.203 26.5742 131.944 26.5483 131.669 26.5483C130.797 26.5483 130.123 26.8803 129.651 27.5341C129.241 28.1152 129.033 28.8468 129.033 29.7341V35.5765H126.558L126.579 27.9492C126.579 26.6676 126.548 25.495 126.491 24.4417H128.644L128.737 26.5742H128.805C129.064 25.8426 129.479 25.2511 130.045 24.8101C130.595 24.4105 131.192 24.2134 131.835 24.2134C132.063 24.2134 132.271 24.2289 132.452 24.2549V26.6157H132.447Z" fill="white"/>
<path d="M143.515 29.4798C143.515 29.9261 143.484 30.2945 143.427 30.6006H136.002C136.028 31.7006 136.391 32.5411 137.076 33.1223C137.698 33.6411 138.513 33.9006 139.504 33.9006C140.599 33.9006 141.6 33.7241 142.503 33.3765L142.892 35.0939C141.839 35.5505 140.594 35.784 139.156 35.784C137.434 35.784 136.074 35.2755 135.088 34.2586C134.108 33.2416 133.61 31.877 133.61 30.1699C133.61 28.4888 134.066 27.0931 134.985 25.9775C135.944 24.7841 137.242 24.1926 138.876 24.1926C140.479 24.1926 141.699 24.7893 142.524 25.9775C143.188 26.9218 143.515 28.0893 143.515 29.4798ZM141.154 28.8364C141.169 28.1049 141.009 27.4718 140.677 26.9374C140.246 26.2525 139.587 25.9049 138.705 25.9049C137.895 25.9049 137.242 26.2421 136.738 26.9115C136.323 27.4459 136.079 28.0841 136.007 28.8364H141.154Z" fill="white"/>
<path d="M54.4309 13.2069L53.8394 15.1578H52.5422L54.7526 8.26733H56.3559L58.5922 15.1578H57.2431L56.6205 13.2069H54.4309ZM56.4026 12.2574L55.863 10.5607C55.7281 10.1404 55.6191 9.67345 55.5153 9.27393H55.4946C55.3908 9.67345 55.2922 10.1508 55.1677 10.5607L54.6384 12.2574H56.4026Z" fill="white"/>
<path d="M60.4704 10.1819L61.2799 12.7087C61.4251 13.1498 61.5237 13.5441 61.6171 13.954H61.6483C61.7417 13.5441 61.8506 13.155 61.9855 12.7087L62.7846 10.1819H64.1025L62.2034 15.1578H60.9686L59.1162 10.1819H60.4704Z" fill="white"/>
<path d="M69.1148 13.9645C69.1148 14.4159 69.1355 14.8517 69.1978 15.1579H68.0615L67.9681 14.6079H67.937C67.6412 14.997 67.1172 15.272 66.4634 15.272C65.462 15.272 64.9016 14.5456 64.9016 13.7881C64.9016 12.5428 66.0172 11.8994 67.8539 11.9098V11.8319C67.8539 11.5051 67.719 10.9654 66.8422 10.9654C66.3492 10.9654 65.8408 11.1211 65.5035 11.3338L65.2596 10.514C65.628 10.2909 66.2714 10.073 67.0601 10.073C68.653 10.073 69.1148 11.0848 69.1148 12.1796V13.9645ZM67.8903 12.7296C67.003 12.7192 66.1521 12.906 66.1521 13.6583C66.1521 14.1513 66.4686 14.3744 66.8681 14.3744C67.3766 14.3744 67.7346 14.0475 67.8591 13.6895C67.8903 13.5961 67.8903 13.5079 67.8903 13.4145V12.7296Z" fill="white"/>
<path d="M71.5168 9.47124C71.0965 9.47124 70.8215 9.16511 70.8215 8.79672C70.8215 8.40757 71.1069 8.11182 71.5272 8.11182C71.9578 8.11182 72.2225 8.40757 72.2328 8.79672C72.2328 9.16511 71.9578 9.47124 71.5272 9.47124H71.5168ZM70.8942 15.1632V10.1873H72.1498V15.1632H70.8942Z" fill="white"/>
<path d="M73.9609 7.8938H75.2166V15.1631H73.9609V7.8938Z" fill="white"/>
<path d="M80.898 13.9645C80.898 14.4159 80.9187 14.8517 80.981 15.1579H79.8447L79.7513 14.6079H79.7202C79.4244 14.997 78.9055 15.272 78.2466 15.272C77.2452 15.272 76.6848 14.5456 76.6848 13.7881C76.6848 12.5428 77.8004 11.8994 79.6371 11.9098V11.8319C79.6371 11.5051 79.5022 10.9654 78.6254 10.9654C78.1324 10.9654 77.624 11.1211 77.2867 11.3338L77.0428 10.514C77.4112 10.2909 78.0546 10.073 78.8433 10.073C80.4362 10.073 80.898 11.0848 80.898 12.1796V13.9645ZM79.6683 12.7296C78.781 12.7192 77.9301 12.906 77.9301 13.6583C77.9301 14.1513 78.2466 14.3744 78.6461 14.3744C79.1546 14.3744 79.5126 14.0475 79.6371 13.6895C79.6683 13.5961 79.6683 13.5079 79.6683 13.4145V12.7296Z" fill="white"/>
<path d="M82.6724 7.8938H83.928V10.8669H83.9488C84.2549 10.3843 84.7997 10.0678 85.5417 10.0678C86.7558 10.0678 87.6275 11.0796 87.6171 12.5947C87.6171 14.3848 86.4808 15.272 85.3601 15.272C84.7167 15.272 84.1459 15.0282 83.7879 14.4159H83.7672L83.7049 15.1631H82.6309C82.6516 14.8258 82.6724 14.2758 82.6724 13.7725V7.8938ZM83.9332 13.1084C83.9332 13.2121 83.9436 13.3107 83.9643 13.4041C84.0992 13.9178 84.5351 14.281 85.0799 14.281C85.8686 14.281 86.3459 13.6584 86.3459 12.6466C86.3459 11.7697 85.9256 11.0537 85.0903 11.0537C84.5818 11.0537 84.1096 11.4221 83.9747 11.9721C83.954 12.0655 83.9332 12.1744 83.9332 12.2989V13.1084Z" fill="white"/>
<path d="M89.1011 7.8938H90.3567V15.1631H89.1011V7.8938Z" fill="white"/>
<path d="M93.0655 13.0254C93.0966 13.923 93.8022 14.3122 94.5961 14.3122C95.1772 14.3122 95.5871 14.2188 95.9763 14.0891L96.1579 14.9452C95.7272 15.1268 95.1357 15.2617 94.4197 15.2617C92.806 15.2617 91.8513 14.2707 91.8513 12.7452C91.8513 11.365 92.6919 10.0679 94.2848 10.0679C95.8984 10.0679 96.4329 11.3962 96.4329 12.491C96.4329 12.7244 96.4121 12.9112 96.3914 13.0202H93.0655V13.0254ZM95.2551 12.1485C95.2654 11.6867 95.0631 10.9344 94.2225 10.9344C93.4442 10.9344 93.1173 11.64 93.0655 12.1485H95.2551Z" fill="white"/>
<path d="M102.639 15.272C101.238 15.272 100.143 14.3121 100.143 12.7088C100.143 11.0744 101.217 10.073 102.722 10.073C104.206 10.073 105.197 11.1159 105.197 12.6258C105.197 14.4574 103.91 15.272 102.654 15.272H102.639ZM102.68 14.364C103.396 14.364 103.894 13.6687 103.894 12.6569C103.894 11.8786 103.547 10.981 102.69 10.981C101.803 10.981 101.445 11.8475 101.445 12.6777C101.445 13.6376 101.928 14.364 102.67 14.364H102.68Z" fill="white"/>
<path d="M106.675 11.6659C106.675 11.0952 106.654 10.6126 106.634 10.182H107.728L107.791 10.9291H107.822C108.045 10.54 108.59 10.073 109.415 10.073C110.281 10.073 111.184 10.6334 111.184 12.2107V15.163H109.928V12.3508C109.928 11.6348 109.664 11.0952 108.979 11.0952C108.481 11.0952 108.133 11.4532 107.998 11.8319C107.957 11.9357 107.936 12.0862 107.936 12.2315V15.163H106.68V11.6659H106.675Z" fill="white"/>
<path d="M116.975 8.90552V10.1819H118.168V11.1211H116.975V13.3107C116.975 13.9229 117.141 14.2291 117.618 14.2291C117.841 14.2291 117.966 14.2187 118.111 14.1772L118.132 15.1267C117.95 15.1993 117.613 15.2616 117.224 15.2616C116.752 15.2616 116.378 15.1059 116.139 14.8517C115.864 14.5663 115.74 14.1045 115.74 13.4508V11.1211H115.034V10.1819H115.74V9.25316L116.975 8.90552Z" fill="white"/>
<path d="M119.569 7.8938H120.824V10.8565H120.845C121.001 10.623 121.213 10.4259 121.468 10.2961C121.722 10.1509 122.018 10.073 122.334 10.073C123.18 10.073 124.072 10.6334 124.072 12.2315V15.1631H122.817V12.3612C122.817 11.6452 122.552 11.0952 121.857 11.0952C121.364 11.0952 121.021 11.4221 120.876 11.8008C120.835 11.915 120.824 12.0447 120.824 12.1796V15.1631H119.569V7.8938Z" fill="white"/>
<path d="M126.755 13.0254C126.787 13.923 127.492 14.3122 128.286 14.3122C128.867 14.3122 129.277 14.2188 129.666 14.0891L129.848 14.9452C129.417 15.1268 128.826 15.2617 128.11 15.2617C126.496 15.2617 125.541 14.2707 125.541 12.7452C125.541 11.365 126.382 10.0679 127.975 10.0679C129.588 10.0679 130.123 11.3962 130.123 12.491C130.123 12.7244 130.102 12.9112 130.081 13.0202H126.755V13.0254ZM128.94 12.1485C128.95 11.6867 128.748 10.9344 127.907 10.9344C127.129 10.9344 126.802 11.64 126.75 12.1485H128.94Z" fill="white"/>
</svg>
