<svg width="160" height="48" viewBox="0 0 160 48" fill="none" xmlns="http://www.w3.org/2000/svg">
<rect x="0.375" y="0.375" width="159.25" height="47.25" rx="3.625" fill="#222D33" stroke="#464F54" stroke-width="0.75"/>
<path fill-rule="evenodd" clip-rule="evenodd" d="M15.4613 11.3981C15.1689 11.7132 15 12.1946 15 12.8248V35.1746C15 35.8048 15.1689 36.2862 15.4713 36.5887L15.5495 36.6567L28.0716 24.1345V23.8548L15.5394 11.3301L15.4613 11.3981Z" fill="url(#paint0_linear)"/>
<path fill-rule="evenodd" clip-rule="evenodd" d="M32.2381 28.3211L28.0615 24.1445V23.8521L32.2381 19.6755L32.3288 19.731L37.2691 22.5389C38.6832 23.3354 38.6832 24.6511 37.2691 25.4577L32.3288 28.2656L32.2381 28.3211Z" fill="url(#paint1_linear)"/>
<path fill-rule="evenodd" clip-rule="evenodd" d="M32.3288 28.2656L28.0615 23.9983L15.4612 36.5986C15.9224 37.0926 16.6963 37.1481 17.5608 36.6667L32.3288 28.2656Z" fill="url(#paint2_linear)"/>
<path fill-rule="evenodd" clip-rule="evenodd" d="M32.3288 19.7311L17.5608 11.3426C16.6963 10.8486 15.9199 10.9167 15.4612 11.4107L28.0615 23.9984L32.3288 19.7311Z" fill="url(#paint3_linear)"/>
<path opacity="0.2" fill-rule="evenodd" clip-rule="evenodd" d="M32.2382 28.175L17.5711 36.508C16.7519 36.9794 16.0209 36.9466 15.5496 36.5181L15.4714 36.5963L15.5496 36.6643C16.0209 37.0903 16.7519 37.1256 17.5711 36.6542L32.3391 28.2658L32.2382 28.175Z" fill="black"/>
<path opacity="0.12" fill-rule="evenodd" clip-rule="evenodd" d="M37.2692 25.3115L32.2256 28.1749L32.3163 28.2656L37.2566 25.4577C37.9649 25.0544 38.3128 24.5251 38.3128 23.9983C38.2699 24.4822 37.9095 24.941 37.2692 25.3115Z" fill="black"/>
<path opacity="0.25" fill-rule="evenodd" clip-rule="evenodd" d="M17.5609 11.4888L37.2692 22.6852C37.9094 23.0456 38.2699 23.517 38.3253 23.9984C38.3253 23.4716 37.9775 22.9423 37.2692 22.539L17.5609 11.3427C16.1469 10.5335 15 11.2091 15 12.8247V12.9709C15 11.3527 16.1469 10.6898 17.5609 11.4888Z" fill="white"/>
<path d="M78.2802 25.0663C75.5562 25.0663 73.3354 27.1366 73.3354 29.9955C73.3354 32.8337 75.5562 34.9247 78.2802 34.9247C81.0042 34.9247 83.2249 32.8337 83.2249 29.9955C83.2249 27.1366 81.0042 25.0663 78.2802 25.0663ZM78.2802 32.9789C76.7859 32.9789 75.4991 31.7492 75.4991 29.9903C75.4991 28.2158 76.7859 27.0016 78.2802 27.0016C79.7745 27.0016 81.0613 28.2158 81.0613 29.9903C81.0613 31.7492 79.7745 32.9789 78.2802 32.9789ZM67.4878 25.0663C64.7638 25.0663 62.5431 27.1366 62.5431 29.9955C62.5431 32.8337 64.7638 34.9247 67.4878 34.9247C70.2119 34.9247 72.4326 32.8337 72.4326 29.9955C72.4326 27.1366 70.2119 25.0663 67.4878 25.0663ZM67.4878 32.9789C65.9935 32.9789 64.7067 31.7492 64.7067 29.9903C64.7067 28.2158 65.9935 27.0016 67.4878 27.0016C68.9822 27.0016 70.2689 28.2158 70.2689 29.9903C70.2689 31.7492 68.9822 32.9789 67.4878 32.9789ZM54.6512 26.5762V28.6672H59.653C59.5025 29.845 59.1134 30.7011 58.5167 31.2978C57.7903 32.0242 56.6488 32.8285 54.6512 32.8285C51.5691 32.8285 49.1616 30.3431 49.1616 27.2663C49.1616 24.1842 51.5691 21.7041 54.6512 21.7041C56.3115 21.7041 57.5257 22.3578 58.4233 23.1984L59.8969 21.7248C58.6464 20.5314 56.986 19.613 54.6512 19.613C50.4328 19.613 46.8838 23.0479 46.8838 27.2663C46.8838 31.4846 50.4328 34.9195 54.6512 34.9195C56.929 34.9195 58.6464 34.1723 59.9903 32.7714C61.3704 31.3912 61.8011 29.4507 61.8011 27.8785C61.8011 27.3908 61.7648 26.9446 61.6869 26.571L54.6512 26.571V26.5762ZM107.15 28.2002C106.74 27.1002 105.489 25.0663 102.931 25.0663C100.394 25.0663 98.2823 27.0639 98.2823 29.9955C98.2823 32.7558 100.373 34.9247 103.175 34.9247C105.432 34.9247 106.74 33.5445 107.279 32.7403L105.598 31.6195C105.038 32.4393 104.275 32.9841 103.17 32.9841C102.07 32.9841 101.287 32.4808 100.778 31.4898L107.368 28.7658L107.15 28.2002ZM100.43 29.845C100.373 27.9408 101.904 26.9705 103.004 26.9705C103.865 26.9705 104.592 27.4012 104.836 28.0134L100.43 29.845ZM95.0706 34.6237H97.2342V20.1371H95.0706V34.6237ZM91.5267 26.1663H91.4541C90.9664 25.5852 90.0376 25.0663 88.8598 25.0663C86.3952 25.0663 84.1381 27.2299 84.1381 30.0111C84.1381 32.7714 86.3952 34.9195 88.8598 34.9195C90.0376 34.9195 90.9716 34.3954 91.4541 33.7987H91.5267V34.5096C91.5267 36.3931 90.5201 37.4048 88.8961 37.4048C87.573 37.4048 86.748 36.4553 86.4159 35.6511L84.5325 36.4346C85.0721 37.7421 86.5093 39.3454 88.9013 39.3454C91.4385 39.3454 93.5866 37.8511 93.5866 34.2138V25.3672H91.5319V26.1663H91.5267ZM89.0414 32.9789C87.5471 32.9789 86.2966 31.7285 86.2966 30.0111C86.2966 28.2729 87.5471 27.0068 89.0414 27.0068C90.515 27.0068 91.672 28.2781 91.672 30.0111C91.672 31.7285 90.515 32.9789 89.0414 32.9789ZM117.293 20.1371H112.115V34.6237H114.279V29.1342H117.299C119.696 29.1342 122.051 27.4012 122.051 24.6356C122.051 21.8701 119.691 20.1371 117.293 20.1371ZM117.345 27.121H114.269V22.1555H117.345C118.964 22.1555 119.877 23.4941 119.877 24.6356C119.883 25.7616 118.964 27.121 117.345 27.121ZM130.711 25.0403C129.144 25.0403 127.525 25.7304 126.856 27.2559L128.776 28.0549C129.186 27.2559 129.949 26.9913 130.753 26.9913C131.874 26.9913 133.01 27.6606 133.025 28.854V29.0045C132.636 28.7813 131.796 28.4441 130.768 28.4441C128.698 28.4441 126.591 29.5804 126.591 31.7077C126.591 33.6483 128.288 34.8936 130.187 34.8936C131.64 34.8936 132.444 34.2398 132.948 33.4771H133.02V34.5926H135.106V29.0408C135.106 26.4724 133.186 25.0403 130.711 25.0403ZM130.447 32.9789C129.741 32.9789 128.75 32.6261 128.75 31.7492C128.75 30.6337 129.98 30.203 131.043 30.203C131.993 30.203 132.439 30.4106 133.02 30.6856C132.854 32.0294 131.697 32.9789 130.447 32.9789ZM142.713 25.3569L140.232 31.6351H140.16L137.586 25.3569H135.256L139.112 34.136L136.912 39.0185H139.169L145.115 25.3569H142.713ZM123.234 34.6237H125.398V20.1371L123.234 20.1371V34.6237Z" fill="white"/>
<path d="M54.236 10.1852C53.795 9.79605 53.2191 9.54699 52.5757 9.54699C51.1384 9.54699 50.0281 10.7352 50.0281 12.1932C50.0281 13.6512 51.1384 14.829 52.5757 14.829C53.8158 14.829 54.7134 14.1078 54.7757 12.9715H52.8195V12.1621H55.8393C55.8393 14.58 54.5525 15.7214 52.5809 15.7214C50.6248 15.7214 49.1045 14.1441 49.1045 12.1932C49.1045 10.2319 50.6248 8.65454 52.5809 8.65454C53.4889 8.65454 54.3087 9.00737 54.9106 9.56255L54.236 10.1852Z" fill="white"/>
<path d="M61.1837 8.73755V9.60404H58.0342V11.804H60.7842V12.6757H58.0342V14.7564H61.2823V15.6229H57.1055V8.73755H61.1837Z" fill="white"/>
<path d="M67.2078 8.73755V9.61443H65.122V15.6177H64.1828V9.61443H62.0918V8.73755H67.2078Z" fill="white"/>
<path d="M71.6646 8.73755V15.6229H70.7358V8.73755H71.6646Z" fill="white"/>
<path d="M78 8.73755V9.61443H75.9142V15.6177H74.975V9.61443H72.884V8.73755H78Z" fill="white"/>
<path d="M84.5584 8.65454C86.5249 8.65454 88.0555 10.2319 88.0555 12.1932C88.0555 14.1389 86.5249 15.7214 84.5584 15.7214C82.6023 15.7214 81.082 14.1441 81.082 12.1932C81.082 10.2319 82.5971 8.65454 84.5584 8.65454ZM84.5584 14.8186C86.006 14.8186 87.1164 13.6512 87.1164 12.1932C87.1164 10.7352 86.006 9.55736 84.5584 9.55736C83.1212 9.55736 82.0108 10.7352 82.0108 12.1932C82.0108 13.6512 83.1212 14.8186 84.5584 14.8186Z" fill="white"/>
<path d="M93.5503 15.6177L90.4112 10.4342V15.6177H89.4824V8.73755H90.4008L93.5088 13.8847V8.73755H94.4376V15.6229H93.5503V15.6177Z" fill="white"/>
<defs>
<linearGradient id="paint0_linear" x1="26.9484" y1="12.5836" x2="6.89008" y2="17.9282" gradientUnits="userSpaceOnUse">
<stop stop-color="#00A0FF"/>
<stop offset="0.00657" stop-color="#00A1FF"/>
<stop offset="0.2601" stop-color="#00BEFF"/>
<stop offset="0.5122" stop-color="#00D2FF"/>
<stop offset="0.7604" stop-color="#00DFFF"/>
<stop offset="1" stop-color="#00E3FF"/>
</linearGradient>
<linearGradient id="paint1_linear" x1="39.1132" y1="23.9983" x2="14.6563" y2="23.9983" gradientUnits="userSpaceOnUse">
<stop stop-color="#FFE000"/>
<stop offset="0.4087" stop-color="#FFBD00"/>
<stop offset="0.7754" stop-color="#FFA500"/>
<stop offset="1" stop-color="#FF9C00"/>
</linearGradient>
<linearGradient id="paint2_linear" x1="30.0084" y1="26.3203" x2="13.9057" y2="53.4226" gradientUnits="userSpaceOnUse">
<stop stop-color="#FF3A44"/>
<stop offset="1" stop-color="#C31162"/>
</linearGradient>
<linearGradient id="paint3_linear" x1="12.2883" y1="3.96418" x2="19.4724" y2="16.0685" gradientUnits="userSpaceOnUse">
<stop stop-color="#32A071"/>
<stop offset="0.0685" stop-color="#2DA771"/>
<stop offset="0.4762" stop-color="#15CF74"/>
<stop offset="0.8009" stop-color="#06E775"/>
<stop offset="1" stop-color="#00F076"/>
</linearGradient>
</defs>
</svg>
