<svg width="38" height="38" viewBox="0 0 38 38" fill="none" xmlns="http://www.w3.org/2000/svg">
<path d="M33.6664 0.666687H4.33311C2.31644 0.666687 0.666443 2.31669 0.666443 4.33335V33.6667C0.666443 35.6834 2.31644 37.3334 4.33311 37.3334H33.6664C35.6831 37.3334 37.3331 35.6834 37.3331 33.6667V4.33335C37.3331 2.31669 35.6831 0.666687 33.6664 0.666687ZM20.6681 25.3067L18.8714 25.49C18.5231 25.5267 18.2298 25.27 18.1931 24.94C17.8998 22.08 17.5881 19.22 17.2764 16.3417L15.5164 24.7934H12.0331L10.1998 16.3417C9.86978 19.715 9.53978 23.0884 9.19144 26.4617C9.15478 26.7917 8.84311 27.0484 8.51311 27.0117L6.71644 26.8284C6.36811 26.7917 6.12978 26.48 6.16644 26.15C6.67978 21.1084 7.15644 16.0484 7.63311 11.0067H11.9231L13.7198 19.6967L15.5348 11.0067H19.8248C20.2831 15.535 20.7048 20.0817 21.1814 24.6284C21.2548 24.9584 20.9981 25.27 20.6681 25.3067ZM31.8331 21.2367C31.8331 24.5367 29.8898 25.1784 28.0014 25.1784C25.1231 25.1784 24.0781 25.105 22.4464 24.5734V22.1534C23.1981 22.2267 25.5264 22.355 27.2864 22.355C28.0931 22.355 28.7348 22.19 28.7348 21.3467V20.8334C28.7348 20.155 28.5331 19.7517 27.5981 19.7517H25.6548C22.2081 19.7517 22.0064 17.0017 22.0064 15.9567V14.765C22.0064 12.0334 23.6198 11.1717 25.7464 11.135C28.0931 11.08 30.0914 11.3184 31.3198 11.7217V14.1417C30.1098 14.0134 27.6898 13.9584 26.7548 13.9584C25.6548 13.94 25.1231 14.0134 25.1231 15.0767V15.5167C25.1231 16.3784 25.3981 16.6534 26.4431 16.6534H28.4414C31.2098 16.6534 31.8148 18.945 31.8148 20.4667V21.2367H31.8331Z" fill="white"/>
</svg>
