<svg width="128" height="86" viewBox="0 0 128 86" fill="none" xmlns="http://www.w3.org/2000/svg">
<path d="M24.5524 26.2406C29.6504 29.3251 36.6403 28.9726 41.3271 25.2605C43.7851 23.3454 45.5576 20.5799 46.2776 17.5497C47.0331 14.4108 46.7181 11.0146 45.3369 8.09008C44.0299 5.29109 41.7551 2.96175 38.9926 1.57794C36.295 0.205646 33.1736 -0.256668 30.1809 0.132429C27.6675 0.45563 25.2346 1.4336 23.2276 2.98476C20.9904 4.69804 19.3016 7.11106 18.455 9.79813C17.4515 12.9506 17.574 16.4546 18.816 19.5234C19.9315 22.3067 21.9793 24.7009 24.5524 26.2406ZM21.3002 10.2583C22.153 7.71667 23.9151 5.4846 26.2172 4.10289C27.6141 3.25984 29.1942 2.72745 30.814 2.54022C33.4917 2.2233 36.2877 2.81845 38.551 4.30057C40.9159 5.82662 42.6518 8.2658 43.3728 10.9801C44.2005 14.0395 43.7945 17.4294 42.1935 20.173C40.897 22.4343 38.798 24.2219 36.3525 25.1277C33.4174 26.2197 30.0396 26.0962 27.2081 24.7501C24.8129 23.6215 22.8572 21.6143 21.7595 19.2086C20.4735 16.4285 20.3176 13.1567 21.3002 10.2583Z" fill="#8C9295"/>
<path d="M0.354486 27.5272C1.2795 27.5041 2.20451 27.5292 3.12847 27.5136C3.13057 23.4249 3.11068 19.3363 3.13894 15.2487C6.55227 15.2602 9.96665 15.2518 13.38 15.2528C13.381 14.4297 13.38 13.6075 13.381 12.7844C9.96874 12.7865 6.55646 12.7729 3.14417 12.7907C3.10127 9.62977 3.13789 6.46679 3.12638 3.30381C7.25021 3.30277 11.3751 3.30486 15.4989 3.30277C15.5 2.47123 15.5 1.63865 15.4989 0.806067C10.4449 0.807113 5.39182 0.803975 0.33879 0.808159C0.351346 9.71449 0.319955 18.6219 0.354486 27.5272Z" fill="#8C9295"/>
<path d="M53.9321 25.8536C55.1564 26.9769 56.7416 27.6756 58.3834 27.8974C60.7357 28.208 63.2199 27.7488 65.2258 26.4518C66.4815 25.6695 67.4891 24.5639 68.3639 23.3851C68.3807 24.7647 68.3535 26.1443 68.3775 27.5229C69.2994 27.5093 70.2223 27.526 71.1442 27.5135C71.1379 18.6113 71.1431 9.7092 71.1411 0.806002C70.216 0.80914 69.29 0.799726 68.365 0.812277C68.3765 7.00958 68.3629 13.2079 68.3713 19.4052C68.4163 19.7629 68.1515 20.0338 67.9914 20.3236C67.0685 21.8549 65.9342 23.3108 64.4222 24.2993C62.7877 25.3912 60.7221 25.8107 58.7915 25.4477C57.449 25.1977 56.2059 24.4551 55.3635 23.3778C54.2973 22.0274 53.8494 20.2786 53.8369 18.58C53.84 12.6578 53.8316 6.73449 53.841 0.812277C52.893 0.800772 51.9439 0.804956 50.9959 0.810186C51.0022 6.55668 50.9969 12.3021 50.998 18.0486C50.9833 18.991 51.0419 19.9387 51.2324 20.8643C51.6018 22.746 52.5027 24.5545 53.9321 25.8536Z" fill="#8C9295"/>
<path d="M78.1008 27.5271C79.029 27.5062 79.9582 27.5239 80.8863 27.5177C80.8863 23.7689 80.8853 20.0213 80.8863 16.2736C81.9285 16.2747 82.9707 16.2715 84.0129 16.2747C86.1225 19.3968 88.2205 22.5263 90.3342 25.6454C90.8281 26.3556 91.3806 27.0658 92.1507 27.4946C93.0077 27.9695 94.0353 28.0741 94.9927 27.9308C96.1668 27.7467 97.1682 26.9298 97.7238 25.8996C97.3712 25.5628 97.0332 25.2124 96.6868 24.8714C96.1584 25.4697 95.3537 25.9142 94.5376 25.7238C93.7151 25.5021 93.1595 24.7919 92.6823 24.1329C90.8229 21.4197 88.954 18.7138 87.1061 15.9943C88.9927 15.5331 90.7862 14.5018 91.954 12.9255C92.9156 11.6432 93.374 10.024 93.3405 8.42892C93.3489 6.60268 92.7493 4.73146 91.4789 3.3895C90.1772 1.98896 88.3157 1.23796 86.4531 0.958691C85.2006 0.752637 83.9303 0.815395 82.6673 0.805981C81.1406 0.808073 79.6128 0.802843 78.0851 0.808073C78.0987 9.71441 78.0673 18.6218 78.1008 27.5271ZM80.8863 3.26503C83.0147 3.33302 85.2142 3.0255 87.2714 3.72002C88.5041 4.11435 89.607 5.00655 90.0757 6.2345C90.5906 7.60366 90.5958 9.16423 90.126 10.5459C89.6174 12.0239 88.3126 13.1064 86.8549 13.5855C84.94 14.2727 82.8786 14.0122 80.8874 14.0645C80.8842 10.4654 80.8874 6.86522 80.8863 3.26503Z" fill="#8C9295"/>
<path d="M36.1631 61.8126C39.4257 60.9675 42.3672 58.9206 44.2538 56.1237C46.4481 52.9262 47.1795 48.8093 46.3414 45.0344C45.6036 41.6142 43.5192 38.5098 40.627 36.5381C37.9346 34.6721 34.5945 33.8249 31.3361 34.0195C29.2778 34.1324 27.2384 34.6585 25.403 35.602C22.74 36.9544 20.5342 39.1854 19.2251 41.8704C17.8094 44.7395 17.4358 48.0897 18.1076 51.2119C18.8244 54.6154 20.8742 57.7125 23.7299 59.6998C27.2865 62.2153 31.9754 62.9109 36.1631 61.8126ZM22.3779 54.3623C21.2122 52.4492 20.6263 50.1973 20.666 47.961C20.6964 45.0909 21.7898 42.2323 23.7455 40.1216C25.5464 38.1489 28.0703 36.8655 30.7208 36.5465C33.2018 36.2327 35.7906 36.6971 37.9692 37.9387C40.1896 39.1875 41.9486 41.2188 42.904 43.5764C44.348 47.0845 44.0246 51.2778 42.0009 54.4951C40.987 56.1226 39.5576 57.4928 37.8781 58.4206C34.5077 60.2992 30.1903 60.3358 26.7843 58.5273C24.9719 57.5755 23.4348 56.1132 22.3779 54.3623Z" fill="#8C9295"/>
<path d="M125.697 50.4578C124.302 48.9736 122.506 47.9747 120.84 46.8367C119.519 45.932 118.119 45.1287 116.912 44.0702C116.154 43.3976 115.493 42.5493 115.279 41.5389C114.989 40.1311 115.487 38.5705 116.601 37.6438C117.652 36.7464 119.09 36.4347 120.444 36.5162C122.477 36.6355 124.402 37.4346 126.151 38.4335C126.16 37.4869 126.155 36.5403 126.153 35.5937C124.204 34.5844 122.019 33.9871 119.814 34.0415C117.852 34.0708 115.815 34.6691 114.38 36.0592C113.162 37.217 112.53 38.8895 112.464 40.5505C112.369 41.949 112.725 43.3756 113.506 44.544C114.463 46.0177 115.921 47.0595 117.38 47.9894C118.664 48.8334 119.951 49.6723 121.235 50.5185C122.514 51.3971 123.798 52.4075 124.505 53.8237C125.29 55.3759 124.767 57.4009 123.418 58.4678C121.958 59.6476 119.949 59.9342 118.134 59.6622C115.981 59.316 113.995 58.3443 112.118 57.2764C112.122 58.2952 112.124 59.315 112.117 60.3348C114.737 61.7573 117.778 62.5188 120.762 62.1799C122.666 61.9634 124.576 61.2343 125.924 59.8348C127.304 58.4333 127.887 56.3748 127.653 54.444C127.487 52.9378 126.734 51.5435 125.697 50.4578Z" fill="#8C9295"/>
<path d="M2.81898 61.5154C2.83363 57.6569 2.82003 53.7994 2.82631 49.9408C4.25673 49.9367 5.68819 49.9461 7.11861 49.9367C9.29615 49.8708 11.5187 49.1919 13.1814 47.7475C14.4088 46.6921 15.2187 45.1796 15.4427 43.5783C15.6907 41.8096 15.4489 39.9206 14.5124 38.3746C13.7904 37.1655 12.6478 36.2419 11.3659 35.6792C9.83609 35.0046 8.14512 34.7786 6.4845 34.7985C4.3237 34.7933 2.16185 34.8142 0.00104639 34.7891L0 34.7849V61.4924V61.5426C0.938614 61.4935 1.87932 61.5123 2.81898 61.5154ZM2.82526 37.2586C4.25568 37.2628 5.68714 37.2471 7.11756 37.2659C8.63483 37.3391 10.2599 37.6843 11.3806 38.7826C12.3956 39.7731 12.7147 41.2625 12.6383 42.6348C12.586 43.9015 12.0984 45.1796 11.1493 46.0457C9.93027 47.1816 8.22151 47.6178 6.59228 47.6722C5.3366 47.6868 4.08093 47.6743 2.82526 47.6784C2.82526 44.2048 2.82526 40.7312 2.82526 37.2586Z" fill="#8C9295"/>
<path d="M53.2364 34.7997C53.2312 43.7008 53.2417 52.6009 53.2312 61.502C54.1656 61.524 55.1001 61.5062 56.0345 61.5114C56.0376 52.6093 56.0293 43.7071 56.0387 34.806C55.1042 34.7924 54.1698 34.8029 53.2364 34.7997Z" fill="#8C9295"/>
<path d="M82.307 61.5009C83.2383 61.5187 84.1696 61.5176 85.102 61.5019C85.0925 52.6019 85.102 43.7008 85.0967 34.7997C84.1696 34.7986 83.2415 34.8018 82.3144 34.7986C82.3102 40.5859 82.3091 46.3743 82.3154 52.1615C76.7256 46.6368 71.2006 41.0451 65.6192 35.5099C65.3691 35.2819 65.1619 35.0026 64.8836 34.8091C64.3279 34.7829 63.7712 34.808 63.2146 34.8007C63.2125 43.7018 63.2188 52.604 63.2114 61.5061C64.1438 61.5103 65.0771 61.525 66.0095 61.4988C65.9927 54.2325 66.0011 46.9663 66.0053 39.7C68.4109 42.0461 70.7632 44.4476 73.148 46.8146C76.2013 49.8625 79.2453 52.9188 82.305 55.9605C82.3175 57.8066 82.3133 59.6537 82.307 61.5009Z" fill="#8C9295"/>
<path d="M110.613 37.265C110.649 36.4439 110.625 35.6207 110.626 34.7986C103.43 34.8017 96.2329 34.7986 89.0368 34.7996C89.0379 35.6197 89.0253 36.4407 89.0442 37.2608C92.1708 37.2482 95.2984 37.2712 98.4251 37.2493C98.4565 37.857 98.4324 38.4668 98.4397 39.0755C98.4345 46.5489 98.4491 54.0222 98.4324 61.4956C99.3637 61.528 100.297 61.5103 101.228 61.505C101.23 53.4208 101.211 45.3356 101.239 37.2503C104.363 37.2723 107.489 37.243 110.613 37.265Z" fill="#8C9295"/>
<path d="M32.7491 78.1044C32.2939 77.8074 31.8544 77.4287 31.6525 76.9099C31.3459 76.114 31.5656 75.0952 32.2814 74.59C32.9061 74.1256 33.7463 74.1225 34.4757 74.2877C35.1108 74.4362 35.6246 74.8787 36.0254 75.3745C36.3341 75.1287 36.626 74.863 36.9274 74.6088C36.4952 74.0994 35.9793 73.6403 35.3515 73.3892C34.6295 73.0964 33.8279 73.02 33.0568 73.1047C32.0302 73.2271 31.0644 73.8683 30.6208 74.8117C30.1593 75.7897 30.2074 77.0208 30.8185 77.9256C31.4087 78.7916 32.3682 79.2853 33.2702 79.7623C34.0812 80.1995 34.9633 80.6116 35.5252 81.373C36.0578 82.1063 36.107 83.193 35.5534 83.9294C35.0397 84.6343 34.1147 84.945 33.2671 84.8592C32.3442 84.7839 31.4945 84.3174 30.83 83.6909C30.5611 83.9681 30.2943 84.2473 30.0588 84.5538C30.8238 85.287 31.8042 85.8006 32.859 85.946C33.8688 86.1112 34.9507 85.8968 35.7805 85.287C36.6051 84.6992 37.1649 83.7191 37.1502 82.6951C37.1712 81.781 36.8102 80.8678 36.1541 80.2277C35.1903 79.2717 33.8719 78.8303 32.7491 78.1044Z" fill="#8C9295"/>
<path d="M84.4702 73.0755C82.9393 77.32 81.3635 81.5488 79.8389 85.7943C80.2522 85.7891 80.6666 85.786 81.0809 85.7975C81.6627 84.2547 82.1797 82.6878 82.7594 81.144C84.1469 81.1555 85.5333 81.1461 86.9209 81.1492C87.4692 82.6972 88.0164 84.2442 88.5689 85.7912C88.9896 85.788 89.4113 85.8027 89.8319 85.7744C88.277 81.5415 86.7545 77.297 85.2006 73.064C84.9568 73.0671 84.713 73.0702 84.4702 73.0755ZM83.1423 80.0635C83.6938 78.4894 84.2651 76.9225 84.8124 75.3473C85.4517 76.8869 85.9393 78.4894 86.5347 80.0468C85.4046 80.0855 84.2735 80.0541 83.1423 80.0635Z" fill="#8C9295"/>
<path d="M106.692 73.1465C105.092 73.386 103.619 74.3085 102.686 75.6275C101.184 77.7121 101.065 80.6711 102.339 82.8938C103.022 84.0987 104.117 85.0693 105.409 85.5756C107.205 86.2879 109.344 86.0944 110.958 85.0233C112.474 84.0454 113.484 82.375 113.746 80.601C114.053 78.644 113.51 76.5364 112.16 75.0637C110.82 73.5471 108.685 72.8149 106.692 73.1465ZM112.402 81.1167C112.042 82.5036 111.097 83.7493 109.799 84.3822C108.367 85.0882 106.585 85.0254 105.204 84.2211C104.357 83.7347 103.677 82.9785 103.247 82.1041C102.594 80.7694 102.495 79.1848 102.925 77.7665C103.447 75.9528 105.052 74.4759 106.944 74.2395C108.368 74.0282 109.882 74.4675 110.932 75.4601C112.455 76.8638 112.931 79.1555 112.402 81.1167Z" fill="#8C9295"/>
<path d="M5.60538 79.0793C5.9193 78.8429 6.25937 78.6306 6.50737 78.321C7.50667 77.1579 7.38738 75.1831 6.19659 74.1947C5.33018 73.4583 4.14566 73.2533 3.03962 73.2638C2.06857 73.2722 1.09752 73.2523 0.126465 73.2753C0.136929 77.4476 0.125418 81.62 0.132743 85.7923C1.379 85.7881 2.6263 85.7923 3.87255 85.7902C4.82268 85.7808 5.80001 85.6166 6.62561 85.1271C8.21927 84.239 8.65247 81.9369 7.67514 80.4485C7.19799 79.7393 6.41529 79.3021 5.60538 79.0793ZM1.30366 74.3715C2.27052 74.3788 3.24785 74.2983 4.20635 74.4625C4.8007 74.5733 5.41075 74.8599 5.72153 75.4038C6.22903 76.3326 5.94755 77.6443 5.01835 78.2007C3.91336 78.9141 2.54468 78.593 1.30889 78.6651C1.3047 77.2332 1.31412 75.8023 1.30366 74.3715ZM6.21333 83.9932C5.56038 84.5256 4.68874 84.6794 3.86837 84.7024C3.01556 84.7108 2.16275 84.7034 1.30889 84.7055C1.30784 83.0582 1.3068 81.4108 1.30889 79.7634C2.60328 79.8209 3.94475 79.5929 5.19624 80.0186C5.91197 80.256 6.60154 80.7455 6.85372 81.484C7.13416 82.3427 6.93953 83.4075 6.21333 83.9932Z" fill="#8C9295"/>
<path d="M19.3459 73.2583C18.0704 75.0689 16.8356 76.9066 15.5737 78.7255C14.3076 76.915 13.0508 75.0981 11.8035 73.275C11.341 73.2573 10.8785 73.2625 10.416 73.2709C11.9061 75.4789 13.4485 77.6555 14.9239 79.8719C14.9647 81.8456 14.9103 83.8225 14.9511 85.7972C15.3351 85.7868 15.7202 85.7868 16.1042 85.7972C16.1262 83.9605 16.1126 82.1228 16.1115 80.2861C16.1251 80.1292 16.0833 79.9535 16.1712 79.8154C17.6675 77.6252 19.2099 75.4653 20.6937 73.2667C20.2437 73.2614 19.7948 73.2709 19.3459 73.2583Z" fill="#8C9295"/>
<path d="M50.9984 73.2659C50.606 73.2638 50.2136 73.2638 49.8212 73.2669C49.8201 75.0796 49.8233 76.8912 49.8201 78.7038C47.6143 78.7038 45.4096 78.7048 43.2038 78.7038C43.2027 76.8922 43.2038 75.0796 43.2038 73.268C42.8198 73.2638 42.4357 73.2638 42.0527 73.2659C42.0643 77.4434 42.0266 81.6231 42.0716 85.7996C42.4472 85.787 42.8239 85.787 43.1996 85.7933C43.208 83.8008 43.2006 81.8092 43.2038 79.8167C45.4096 79.8157 47.6154 79.8146 49.8212 79.8167C49.8243 81.8092 49.8149 83.8008 49.8264 85.7933C50.2188 85.7902 50.6122 85.7964 51.0057 85.7776C50.9889 81.6074 51.0046 77.4361 50.9984 73.2659Z" fill="#8C9295"/>
<path d="M58.0244 84.7139C57.9993 83.053 58.0003 81.3909 58.0233 79.7299C59.6358 79.7456 61.2494 79.7331 62.8619 79.7362C62.8619 79.3743 62.8619 79.0124 62.8608 78.6516C61.2462 78.6568 59.6327 78.6442 58.0192 78.6578C57.9961 77.227 58.016 75.7961 58.0087 74.3652C59.8064 74.36 61.6031 74.3684 63.3997 74.361C63.3976 73.995 63.3976 73.631 63.3976 73.2659C61.2096 73.2649 59.0206 73.2649 56.8325 73.2659C56.8336 77.4414 56.8263 81.6179 56.8357 85.7934C59.1262 85.7892 61.4168 85.7881 63.7073 85.7934C63.7136 85.4304 63.7136 85.0675 63.7105 84.7045C61.8144 84.7118 59.9194 84.6941 58.0244 84.7139Z" fill="#8C9295"/>
<path d="M71.6686 80.504C72.8667 80.5197 74.1276 80.1766 74.9919 79.3105C76.1869 78.1495 76.3324 76.0921 75.3163 74.7742C74.5723 73.7826 73.3135 73.29 72.0986 73.268C70.9863 73.2618 69.874 73.2659 68.7607 73.267C68.7638 77.4424 68.7533 81.6179 68.7659 85.7934C69.1583 85.7902 69.5517 85.7955 69.9441 85.7798C69.9284 83.9797 69.9473 82.1785 69.9337 80.3785C71.5828 82.1503 73.1785 83.9745 74.79 85.7808C75.2954 85.7986 75.8008 85.7892 76.3072 85.7902C75.7976 85.0957 75.1719 84.4943 74.6173 83.8353C73.6327 82.7266 72.649 81.6158 71.6686 80.504ZM69.9389 79.4099C69.9378 77.728 69.9378 76.0461 69.9389 74.3642C70.8712 74.3945 71.8161 74.2857 72.7401 74.4521C73.5385 74.6069 74.3191 75.1068 74.6121 75.8934C74.9396 76.7961 74.7994 77.9278 74.0826 78.6108C73.5039 79.1672 72.6804 79.3869 71.8967 79.4078C71.2437 79.4141 70.5908 79.4078 69.9389 79.4099Z" fill="#8C9295"/>
<path d="M91.9651 73.2659C91.9641 73.631 91.9641 73.996 91.9651 74.3621C92.9958 74.3746 94.0276 74.3443 95.0593 74.3778C95.0415 78.1819 95.0562 81.9861 95.052 85.7902C95.4392 85.7902 95.8274 85.7902 96.2156 85.7892C96.2114 81.984 96.2229 78.1788 96.2104 74.3725C97.2411 74.3516 98.2717 74.3705 99.3024 74.3631C99.3024 73.9971 99.3024 73.631 99.3014 73.2659C96.856 73.2649 94.4106 73.2649 91.9651 73.2659Z" fill="#8C9295"/>
<path d="M127.345 73.2657C126.957 73.2647 126.569 73.2647 126.182 73.2657C126.177 76.7801 126.19 80.2945 126.176 83.809C126.023 83.6238 125.882 83.4324 125.751 83.2337C123.419 79.9107 121.073 76.5971 118.743 73.272C118.328 73.2605 117.913 73.2636 117.497 73.2657C117.508 77.4433 117.473 81.6219 117.515 85.7984C117.893 85.7869 118.272 85.7858 118.651 85.7973C118.674 82.262 118.652 78.7246 118.662 75.1882C121.16 78.7183 123.657 82.2484 126.146 85.7837C126.542 85.7911 126.94 85.789 127.337 85.7952C127.356 81.6187 127.341 77.4422 127.345 73.2657Z" fill="#8C9295"/>
<path d="M113.786 13.1307C114.605 11.8149 115.254 10.3788 115.602 8.8632C115.9 7.53692 115.931 6.08827 115.354 4.82998C114.867 3.74637 113.935 2.92111 112.886 2.3929C111.437 1.66282 109.812 1.36996 108.208 1.22561C106.143 1.04989 104.067 1.15449 102.008 1.34485C105.919 5.28811 109.861 9.20209 113.786 13.1307Z" fill="#8C9295"/>
<path d="M124.774 14.4244C125.941 13.7162 126.701 12.5029 127.152 11.2415C127.865 9.23641 127.99 7.08278 128 4.97309C127.939 3.76396 127.941 2.54228 127.745 1.3457C123.838 5.27955 119.898 9.17993 115.991 13.1138C117.498 14.0374 119.154 14.7685 120.91 15.0467C122.214 15.2507 123.629 15.1335 124.774 14.4244Z" fill="#8C9295"/>
<path d="M113.808 15.3332C112.927 14.7788 111.989 14.3165 111.014 13.9567C109.529 13.418 107.89 13.0917 106.328 13.4776C105.179 13.7496 104.178 14.4985 103.52 15.4691C102.582 16.8425 102.19 18.5035 101.978 20.131C101.705 22.4467 101.79 24.7918 102.025 27.1065C105.962 23.1915 109.885 19.2618 113.808 15.3332Z" fill="#8C9295"/>
<path d="M125.246 24.5492C122.159 21.4751 119.109 18.3645 115.999 15.3145C114.861 17.2139 113.938 19.3613 113.992 21.6143C114.009 23.0347 114.658 24.4415 115.781 25.3232C117.018 26.3221 118.591 26.7823 120.136 27.0428C122.666 27.4434 125.244 27.3398 127.783 27.0982C126.95 26.2363 126.089 25.4006 125.246 24.5492Z" fill="#8C9295"/>
</svg>
