<svg width="78" height="86" viewBox="0 0 78 86" fill="none" xmlns="http://www.w3.org/2000/svg">
<path fill-rule="evenodd" clip-rule="evenodd" d="M12.583 70.9182V71.7118C12.3839 73.886 10.5674 75.5881 8.35422 75.5881C6.00831 75.5881 4.10843 73.6748 4.10843 71.3142C4.10843 68.9536 6.00985 67.0403 8.35422 67.0403C10.5674 67.0418 12.3839 68.7439 12.583 70.9182ZM27.0968 66.989C29.4196 66.989 31.3025 68.9132 31.3025 71.2878C31.3025 73.6623 29.4196 75.5865 27.0968 75.5865C24.7741 75.5865 22.8912 73.6623 22.8912 71.2878C22.8912 68.9132 24.7725 66.989 27.0968 66.989ZM27.0968 63.504C31.6621 63.504 35.3631 66.989 35.3631 71.2878C35.3631 75.5865 31.6621 79.0715 27.0968 79.0715C22.5315 79.0715 18.8306 75.5865 18.8306 71.2878C18.829 66.989 22.53 63.504 27.0968 63.504ZM41.7835 63.504H37.8232V71.7133L37.8201 80.4506C37.7445 82.9944 35.9619 82.2008 33.9756 82.3344V85.9995H34.5312C38.6689 85.9995 41.785 85.7309 41.785 81.7163V63.504H41.7835ZM56.3358 69.8155C55.7524 68.028 54.1334 66.7436 52.2274 66.7436C50.3229 66.7436 48.7039 68.0295 48.119 69.8155H56.3358ZM51.9943 63.504C56.4531 63.504 60.0677 66.989 60.0677 71.2878C60.0677 71.7459 60.026 72.1932 59.9488 72.628H48.0804C48.4539 73.8953 49.3428 74.9265 50.4926 75.4514C52.2567 76.3444 55.436 76.0633 56.609 74.1251L59.2003 76.0928C57.0936 78.2127 55.703 79.07 51.9959 79.07C48.2887 79.07 43.9226 75.585 43.9226 71.2862C43.9226 66.989 47.5356 63.504 51.9943 63.504ZM62.2886 59.5842H66.2488V69.8046L72.6337 63.5957H77.9444L71.3543 70.0267H71.3944L78 78.9752H73.3282L68.6627 72.6544L66.3059 74.9545L66.2504 74.9032V78.9768H62.2901V59.5842H62.2886ZM16.5433 63.504H12.583V65.1829C11.2604 64.1315 9.58891 63.504 7.77237 63.504C3.48028 63.504 0 67.0061 0 71.3251C0 75.644 3.48028 79.1461 7.77237 79.1461C9.58891 79.1461 11.2604 78.5186 12.583 77.4672V78.3059C12.583 83.4013 5.92034 83.2522 3.86149 80.2083L1.14672 82.8686C2.94165 84.8751 5.32151 85.9762 8.40052 85.998H9.2895C13.2791 85.998 16.5433 82.7133 16.5433 78.6988V63.504Z" fill="#8C9295"/>
<path fill-rule="evenodd" clip-rule="evenodd" d="M39.0071 16.5922C44.4074 16.5922 48.7859 20.9981 48.7859 26.4321C48.7859 31.8662 44.4089 36.2721 39.0071 36.2721C33.6054 36.2721 29.2284 31.8662 29.2284 26.4321C29.2284 20.9981 33.6069 16.5922 39.0071 16.5922ZM38.9994 -0.000244141C53.4962 -0.000244141 65.2489 11.826 65.2489 26.4135C65.2489 37.6387 58.2899 47.2271 48.4757 51.0522C48.542 51.0258 48.6084 50.9994 48.6748 50.973C48.1917 51.1329 47.6762 51.2199 47.1407 51.2199C44.4259 51.2199 42.2251 49.0053 42.2251 46.2735C42.2251 44.2794 43.3965 42.5618 45.0849 41.7791C45.2084 41.7294 45.3318 41.6781 45.4538 41.6253C45.4769 41.6176 45.5001 41.6082 45.5232 41.6005V41.5943C51.3525 39.0535 55.4316 33.2142 55.4316 26.4135C55.4316 17.2818 48.0744 9.87696 38.9979 9.87696C29.9214 9.87696 22.5642 17.2802 22.5642 26.4135C22.5642 33.2142 26.6448 39.0551 32.4756 41.5958L32.4741 41.5943V41.6005C32.4957 41.6082 32.5189 41.6176 32.542 41.6253H32.5435C32.667 41.6781 32.7905 41.7294 32.914 41.7791C34.6008 42.5634 35.7723 44.281 35.7723 46.272C35.7723 49.0037 33.5714 51.2183 30.8566 51.2183C30.3211 51.2183 29.8056 51.1314 29.3225 50.973C29.3905 51.0009 29.4599 51.0273 29.5294 51.0537C19.712 47.2302 12.7515 37.6403 12.7515 26.4135C12.7499 11.826 24.5026 -0.000244141 38.9994 -0.000244141Z" fill="#8C9295"/>
</svg>
