<svg width="72" height="86" viewBox="0 0 72 86" fill="none" xmlns="http://www.w3.org/2000/svg">
<path d="M36.0066 69.6729C32.7477 69.6729 29.5855 69.0376 26.6088 67.7852C23.7342 66.5755 21.152 64.8434 18.935 62.6378C16.718 60.4321 14.9771 57.8631 13.7611 55.0032C12.5023 52.0418 11.8638 48.8964 11.8638 45.6542V19.0354H60.1487V45.6542C60.1487 48.8964 59.5101 52.0425 58.2513 55.0032C57.0354 57.8631 55.2944 60.4321 53.0774 62.6378C50.8605 64.8434 48.2783 66.5755 45.4037 67.7852C42.427 69.0376 39.2654 69.6729 36.0066 69.6729ZM12.2718 19.4413V45.6542C12.2718 58.6743 22.9188 69.2669 36.0059 69.2669C49.093 69.2669 59.74 58.6743 59.74 45.6542V19.4413H12.2718Z" fill="#8C9295"/>
<path d="M41.354 23.6255C41.4989 23.6877 41.6328 23.773 41.7416 23.8873C41.607 23.8075 41.4778 23.7202 41.354 23.6255Z" fill="#8C9295"/>
<path d="M41.8482 23.9657C41.9122 23.9059 42.0455 23.9998 41.9985 24.0793C41.9326 24.1358 41.8 24.0453 41.8482 23.9657Z" fill="#8C9295"/>
<path d="M26.4189 45.1129C26.9929 44.9411 27.5465 44.6738 28.1511 44.6285C28.9583 44.6285 29.6805 45.0554 30.4612 45.1914C31.2215 45.0534 31.924 44.6522 32.7081 44.6278C33.4188 44.6528 34.0506 45.0216 34.7334 45.1745C34.953 45.234 35.1761 45.1623 35.3869 45.1014C35.9622 44.9275 36.5185 44.6542 37.1279 44.6265C37.8399 44.6522 38.475 45.0162 39.1578 45.1731C39.4652 45.2489 39.7672 45.1116 40.0569 45.0229C40.6478 44.8335 41.2538 44.5365 41.891 44.6596C42.4915 44.7713 43.043 45.0581 43.6408 45.1819C43.7843 45.2219 43.9312 45.184 44.0726 45.1501C44.6384 45.0026 45.1702 44.7381 45.7517 44.6481C45.632 45.0311 45.4701 45.3991 45.3076 45.7652C44.8132 45.9296 44.3222 46.144 43.7952 46.1664C43.0763 46.1447 42.4378 45.7699 41.7475 45.6177C41.5074 45.5561 41.2674 45.6468 41.0389 45.7124C40.4887 45.8808 39.9542 46.14 39.37 46.1664C38.5852 46.1522 37.9018 45.6887 37.1333 45.5926C36.3852 45.6955 35.7167 46.1292 34.9537 46.1664C34.1635 46.1569 33.4752 45.688 32.7013 45.5933C31.9315 45.6772 31.2385 46.0933 30.4667 46.1664C29.688 46.1041 28.9916 45.6738 28.2163 45.594C27.7321 45.6454 27.286 45.8592 26.8277 46.0087C26.6699 45.7205 26.5407 45.4181 26.4189 45.1129Z" fill="#8C9295"/>
<path d="M26.8262 44.6304C26.9057 44.6045 26.9853 44.578 27.0649 44.5508C26.986 44.5787 26.9071 44.6072 26.8275 44.6331C26.8269 44.6324 26.8269 44.631 26.8262 44.6304Z" fill="#8C9295"/>
<path d="M28.2695 44.2246C28.2899 44.226 28.3103 44.228 28.3307 44.2328C28.3103 44.2294 28.2899 44.2266 28.2695 44.2246Z" fill="#8C9295"/>
<path d="M39.7033 43.7597C39.7026 43.7631 39.702 43.7672 39.702 43.7705C39.5292 43.8017 39.3517 43.8551 39.1776 43.8057C38.486 43.6528 37.8454 43.2787 37.1259 43.2563C36.4091 43.2895 35.7699 43.6603 35.0782 43.8091C34.8776 43.8592 34.677 43.7895 34.4852 43.7381C33.897 43.5682 33.3318 43.2793 32.7096 43.2563C31.9717 43.2848 31.3012 43.6271 30.5946 43.7996C30.4225 43.8531 30.2505 43.78 30.0866 43.736C29.5623 43.573 29.0441 43.3795 28.5034 43.278C29.1726 43.372 29.7955 43.6995 30.4613 43.8152C31.2216 43.6772 31.9241 43.276 32.7082 43.2516C33.4189 43.2766 34.0507 43.6454 34.7334 43.7983C34.9531 43.8578 35.1762 43.7861 35.387 43.7252C35.9623 43.5513 36.5186 43.278 37.1279 43.2502C37.84 43.276 38.4751 43.64 39.1579 43.7969C39.3422 43.8423 39.5245 43.8111 39.7033 43.7597Z" fill="#8C9295"/>
<path d="M26.9761 46.2996C27.3773 46.1561 27.7874 46.0086 28.2185 45.9978C29.0013 46.0269 29.7031 46.4281 30.4641 46.5641C31.223 46.418 31.9283 46.0269 32.7117 45.9985C33.474 46.0282 34.1446 46.4531 34.8886 46.5702C35.6604 46.4951 36.3425 46.0228 37.1266 45.9978C37.9148 46.014 38.601 46.4863 39.3749 46.5715C40.1196 46.4599 40.7881 46.0323 41.5504 45.9985C42.3373 46.014 43.0234 46.4802 43.7946 46.5709C44.2414 46.5228 44.6468 46.3117 45.0793 46.2035C44.8467 46.6466 44.5706 47.0655 44.2782 47.4714C43.5852 47.671 42.9092 47.3516 42.2645 47.1385C41.9673 47.0485 41.6545 46.9085 41.341 47.0005C40.6772 47.1541 40.0611 47.5066 39.3702 47.5364C38.584 47.5248 37.8992 47.0553 37.1294 46.9667C36.3595 47.0655 35.6727 47.5323 34.8838 47.5364C34.1228 47.5005 33.4584 47.056 32.7097 46.9673C31.914 47.0377 31.2026 47.5018 30.4015 47.535C29.6997 47.445 29.0611 47.1054 28.3675 46.9822C28.0669 46.9295 27.7765 47.058 27.4984 47.1487C27.31 46.874 27.1338 46.5918 26.9761 46.2996Z" fill="#8C9295"/>
<path d="M27.1611 48.6678C27.0571 48.5006 27.002 48.2922 26.8571 48.1596C26.4831 48.0406 26.0962 47.9668 25.718 47.8633C25.9765 47.7205 26.2376 47.5832 26.4974 47.4431C26.4314 47.3146 26.3634 47.1874 26.2995 47.0588C25.6881 47.3795 25.0822 47.7097 24.4722 48.0331C24.5395 48.161 24.6095 48.2895 24.6789 48.4181C24.8618 48.3159 25.0468 48.2165 25.2345 48.1218C25.3794 48.1637 25.5242 48.2043 25.6698 48.2462C25.4793 48.5609 25.2862 48.8734 25.0937 49.1867C25.1828 49.3504 25.2706 49.5155 25.363 49.6786C25.5983 49.2503 25.8296 48.8207 26.0696 48.3958C26.4382 48.4222 26.7946 48.5933 27.1611 48.6678Z" fill="#8C9295"/>
<path d="M46.3814 48.6169C46.6758 48.5675 46.9757 48.5668 47.2722 48.5323C47.3559 48.3855 47.4389 48.2387 47.5191 48.0905C47.1451 48.1223 46.7479 48.0689 46.399 48.2353C46.4195 48.1054 46.4711 47.9721 46.4208 47.8436C46.3147 47.4539 45.7312 47.2759 45.4612 47.6047C45.1967 47.939 45.0219 48.3334 44.8057 48.6988C45.4055 49.0357 46.0053 49.3726 46.6058 49.7082C46.6752 49.5817 46.7472 49.4572 46.8193 49.332C46.5697 49.1879 46.3168 49.0499 46.0672 48.9072C46.1529 48.7942 46.2209 48.6331 46.3814 48.6169ZM46.0726 48.1717C45.9964 48.3733 45.8734 48.5526 45.7707 48.7414C45.6265 48.6616 45.483 48.581 45.3395 48.5005C45.4483 48.3138 45.5408 48.1162 45.6721 47.9437C45.8183 47.7691 46.142 47.9647 46.0726 48.1717Z" fill="#8C9295"/>
<path d="M28.068 50.4674C28.3734 49.7549 27.5668 48.8673 26.8228 49.1636C26.4753 49.301 26.1564 49.5682 26.0265 49.9248C25.849 50.4444 26.2196 51.031 26.7249 51.194C27.2758 51.3476 27.8463 50.9566 28.068 50.4674ZM27.6784 50.2786C27.5355 50.5269 27.2894 50.7428 27.0024 50.7996C26.6311 50.8679 26.2883 50.4532 26.427 50.1047C26.5461 49.8375 26.7943 49.6291 27.0731 49.5425C27.4675 49.4376 27.8715 49.9126 27.6784 50.2786Z" fill="#8C9295"/>
<path d="M43.9048 49.8023C44.2632 50.447 44.5978 51.1054 44.9711 51.7413C45.0677 51.6223 45.1663 51.5039 45.2601 51.3828C45.1779 51.2461 45.0895 51.1121 45.0235 50.9673C45.1826 50.7549 45.3676 50.5614 45.5376 50.3571C45.6913 50.4112 45.8457 50.466 45.9994 50.5242C46.1055 50.4058 46.2075 50.2847 46.3081 50.1622C45.6056 49.9234 44.8997 49.6947 44.1965 49.4592C44.0993 49.5736 44.0014 49.6872 43.9048 49.8023ZM45.1609 50.2244C45.0507 50.3564 44.9412 50.4883 44.8331 50.6216C44.6875 50.4091 44.5719 50.1784 44.4352 49.9613C44.6746 50.0553 44.9174 50.1412 45.1609 50.2244Z" fill="#8C9295"/>
<path d="M29.6139 51.69C29.6968 51.5966 29.7777 51.5005 29.8526 51.4004C29.4228 51.0594 29.0106 50.6981 28.5842 50.353C28.5088 50.4505 28.4305 50.5459 28.3544 50.6426C28.5108 50.7657 28.6631 50.895 28.8155 51.0249C28.4598 51.466 28.0722 51.8814 27.7314 52.3341C27.8423 52.4207 27.9525 52.5093 28.0647 52.5959C28.4265 52.1642 28.7917 51.736 29.1514 51.303C29.3044 51.4322 29.4602 51.5601 29.6139 51.69Z" fill="#8C9295"/>
<path d="M43.8648 51.3531C43.5146 51.3118 43.2249 51.5574 42.9025 51.6481C42.7985 51.7049 42.6645 51.6041 42.6849 51.4925C42.7576 51.232 43.1045 51.0175 43.3371 51.2367C43.4445 51.142 43.552 51.0459 43.6567 50.9485C43.4561 50.7259 43.1154 50.6582 42.8535 50.8125C42.5802 50.9667 42.2789 51.2171 42.2945 51.5608C42.2809 51.8483 42.5509 52.1048 42.8393 52.0885C43.184 52.0804 43.4656 51.845 43.7934 51.7644C43.8417 51.8084 43.8886 51.8544 43.9342 51.9031C44.009 52.1372 43.7879 52.3402 43.586 52.4106C43.4336 52.4647 43.299 52.3598 43.1745 52.2915C43.0739 52.3876 42.9746 52.485 42.8767 52.5845C43.0025 52.688 43.1378 52.7996 43.3065 52.8226C43.7029 52.8909 44.0613 52.6081 44.2762 52.3044C44.5204 51.9566 44.2878 51.4126 43.8648 51.3531Z" fill="#8C9295"/>
<path d="M28.6157 53.0757C28.7504 53.1535 28.885 53.2306 29.0197 53.3091C29.1434 53.2063 29.2679 53.1048 29.3896 52.9999C29.6249 53.1332 29.8582 53.2712 30.0874 53.4167C30.0554 53.5798 30.0262 53.7442 30.0071 53.9099C30.1404 53.9776 30.2628 54.0716 30.407 54.119C30.5267 53.3984 30.6348 52.6758 30.76 51.956C30.6314 51.8761 30.5022 51.799 30.3737 51.7212C29.7841 52.1677 29.1999 52.621 28.6157 53.0757ZM30.154 53.025C30.0024 52.9377 29.8528 52.847 29.7079 52.7489C29.9017 52.598 30.0833 52.4316 30.2907 52.2983C30.2458 52.5405 30.1996 52.7827 30.154 53.025Z" fill="#8C9295"/>
<path d="M42.0323 52.5709C41.7099 52.5459 41.3998 52.7888 41.0883 52.6887C41.0754 52.6616 41.0489 52.6068 41.036 52.5797C41.1033 52.2908 41.5372 52.1298 41.7419 52.3883C41.8609 52.3132 41.9813 52.2387 42.1016 52.1643C41.9745 51.9843 41.7793 51.8429 41.5508 51.8504C41.2461 51.8788 40.9496 52.031 40.7565 52.2672C40.5457 52.527 40.6354 52.9661 40.9503 53.1014C41.3053 53.2502 41.6644 53.031 42.0193 52.9992C42.1261 52.9992 42.1948 53.1 42.2179 53.1947C42.1866 53.418 41.967 53.5655 41.7555 53.5953C41.6045 53.6007 41.4937 53.4884 41.3876 53.4011C41.2726 53.4755 41.1584 53.5527 41.0441 53.6284C41.206 53.8896 41.5263 54.0581 41.8344 53.9721C42.1275 53.893 42.4226 53.7232 42.5729 53.4519C42.7797 53.0818 42.4709 52.5358 42.0323 52.5709Z" fill="#8C9295"/>
<path d="M32.8961 54.2684C32.89 53.8016 32.9043 53.3348 32.888 52.8686C32.6839 52.8226 32.482 52.7678 32.28 52.717C32.1134 53.3814 31.9175 54.0391 31.7529 54.7042C31.8821 54.7366 32.012 54.7711 32.1419 54.8043C32.2745 54.3253 32.384 53.8395 32.5411 53.3679C32.5384 53.8808 32.5092 54.3923 32.5221 54.9058C32.6506 54.941 32.7798 54.9768 32.9084 55.014C33.1647 54.5837 33.3905 54.1358 33.6537 53.7103C33.5524 54.1825 33.4062 54.6446 33.2851 55.1128C33.4164 55.1473 33.5483 55.1812 33.6809 55.2116C33.855 54.5513 34.0339 53.8923 34.2141 53.234C34.0087 53.1744 33.8019 53.1183 33.5945 53.0668C33.3613 53.4667 33.1416 53.8753 32.8961 54.2684Z" fill="#8C9295"/>
<path d="M39.1202 52.872C39.093 53.6054 39.0522 54.3389 39.0142 55.0723C39.1604 55.0263 39.3079 54.9796 39.4548 54.9343C39.4569 54.7685 39.4576 54.6027 39.4596 54.4376C39.7201 54.37 39.9703 54.2347 40.2369 54.2076C40.3471 54.3152 40.4375 54.441 40.5334 54.5621C40.6871 54.5168 40.8394 54.4667 40.9918 54.4167C40.5089 53.8537 40.0356 53.2814 39.5432 52.7266C39.4025 52.7766 39.2617 52.8247 39.1202 52.872ZM39.4691 54.05C39.4793 53.8017 39.4916 53.5533 39.4997 53.3057C39.667 53.4911 39.8207 53.6893 39.9737 53.8876C39.8051 53.941 39.6371 53.9958 39.4691 54.05Z" fill="#8C9295"/>
<path d="M38.3861 53.1143C38.1937 53.1386 38.0026 53.1643 37.8115 53.188C37.5734 53.5013 37.3769 53.847 37.113 54.1406C37.0709 53.8605 37.0375 53.5804 37.0029 53.3003C36.8601 53.3138 36.7186 53.3301 36.5771 53.345C36.6506 54.027 36.756 54.7056 36.8376 55.3876C36.9797 55.3693 37.1212 55.351 37.264 55.3341C37.245 55.1332 37.2069 54.9349 37.196 54.734C37.262 54.5926 37.3735 54.4782 37.4646 54.3538C37.6897 54.642 37.9169 54.9295 38.1406 55.2191C38.3242 55.1934 38.5092 55.1711 38.6928 55.1433C38.3759 54.7604 38.042 54.3916 37.7271 54.0067C37.9461 53.709 38.1753 53.418 38.3861 53.1143Z" fill="#8C9295"/>
<path d="M35.1422 53.2996C34.8273 53.9667 34.5206 54.6385 34.2173 55.311C34.3696 55.3151 34.522 55.3219 34.675 55.3347C34.7416 55.1825 34.8076 55.0296 34.8742 54.8773C35.1394 54.899 35.4054 54.9105 35.6713 54.9274C35.7223 55.083 35.7726 55.238 35.8195 55.3956C35.9773 55.4071 36.1344 55.4173 36.2928 55.4227C36.0616 54.7285 35.8311 54.035 35.5964 53.3429C35.4502 53.3016 35.2925 53.3158 35.1422 53.2996ZM35.032 54.5336C35.1204 54.2982 35.2204 54.0668 35.3346 53.8422C35.4081 54.0803 35.4808 54.3192 35.5529 54.558C35.3788 54.5485 35.2054 54.5377 35.032 54.5336Z" fill="#8C9295"/>
<path d="M35.7675 5.06939C35.7696 3.37929 35.7675 1.68986 35.7682 -0.000244141C33.8362 0.856309 31.9068 1.72098 29.9727 2.5728C29.9721 3.9192 29.9646 5.26492 29.9761 6.61132C31.9048 6.09171 33.8375 5.58495 35.7675 5.06939Z" fill="#8C9295"/>
<path d="M42.025 6.60724C42.025 5.26287 42.025 3.9185 42.025 2.57481C40.0998 1.71487 38.1711 0.863731 36.2459 0.00244141C36.2425 1.69254 36.2452 3.38265 36.2445 5.07275C38.1718 5.58289 40.0978 6.0971 42.025 6.60724Z" fill="#8C9295"/>
<path d="M24.7665 7.99483C24.7713 6.90823 24.7679 5.82097 24.7679 4.73438C23.8328 5.12273 22.9004 5.51853 21.9646 5.90486C21.9612 6.85005 21.964 7.79456 21.9633 8.73907C22.897 8.48738 23.8314 8.2411 24.7665 7.99483Z" fill="#8C9295"/>
<path d="M28.1709 5.86309C27.1978 5.47947 26.2219 5.10193 25.2446 4.72778C25.2446 5.7731 25.2453 6.8191 25.2446 7.86442C26.2192 7.60935 27.1923 7.34616 28.1668 7.09041C28.1716 6.68108 28.1655 6.27242 28.1709 5.86309Z" fill="#8C9295"/>
<path d="M46.7684 7.86431C46.7678 6.81831 46.7684 5.77231 46.7684 4.72632C45.7912 5.09032 44.8255 5.48409 43.8489 5.84877C43.8387 6.26351 43.8455 6.67826 43.8449 7.093C44.8207 7.34605 45.7919 7.61465 46.7684 7.86431Z" fill="#8C9295"/>
<path d="M47.2456 7.99781C48.1807 8.2407 49.1144 8.49374 50.0495 8.73934C50.0481 7.79551 50.0529 6.85235 50.0468 5.90852C49.1096 5.52693 48.1834 5.11624 47.2422 4.74683C47.2476 5.83003 47.2408 6.91392 47.2456 7.99781Z" fill="#8C9295"/>
<path d="M36.2443 8.19784C37.1611 8.37985 38.0778 8.55982 38.9938 8.74655C39.0081 7.9333 38.9897 7.12073 39.0033 6.30747C38.09 6.04158 37.1638 5.82033 36.2484 5.56323C36.2389 6.44144 36.2471 7.31964 36.2443 8.19784Z" fill="#8C9295"/>
<path d="M35.7682 5.56665C34.8427 5.80751 33.9191 6.05311 32.9956 6.3021C32.9976 7.11738 32.9976 7.93198 32.9963 8.74659C33.9212 8.56797 34.844 8.3792 35.7682 8.19788C35.7682 7.32103 35.7682 6.4435 35.7682 5.56665Z" fill="#8C9295"/>
<path d="M53.314 9.60915C53.3106 8.82973 53.3208 8.04963 53.3085 7.2702C52.3775 6.89335 51.454 6.4989 50.5278 6.10986C50.523 7.02934 50.5271 7.94882 50.5257 8.86829C51.4561 9.11254 52.385 9.35949 53.314 9.60915Z" fill="#8C9295"/>
<path d="M18.6988 9.60376C19.6291 9.35951 20.5574 9.11053 21.487 8.86357C21.487 7.94478 21.487 7.02598 21.487 6.10718C20.5594 6.49486 19.6345 6.88728 18.7049 7.26887C18.6906 8.04694 18.7029 8.82501 18.6988 9.60376Z" fill="#8C9295"/>
<path d="M32.5217 8.84411C32.5203 8.03898 32.5217 7.23384 32.521 6.42871C30.8923 6.85969 29.2635 7.28662 27.6382 7.7291C27.6429 8.42328 27.6436 9.11813 27.6382 9.8123C29.2669 9.49566 30.893 9.16481 32.5217 8.84411Z" fill="#8C9295"/>
<path d="M44.3544 9.81439C44.3551 9.11615 44.3544 8.4186 44.3544 7.72036C42.7264 7.29276 41.1031 6.84892 39.4736 6.42944C39.4764 7.23255 39.475 8.03565 39.4743 8.83943C41.0997 9.16893 42.727 9.49098 44.3544 9.81439Z" fill="#8C9295"/>
<path d="M18.2215 9.73248C18.2243 8.98012 18.2229 8.22843 18.2222 7.47607C17.1776 7.90909 16.1372 8.35022 15.0933 8.78458C15.0967 9.37659 15.0926 9.96928 15.0953 10.562C16.1385 10.288 17.179 10.0072 18.2215 9.73248Z" fill="#8C9295"/>
<path d="M56.9185 10.5661C56.9192 9.97407 56.9171 9.38206 56.9192 8.79073C55.878 8.34892 54.8321 7.91726 53.7902 7.47681C53.7902 8.22984 53.7895 8.98288 53.7909 9.73659C54.8341 10.0079 55.876 10.29 56.9185 10.5661Z" fill="#8C9295"/>
<path d="M23.7519 10.5951C24.8896 10.3657 26.026 10.135 27.1644 9.91176C27.1685 9.22503 27.1631 8.53829 27.1678 7.85156C26.026 8.14723 24.8889 8.45778 23.7485 8.75683C23.7505 9.36981 23.7444 9.98212 23.7519 10.5951Z" fill="#8C9295"/>
<path d="M44.8291 7.84937C44.8325 8.53677 44.8291 9.22418 44.8311 9.91159C45.9757 10.1355 47.1189 10.3629 48.262 10.5943C48.2688 9.98263 48.262 9.371 48.2654 8.75937C47.1195 8.45761 45.9757 8.14774 44.8291 7.84937Z" fill="#8C9295"/>
<path d="M35.7686 8.68091C33.842 9.06318 31.9175 9.45424 29.9902 9.83313C29.9854 10.5848 29.9895 11.3365 29.9881 12.0875C31.9154 11.8345 33.8427 11.5814 35.7686 11.3182C35.768 10.4393 35.7686 9.56047 35.7686 8.68091Z" fill="#8C9295"/>
<path d="M36.2446 11.3224C38.1631 11.5822 40.0836 11.8285 42.002 12.091C42.0163 11.3379 42.0041 10.5856 42.0081 9.83254C40.0876 9.44757 38.1658 9.06733 36.2446 8.68506C36.2446 9.56394 36.2446 10.4428 36.2446 11.3224Z" fill="#8C9295"/>
<path d="M20.542 9.60722C20.4631 9.63699 20.3658 9.63699 20.3012 9.69383C20.291 10.2216 20.2985 10.7506 20.2992 11.2791C21.2907 11.0822 22.2816 10.8846 23.2738 10.687C23.2717 10.0869 23.2724 9.48679 23.2731 8.88599C22.3611 9.12211 21.4532 9.37177 20.542 9.60722Z" fill="#8C9295"/>
<path d="M51.6982 11.2791C51.6989 10.7433 51.6996 10.2074 51.6982 9.67088C50.7114 9.41107 49.726 9.14788 48.7399 8.88672C48.7406 9.48685 48.7413 10.087 48.7393 10.6871C49.7253 10.8853 50.7128 11.0768 51.6982 11.2791Z" fill="#8C9295"/>
<path d="M16.9831 10.5558C16.9804 11.0165 16.9817 11.4779 16.9824 11.9387C17.9297 11.7459 18.8804 11.5706 19.825 11.3663C19.8176 10.848 19.821 10.3298 19.823 9.81152C18.8716 10.0402 17.9297 10.3088 16.9831 10.5558Z" fill="#8C9295"/>
<path d="M55.0285 10.5551C54.0758 10.3068 53.1264 10.049 52.1743 9.80005C52.1757 10.3244 52.175 10.8488 52.175 11.3731C53.1271 11.5646 54.0792 11.754 55.0319 11.9414C55.0285 11.4793 55.0353 11.0172 55.0285 10.5551Z" fill="#8C9295"/>
<path d="M29.5117 9.9292C28.089 10.214 26.6657 10.4935 25.2437 10.7803C25.245 11.4265 25.2437 12.0719 25.2443 12.7181C26.665 12.5347 28.0843 12.3392 29.5049 12.1565C29.5205 11.4143 29.5069 10.6714 29.5117 9.9292Z" fill="#8C9295"/>
<path d="M46.769 10.7844C45.3409 10.4975 43.9128 10.2114 42.4847 9.92651C42.4819 10.6667 42.4867 11.4076 42.4819 12.1477C43.9101 12.348 45.3409 12.5293 46.7697 12.7201C46.7663 12.0753 46.7684 11.4299 46.769 10.7844Z" fill="#8C9295"/>
<path d="M16.5057 12.0327C16.5057 11.5842 16.505 11.1356 16.5064 10.687C16.0337 10.8 15.5679 10.9367 15.0966 11.0544C15.0932 11.4746 15.0939 11.8947 15.0959 12.3149C15.5659 12.2195 16.0365 12.1288 16.5057 12.0327Z" fill="#8C9295"/>
<path d="M55.5065 10.6877C55.5072 11.137 55.5079 11.5862 55.5059 12.0362C55.9758 12.1322 56.4471 12.2229 56.9177 12.319C56.9177 11.8975 56.9217 11.4766 56.9149 11.0558C56.4443 10.9374 55.9771 10.8041 55.5065 10.6877Z" fill="#8C9295"/>
<path d="M24.7679 10.8738C23.8329 11.0592 22.8978 11.2445 21.9634 11.4347C21.9634 12.0077 21.9634 12.5808 21.9634 13.1539C22.8985 13.0375 23.8315 12.9028 24.7666 12.7858C24.7713 12.1485 24.7679 11.5111 24.7679 10.8738Z" fill="#8C9295"/>
<path d="M50.0496 11.4346C49.1145 11.2493 48.1794 11.0632 47.245 10.8765C47.243 11.5131 47.245 12.1491 47.2437 12.7858C48.1794 12.9049 49.1131 13.0388 50.0489 13.1545C50.0496 12.5815 50.0496 12.0077 50.0496 11.4346Z" fill="#8C9295"/>
<path d="M21.4873 11.53C20.559 11.712 19.6328 11.9028 18.7038 12.0808C18.693 12.5841 18.7018 13.0875 18.6991 13.5909C19.6267 13.4671 20.5536 13.3392 21.4819 13.2242C21.4941 12.6599 21.4846 12.095 21.4873 11.53Z" fill="#8C9295"/>
<path d="M53.3111 12.0964C52.3889 11.8853 51.4539 11.7209 50.5256 11.5315C50.5249 12.0937 50.5263 12.656 50.5249 13.2189C51.4539 13.3474 52.3842 13.4645 53.3138 13.5917C53.3111 13.093 53.3186 12.5951 53.3111 12.0964Z" fill="#8C9295"/>
<path d="M35.7682 11.8027C34.844 11.9245 33.9205 12.0456 32.997 12.1708C32.9963 12.9881 32.999 13.8054 32.9956 14.6221C33.9191 14.5828 34.8406 14.4989 35.7635 14.4509C35.7737 13.5679 35.7655 12.6857 35.7682 11.8027Z" fill="#8C9295"/>
<path d="M39.0023 14.618C38.9928 13.8007 39.0043 12.9834 38.9962 12.166C38.0788 12.0503 37.1627 11.9204 36.2453 11.8054C36.2467 12.687 36.2385 13.5693 36.2494 14.4509C37.1675 14.4969 38.0835 14.5896 39.0023 14.618Z" fill="#8C9295"/>
<path d="M18.223 12.1797C17.1805 12.386 16.1379 12.5965 15.0947 12.8001C15.0947 13.2223 15.0947 13.6445 15.0947 14.0667C16.1373 13.9334 17.1778 13.79 18.2203 13.6546C18.2264 13.1628 18.2216 12.6709 18.223 12.1797Z" fill="#8C9295"/>
<path d="M56.9174 12.8034C55.8735 12.6011 54.8323 12.3867 53.7898 12.179C53.7918 12.6715 53.785 13.1641 53.7932 13.6566C54.835 13.7906 55.8755 13.936 56.9181 14.0666C56.9181 13.6458 56.9188 13.225 56.9174 12.8034Z" fill="#8C9295"/>
<path d="M32.5209 14.6666C32.5216 13.8554 32.5209 13.0442 32.5209 12.2336C30.8956 12.4481 29.2702 12.668 27.6442 12.8784C27.6367 13.5807 27.6449 14.2837 27.6401 14.986C29.2668 14.8838 30.8929 14.7634 32.5209 14.6666Z" fill="#8C9295"/>
<path d="M39.4755 12.2317C39.4714 13.0416 39.4802 13.8514 39.4707 14.6613C41.0988 14.7696 42.7268 14.8805 44.3549 14.9834C44.3549 14.2851 44.3508 13.5862 44.3576 12.888C42.7323 12.6539 41.1022 12.4556 39.4755 12.2317Z" fill="#8C9295"/>
<path d="M27.1705 15.0165C27.161 14.3257 27.1678 13.6349 27.1664 12.9448C26.0273 13.0977 24.8875 13.2466 23.7484 13.3995C23.7477 14.0145 23.7498 14.6302 23.7471 15.2459C24.8882 15.1681 26.0294 15.0964 27.1705 15.0165Z" fill="#8C9295"/>
<path d="M48.2565 15.252C48.2755 14.6357 48.2585 14.0193 48.2653 13.4029C47.1222 13.2433 45.9763 13.1005 44.8317 12.9429C44.8263 13.635 44.8351 14.3272 44.8276 15.0193C45.9708 15.0944 47.114 15.1627 48.2565 15.252Z" fill="#8C9295"/>
<path d="M23.2704 15.2771C23.2745 14.6729 23.2717 14.0681 23.2724 13.4639C22.2809 13.589 21.2914 13.7304 20.2999 13.8556C20.2944 14.3942 20.2965 14.9327 20.2985 15.4713C21.2894 15.4124 22.2795 15.3407 23.2704 15.2771Z" fill="#8C9295"/>
<path d="M51.6987 15.4699C51.6987 14.9327 51.6987 14.3955 51.6987 13.8583C50.7126 13.725 49.7265 13.5938 48.7404 13.4639C48.7404 14.0681 48.7397 14.6722 48.7411 15.2764C49.7265 15.3434 50.7119 15.4131 51.6987 15.4699Z" fill="#8C9295"/>
<path d="M19.8176 13.9189C18.873 14.0488 17.9277 14.1713 16.9824 14.2965C16.9797 14.7613 16.9844 15.2254 16.979 15.6896C17.9277 15.6375 18.8757 15.5712 19.8237 15.5015C19.8162 14.9737 19.8264 14.4467 19.8176 13.9189Z" fill="#8C9295"/>
<path d="M52.1852 13.9158C52.1621 14.4455 52.1811 14.976 52.1743 15.5057C53.1271 15.5673 54.0785 15.6363 55.0313 15.6918C55.0326 15.2304 55.0272 14.7689 55.0353 14.3068C54.0873 14.16 53.1332 14.0592 52.1852 13.9158Z" fill="#8C9295"/>
<path d="M16.5045 14.3608C16.0346 14.4251 15.5646 14.4867 15.0947 14.5483C15.0947 14.9731 15.0947 15.3974 15.0947 15.8223C15.564 15.7898 16.0332 15.7532 16.5031 15.7316C16.5079 15.2749 16.5059 14.8175 16.5045 14.3608Z" fill="#8C9295"/>
<path d="M55.5092 15.7309C55.9791 15.7539 56.4484 15.7898 56.9183 15.8222C56.9183 15.3987 56.9183 14.9752 56.9183 14.5516C56.4477 14.486 55.9771 14.4251 55.5072 14.3635C55.5085 14.8195 55.5045 15.2749 55.5092 15.7309Z" fill="#8C9295"/>
<path d="M35.7682 14.9219C33.8416 15.0497 31.915 15.1824 29.9884 15.3028C29.9863 16.0558 29.9897 16.8082 29.9863 17.5612C31.9123 17.568 33.8382 17.5585 35.7641 17.566C35.773 16.6844 35.7655 15.8035 35.7682 14.9219Z" fill="#8C9295"/>
<path d="M36.2484 17.566C38.1675 17.5599 40.0874 17.5646 42.0072 17.5639C42.0085 16.8102 42.0072 16.0572 42.0078 15.3041C40.0867 15.1817 38.1655 15.0511 36.2443 14.9219C36.2471 15.8035 36.2389 16.6844 36.2484 17.566Z" fill="#8C9295"/>
<path d="M25.2492 17.5665C26.6699 17.5591 28.0912 17.5652 29.5118 17.5631C29.5118 16.8223 29.5118 16.0814 29.5118 15.3406C28.0919 15.4285 26.6733 15.5334 25.2526 15.6173C25.2363 16.2668 25.2438 16.917 25.2492 17.5665Z" fill="#8C9295"/>
<path d="M42.4829 15.342C42.4856 16.0822 42.4836 16.8231 42.4843 17.5633C43.9104 17.566 45.3364 17.5578 46.7625 17.5673C46.7768 16.9198 46.7632 16.2717 46.77 15.6242C45.3412 15.5274 43.9124 15.428 42.4829 15.342Z" fill="#8C9295"/>
<path d="M21.9633 15.8414C21.9626 16.4145 21.9653 16.9876 21.9619 17.5606C22.8977 17.566 23.8334 17.564 24.7692 17.5613C24.7665 16.9246 24.7706 16.2873 24.7672 15.6506C23.8334 15.721 22.8977 15.7731 21.9633 15.8414Z" fill="#8C9295"/>
<path d="M50.0498 15.8414C49.1154 15.7765 48.1796 15.7203 47.2459 15.6506C47.2425 16.2873 47.2466 16.924 47.2432 17.5606C48.1762 17.5701 49.1099 17.5559 50.0437 17.5681C50.0579 16.9923 50.0457 16.4172 50.0498 15.8414Z" fill="#8C9295"/>
<path d="M21.4872 15.8696C20.5596 15.9339 19.6313 15.9934 18.703 16.055C18.6969 16.5591 18.6949 17.0631 18.7037 17.5665C19.6293 17.5618 20.5548 17.5597 21.4804 17.5679C21.4954 17.0016 21.4831 16.4353 21.4872 15.8696Z" fill="#8C9295"/>
<path d="M50.5257 15.8704C50.5291 16.436 50.5189 17.0016 50.5311 17.5672C51.4567 17.5605 52.3829 17.5611 53.3092 17.5666C53.3187 17.0639 53.3126 16.5612 53.3126 16.0585C52.3836 15.9928 51.454 15.9367 50.5257 15.8704Z" fill="#8C9295"/>
<path d="M18.2227 16.0881C17.1802 16.1599 16.1363 16.2241 15.0938 16.2986C15.0972 16.7207 15.0897 17.1436 15.0985 17.5665C16.1383 17.5617 17.1775 17.5597 18.2173 17.5671C18.2295 17.0739 18.2193 16.5814 18.2227 16.0881Z" fill="#8C9295"/>
<path d="M56.9185 16.2979C55.876 16.2248 54.8328 16.1592 53.7903 16.0881C53.793 16.5814 53.7841 17.0739 53.7957 17.5671C54.8348 17.5604 55.8746 17.5624 56.9144 17.5658C56.9226 17.1429 56.9165 16.7207 56.9185 16.2979Z" fill="#8C9295"/>
<path d="M33.0557 26.5266C33.5583 26.6098 33.7712 27.1234 34.1744 27.3669C34.3723 27.5002 34.5947 27.5909 34.8191 27.6707C34.7511 27.8588 34.6845 28.0476 34.6151 28.2357C34.2581 28.0618 33.9521 27.8006 33.6916 27.5056C33.5243 27.3114 33.3053 27.1585 33.0503 27.1078C33.068 26.9143 33.0666 26.7201 33.0557 26.5266Z" fill="white"/>
<path d="M34.1885 30.6435C35.6288 29.6571 37.0876 28.6862 38.4069 27.54C38.3967 28.9324 38.4103 30.3249 38.4001 31.7173C36.9964 31.3573 35.5901 31.0089 34.1885 30.6435Z" fill="white"/>
<path d="M37.9235 35.0859C38.0228 34.6029 38.1534 34.1184 38.3996 33.6868C38.4057 36.0007 38.4064 38.3153 38.3996 40.6292C38.218 40.2388 38.1384 39.8119 38.0405 39.3958C37.7617 37.981 37.6644 36.5108 37.9235 35.0859Z" fill="white"/>
<path d="M28.2495 42.5021C32.2122 43.0135 36.2402 42.8343 40.1866 42.2666C39.8819 42.7098 39.7473 43.2416 39.7017 43.7706C39.529 43.8018 39.3515 43.8552 39.1774 43.8058C38.4858 43.6529 37.8452 43.2788 37.1257 43.2564C36.4089 43.2896 35.7696 43.6604 35.078 43.8092C34.8774 43.8593 34.6768 43.7896 34.485 43.7382C33.8967 43.5683 33.3316 43.2794 32.7093 43.2564C31.9715 43.2849 31.3009 43.6272 30.5944 43.7997C30.4223 43.8532 30.2502 43.7801 30.0864 43.7361C29.4927 43.5514 28.9071 43.3275 28.2876 43.2429C28.2522 42.9973 28.2536 42.749 28.2495 42.5021Z" fill="white"/>
<path d="M39.9086 21.2539C40.3486 21.5063 40.7131 21.8885 40.9226 22.3513C41.079 22.6348 41.1348 22.9738 41.3537 23.2221C41.3762 22.7377 41.3809 22.2417 41.2191 21.7789C41.5693 22.0726 41.7985 22.4948 41.8767 22.9427C41.9216 23.2309 42.0025 23.5198 42.1895 23.7518C42.1263 23.3696 42.2181 22.9805 42.1474 22.5996C42.1236 22.4569 42.0916 22.3148 42.0678 22.1727C42.4078 22.4034 42.5554 22.8148 42.6023 23.2058C42.654 23.6402 42.7159 24.1125 43.0396 24.4393C42.8927 23.8039 42.9845 23.149 42.9036 22.5069C43.4116 22.9731 43.5612 23.6754 43.687 24.3222C43.7346 24.5739 43.7938 24.8256 43.906 25.0583C44.0094 24.3716 44.1556 23.6544 43.9305 22.9758C44.4324 23.4237 44.4827 24.1395 44.5704 24.762C44.6207 25.1483 44.6847 25.5583 44.9417 25.8696C44.8173 25.0671 45.041 24.2728 45.0295 23.4717C45.4321 23.873 45.6279 24.419 45.8102 24.9433C46.0489 25.6158 46.2128 26.3222 46.5664 26.9487C46.5276 26.0326 46.8003 25.1233 46.6514 24.2085C47.1261 24.716 47.5253 25.3486 47.5647 26.0583C47.5953 26.5245 47.4267 26.9676 47.3138 27.4122C47.2587 27.5915 47.2975 27.7762 47.3471 27.9514C47.4913 27.2897 47.9088 26.7227 48.0183 26.0522C48.0659 25.8005 48.0387 25.5448 48.0238 25.2918C48.4427 25.9582 48.5875 26.7687 48.525 27.5454C48.4944 28.0583 48.3998 28.5739 48.4801 29.0867C48.627 28.5806 48.8902 28.1172 49.035 27.6104C49.1561 27.2302 49.2118 26.8344 49.2506 26.4392C49.5859 27.0231 49.7885 27.6828 49.828 28.3553C49.8769 28.9446 49.777 29.5312 49.7504 30.1192C49.7375 30.3424 49.7729 30.5657 49.845 30.7782C49.932 30.0569 50.4495 29.4825 50.5652 28.7694C50.6338 28.4473 50.6032 28.1192 50.5978 27.7938C51.2228 28.7809 51.3499 29.9872 51.303 31.1293C51.284 31.5346 51.2513 31.9419 51.2935 32.3478C51.405 31.8499 51.7192 31.4344 51.9158 30.971C52.0994 30.5772 52.2163 30.1537 52.2422 29.72C52.5904 30.2538 52.7033 30.9074 52.6393 31.5339C52.57 32.3986 52.2129 33.2632 52.4435 34.1327C52.7162 33.5359 53.1603 33.0319 53.3969 32.4168C53.5166 32.1306 53.5771 31.8255 53.6247 31.521C53.9879 32.2267 54.0015 33.067 53.8526 33.8329C53.7363 34.4906 53.4513 35.1225 53.4711 35.7998C53.9022 35.0643 54.6333 34.4655 54.7407 33.5738C54.9876 34.1827 54.9951 34.8796 54.7768 35.498C54.5367 36.1983 54.1137 36.8518 54.0817 37.6103C54.4619 37.1313 55.0345 36.8694 55.4799 36.4621C55.6874 36.2923 55.839 36.0697 55.9907 35.8519C56.162 36.6807 55.7533 37.4736 55.3671 38.18C55.0658 38.7598 54.6557 39.3234 54.6115 39.9952C54.9631 39.5643 55.4908 39.3417 55.8995 38.975C56.1879 38.7456 56.3756 38.4276 56.5891 38.1346C56.6877 38.9865 56.4232 39.8633 55.9159 40.5521C55.582 41.0453 55.0964 41.4411 54.8856 42.0108C55.5051 41.4878 56.3994 41.5135 57.0305 41.0067C57.0257 41.3383 56.9734 41.6786 56.7965 41.9668C56.415 42.6123 55.7513 43.0033 55.2147 43.504C55.0393 43.661 54.8971 43.8511 54.791 44.0602C55.4011 43.7638 56.0947 43.6853 56.6891 43.3511C56.9115 43.2354 57.0883 43.0554 57.278 42.8951C57.2848 43.4627 57.0903 44.0229 56.7326 44.4654C56.2144 45.1481 55.467 45.6041 54.9039 46.2442C54.7394 46.4255 54.6312 46.6474 54.5605 46.8801C55.363 46.2496 56.4504 46.1954 57.2692 45.5913C57.2359 46.186 56.8292 46.6751 56.3831 47.0351C55.7268 47.5743 54.9543 47.9458 54.2796 48.46C54.0892 48.6048 53.9124 48.7705 53.775 48.9674C54.5068 48.6974 55.2882 48.6014 56.0294 48.3619C56.3457 48.2692 56.6517 48.146 56.9584 48.0256C56.7469 48.7279 56.1444 49.2218 55.5289 49.5757C54.7149 50.056 53.7948 50.3219 52.9794 50.7982C54.0267 50.6162 55.1406 50.7658 56.1335 50.3212C55.9975 50.8003 55.5289 51.056 55.1114 51.2597C54.0967 51.734 52.9916 51.9978 52.0137 52.5519C52.7454 52.5601 53.4663 52.784 54.2001 52.69C54.4782 52.6582 54.7441 52.5675 55.0148 52.4971C54.7978 52.9904 54.3361 53.3239 53.8424 53.5113C52.8719 53.8977 51.794 53.9383 50.8433 54.3821C51.2452 54.5506 51.6573 54.7035 52.0762 54.8293C52.5312 54.9653 53.0093 54.9423 53.4792 54.9497C53.3024 55.2353 52.9528 55.3083 52.6468 55.3726C51.7675 55.533 50.8691 55.5167 49.9837 55.6182C49.7702 55.6426 49.5512 55.6737 49.3662 55.7894C49.9959 55.6399 50.4883 56.1541 51.0636 56.2934C51.4492 56.4118 51.8545 56.3584 52.2422 56.284C52.0191 56.6892 51.5601 56.8719 51.1255 56.9511C50.183 57.1209 49.2214 56.989 48.2713 57.0756C49.1649 57.3009 50.015 57.765 50.9609 57.7231C50.7494 58.0871 50.2918 58.1581 49.9089 58.2014C49.0282 58.2745 48.1462 58.1777 47.2648 58.1784C46.9656 58.2021 46.6419 58.1804 46.3733 58.3327C47.3151 58.3259 48.0693 58.9842 48.9765 59.1229C48.6351 59.3557 48.2026 59.3611 47.8055 59.3888C46.9146 59.4064 46.0326 59.2542 45.1485 59.1777C44.142 59.2406 43.1641 59.5045 42.1821 59.7109C42.5874 59.4199 43.0927 59.3266 43.5197 59.0762C45.7666 57.7853 47.9068 56.2677 49.692 54.3834C51.1316 52.8652 52.319 51.0926 53.0562 49.1332C53.8682 47.0236 54.1246 44.7421 54.0811 42.4959C54.1198 40.1021 53.4785 37.7341 52.4292 35.592C51.3833 33.4358 49.9633 31.4764 48.3692 29.6895C46.8738 28.0197 45.2185 26.4927 43.4456 25.1179C43.0056 24.789 42.5758 24.442 42.1004 24.1639C43.6551 25.2701 45.0852 26.5434 46.4311 27.8925C48.2298 29.724 49.8674 31.7288 51.1568 33.95C52.2891 35.8999 53.1507 38.0304 53.4819 40.2672C53.671 41.4743 53.6445 42.7009 53.5867 43.9167C53.4826 45.9546 53.0753 47.9952 52.2225 49.8591C51.369 51.7624 50.0837 53.4538 48.5753 54.8922C46.8282 56.5566 44.8023 57.9071 42.6833 59.0559C42.3303 59.2447 41.9461 59.3631 41.5754 59.5119C41.2919 59.6155 41.0205 59.7684 40.7152 59.7988C41.8318 58.9815 43.0212 58.2366 43.9869 57.2352C44.3555 56.8665 44.4195 56.3171 44.4045 55.8219C44.38 55.1872 44.2841 54.5424 44.4344 53.9159C44.4657 54.309 44.6364 54.6683 44.8248 55.0093C45.0825 55.4809 45.2967 55.9829 45.3688 56.5194C45.5279 56.2968 45.5041 56.0106 45.4783 55.7542C45.3906 55.0803 45.1675 54.418 45.2097 53.7319C45.226 53.4031 45.3348 53.079 45.5477 52.8246C45.5449 53.0648 45.5776 53.3097 45.6959 53.5235C46.0019 54.125 46.4447 54.6764 46.5576 55.3591C46.8092 54.8929 46.6725 54.3456 46.6052 53.851C46.4902 53.1439 46.3053 52.3578 46.6834 51.6961C46.597 52.376 47.0975 52.9004 47.4002 53.4552C47.6076 53.7901 47.7048 54.1737 47.7742 54.5567C47.9564 54.0201 47.7694 53.4606 47.6797 52.9254C47.5192 52.1616 47.4199 51.326 47.781 50.6007C47.7585 51.2448 48.1761 51.7745 48.4828 52.305C48.6773 52.5885 48.8065 52.9092 48.984 53.2021C49.203 52.7448 49.1139 52.2224 48.9595 51.7603C48.765 51.1298 48.4835 50.4809 48.6025 49.8077C48.6419 49.5581 48.7576 49.3314 48.8772 49.1122C48.8249 49.8165 49.1479 50.4836 49.5532 51.0405C49.7559 51.3158 49.9973 51.5804 50.319 51.7177C50.3564 51.0364 50.0123 50.4221 49.7967 49.7962C49.5281 49.0939 49.324 48.2996 49.6063 47.5682C49.6131 48.3253 50.1544 48.9018 50.61 49.4491C50.8569 49.7265 51.0473 50.0445 51.2493 50.3544C51.3261 50.0296 51.165 49.7231 51.0208 49.4437C50.6651 48.7766 50.2523 48.1183 50.1116 47.3653C50.0354 46.9958 50.0633 46.6149 50.1483 46.2503C50.2639 46.7063 50.5005 47.1257 50.8494 47.4464C51.2799 47.8605 51.758 48.2245 52.2225 48.6C52.1034 48.1352 51.8253 47.7367 51.5832 47.3294C51.2479 46.7692 50.8848 46.2151 50.6801 45.5913C50.593 45.3125 50.5366 44.9959 50.6685 44.7225C50.8399 45.4221 51.4241 45.9228 52.0225 46.2746C52.2707 46.4214 52.5394 46.5337 52.8202 46.6048C52.7114 46.1183 52.3421 45.7618 52.0014 45.4248C51.5628 45.0006 51.0888 44.5852 50.8113 44.0324C50.64 43.6995 50.5862 43.3146 50.6529 42.9472C51.0235 43.4357 51.5451 43.7855 52.096 44.0446C52.3612 44.1495 52.6978 44.3315 52.961 44.1278C52.7325 43.7489 52.3333 43.5317 51.9844 43.2807C51.5234 42.958 51.0412 42.6055 50.8039 42.0791C50.6733 41.8078 50.6672 41.502 50.6876 41.2084C51.046 41.6968 51.573 42.0493 52.1449 42.2449C52.436 42.347 52.7611 42.341 53.0392 42.2016C52.9549 41.9742 52.7692 41.8071 52.5815 41.6623C51.9457 41.1847 51.167 40.8998 50.6128 40.3159C50.3666 40.0622 50.2414 39.7138 50.2612 39.3626C50.693 39.8599 51.3323 40.1116 51.9579 40.2679C52.3102 40.3511 52.6856 40.3924 53.0358 40.2767C52.791 39.9628 52.4231 39.7821 52.0769 39.6035C51.4248 39.2774 50.7134 39.021 50.1789 38.5074C49.9388 38.2781 49.7804 37.9736 49.7226 37.6482C50.2319 37.9479 50.8243 38.0724 51.4077 38.1272C51.7369 38.1522 52.0769 38.1434 52.3864 38.0169C52.2048 37.8288 51.9396 37.7706 51.6954 37.7084C51.0337 37.5548 50.3224 37.4993 49.7382 37.1259C49.4206 36.9256 49.1935 36.6022 49.1057 36.2395C49.4893 36.4723 49.9483 36.519 50.3849 36.5738C50.8814 36.6089 51.4179 36.6502 51.8695 36.3999C51.7036 36.1604 51.4084 36.0772 51.1405 36.0081C50.4251 35.837 49.6518 35.8018 49.0119 35.4053C48.6576 35.1949 48.4107 34.841 48.287 34.4547C48.9174 34.7071 49.5825 34.887 50.2612 34.9446C50.572 34.973 50.8984 34.9385 51.167 34.768C50.8093 34.2511 50.1605 34.09 49.5791 33.9696C48.9799 33.8336 48.3142 33.7558 47.8456 33.3208C47.6593 33.1503 47.5593 32.9148 47.4675 32.6861C48.289 33.04 49.2064 32.8959 50.0721 33.0204C49.896 32.8032 49.6811 32.6124 49.4179 32.5082C48.6814 32.2071 47.8286 32.3444 47.1186 31.9601C46.7419 31.77 46.4637 31.4392 46.2536 31.0819C47.0302 31.3918 47.8572 31.0786 48.6583 31.1171C47.9898 30.6029 47.0887 30.8113 46.3195 30.6022C45.8666 30.5082 45.4756 30.2098 45.2546 29.8073C45.9067 30.0102 46.6065 29.9899 47.2743 29.8803C47.4301 29.856 47.5824 29.81 47.7232 29.7369C46.9275 29.4054 46.0394 29.5542 45.2192 29.3337C44.8465 29.2355 44.499 29.0055 44.3324 28.651C44.8003 28.7768 45.2899 28.7775 45.7701 28.7477C46.0394 28.7159 46.3352 28.6983 46.5562 28.5224C45.7619 28.22 44.8724 28.4439 44.0787 28.1375C43.8557 28.0549 43.6653 27.9047 43.517 27.722C43.9944 27.7856 44.482 27.7789 44.9587 27.7099C45.1655 27.6747 45.3899 27.6442 45.5484 27.4927C44.75 27.2044 43.8713 27.3675 43.0689 27.105C42.8376 27.0346 42.6479 26.8783 42.5044 26.6896C42.8886 26.7045 43.2763 26.7437 43.6591 26.6747C43.923 26.6246 44.2202 26.5786 44.4126 26.3736C43.6428 26.2525 42.8567 26.3892 42.0841 26.2897C41.8434 26.2566 41.5986 26.1909 41.4122 26.0279C42.0882 25.9528 42.7798 25.8736 43.413 25.6104C43.2586 25.5231 43.0716 25.5543 42.9022 25.5543C42.3065 25.5746 41.6992 25.718 41.111 25.559C40.8335 25.49 40.5962 25.3222 40.3962 25.1246C41.1293 25.1923 41.8617 25.057 42.5697 24.8784C41.808 24.7545 41.0314 24.9738 40.2718 24.8154C39.9902 24.7525 39.7128 24.6348 39.5115 24.423C40.1038 24.4826 40.6941 24.3804 41.2783 24.2945C41.4224 24.2728 41.5686 24.2471 41.706 24.1943C41.0681 24.0928 40.4207 24.1754 39.7794 24.1287C39.4428 24.1043 39.0674 24.0888 38.8062 23.8472C39.5053 23.8804 40.1942 23.7221 40.8879 23.6592C40.0351 23.4724 39.1177 23.5123 38.3261 23.0976C38.1296 22.9988 37.9555 22.8608 37.8059 22.7011C38.4356 22.8053 39.0796 22.787 39.7046 22.923C39.1918 22.6937 38.6886 22.4393 38.2234 22.124C38.0282 21.9873 37.8086 21.8764 37.6562 21.6883C38.6342 21.6896 39.6332 21.9149 40.4608 22.4481C40.2976 22.0408 40.0943 21.6511 39.9086 21.2539ZM41.3537 23.6253C41.4775 23.72 41.6067 23.8073 41.7414 23.8872C41.6326 23.7728 41.4986 23.6876 41.3537 23.6253ZM41.8481 23.9656C41.7999 24.0448 41.9325 24.1348 41.9984 24.0786C42.0454 23.9995 41.9121 23.9061 41.8481 23.9656Z" fill="#8C9295"/>
<path d="M32.2717 21.7504C31.7671 21.8479 31.2285 22.0075 30.879 22.4067C30.6308 22.6855 30.4342 23.0035 30.2227 23.31C29.8535 23.8546 29.4053 24.3418 28.9293 24.7951C28.8436 24.8769 28.762 24.9629 28.6953 25.061C29.1482 24.7957 29.5467 24.4446 30.0058 24.1875C30.4301 23.9987 30.9069 23.9987 31.353 23.8844C31.9161 23.7707 32.4472 23.494 32.8471 23.0813C33.251 22.6537 33.4952 22.1043 33.9087 21.6848C33.3666 21.7674 32.8131 21.6476 32.2717 21.7504Z" fill="#8C9295"/>
<path d="M26.7305 26.4575C27.0691 26.1665 27.2861 25.7545 27.6139 25.446C27.9355 25.0583 28.4735 24.9771 28.8339 24.6381C29.3045 24.2349 29.5214 23.6395 29.7452 23.0827C29.8472 22.8087 30.0301 22.5739 30.2668 22.4014C29.4235 22.6192 28.5768 22.9974 28.0042 23.672C27.6261 24.1497 27.5153 24.7674 27.3758 25.3438C27.2052 25.7383 26.9277 26.0766 26.7305 26.4575Z" fill="#8C9295"/>
<path d="M24.734 28.3445L24.7285 28.4331C25.0359 28.065 25.2012 27.5887 25.5534 27.2565C25.9465 27.0062 26.3328 26.724 26.596 26.333C26.8598 25.9778 26.9625 25.54 27.0441 25.1145C27.1441 24.6388 27.1563 24.1287 27.4243 23.7058C26.8557 23.9609 26.3199 24.3005 25.8771 24.7396C25.3827 25.222 25.1814 25.9216 25.1127 26.5894C25.0658 26.9345 25.2012 27.3005 25.0461 27.628C24.957 27.8729 24.8088 28.0948 24.734 28.3445Z" fill="#8C9295"/>
<path d="M27.4434 26.1265C27.4257 26.1434 27.3896 26.1766 27.3719 26.1935C27.3658 26.2131 27.3543 26.2517 27.3481 26.2713C27.6793 26.2111 27.9677 26.0196 28.2982 25.9614C28.8416 25.9134 29.3904 26.1407 29.9276 25.9756C30.8987 25.7172 31.8297 25.1245 32.316 24.228C31.5373 24.5738 30.6634 24.4283 29.844 24.5616C28.866 24.7903 28.3941 25.8396 27.4434 26.1265Z" fill="#8C9295"/>
<path d="M22.3721 31.1853C22.4 31.1975 22.455 31.2225 22.4822 31.2347C22.5584 31.0709 22.638 30.9086 22.7237 30.7496C22.8665 30.3619 23.0317 29.9789 23.2337 29.6176C23.4921 29.3145 23.8757 29.1312 24.0906 28.7861C24.4041 28.2699 24.5496 27.6684 24.6067 27.0723C24.6727 26.479 24.6258 25.8755 24.7557 25.2896C24.2069 25.7672 23.6689 26.278 23.2908 26.9046C22.8991 27.5588 22.8236 28.3531 22.912 29.0967C22.9977 29.6089 22.7638 30.0967 22.6475 30.5852C22.5965 30.8017 22.5258 31.0168 22.3721 31.1853Z" fill="#8C9295"/>
<path d="M26.5851 27.3349C26.3158 27.5812 25.9778 27.7314 25.6514 27.8863C25.6983 27.9141 25.7459 27.9418 25.7949 27.9696C26.0506 27.8708 26.3063 27.7341 26.5885 27.7429C27.1128 27.7334 27.6317 27.9554 28.1533 27.8146C29.1639 27.5873 30.1561 27.0183 30.6852 26.1069C29.8725 26.4445 28.9735 26.2524 28.1241 26.3674C27.5113 26.4939 27.0428 26.9418 26.5851 27.3349Z" fill="#8C9295"/>
<path d="M20.2446 34.3253C20.2732 34.4565 20.2861 34.5898 20.295 34.7238C20.3813 34.3632 20.4922 34.0086 20.6329 33.6656C20.72 33.2827 20.8682 32.9173 20.9934 32.5459C21.1029 32.1737 21.4273 31.9315 21.6585 31.6372C22.0522 31.1981 22.2977 30.6352 22.3576 30.0506C22.4847 29.167 22.1746 28.2617 22.4371 27.3923C21.5959 27.8714 20.9723 28.6677 20.6418 29.5675C20.2834 30.4363 20.4752 31.3957 20.6275 32.2874C20.6377 32.6392 20.5439 32.9863 20.4963 33.3341C20.4235 33.667 20.4248 34.0249 20.2446 34.3253Z" fill="#8C9295"/>
<path d="M28.5415 27.9717C27.9553 28.266 27.2895 28.2937 26.6503 28.3682C26.3177 28.4081 25.9702 28.4257 25.6662 28.5806C24.8454 28.9838 24.402 29.8837 23.5397 30.2254C23.5322 30.2592 23.5172 30.3269 23.5098 30.3607C23.7729 30.2768 24.0123 30.1354 24.2708 30.0407C24.6271 29.9385 25.0025 29.9953 25.367 30.0089C25.8505 30.0461 26.3191 29.8736 26.7462 29.6645C27.4942 29.2985 28.1784 28.7322 28.5415 27.9717Z" fill="#8C9295"/>
<path d="M18.542 35.8018C18.6175 36.2923 18.5679 36.793 18.576 37.2876C18.5393 37.6489 18.6162 38.023 18.4944 38.3728C18.4699 38.4371 18.4543 38.5047 18.4387 38.5724C18.4971 38.7036 18.5196 38.8464 18.5352 38.9885C18.5896 38.7794 18.6311 38.5663 18.6352 38.3505C18.64 38.1015 18.6821 37.8552 18.7365 37.6123C18.7338 37.2977 18.7964 36.9872 18.8358 36.6766C18.8705 36.4425 18.8855 36.1922 19.0283 35.9933C19.5064 35.2321 20.0055 34.4236 20.0497 33.5014C20.1579 32.3492 19.69 31.2335 19.7872 30.084C19.4016 30.4087 19.0201 30.7524 18.7515 31.1834C18.2979 31.9053 18.0476 32.7734 18.1394 33.6266C18.2 34.3634 18.3611 35.0866 18.542 35.8018Z" fill="#8C9295"/>
<path d="M21.0345 33.6203C21.163 33.4302 21.3915 33.3618 21.5819 33.2515C21.8158 33.1331 22.0226 32.9464 22.2899 32.9058C22.6544 32.849 23.025 32.8551 23.3936 32.8537C23.7384 32.8605 24.0621 32.7177 24.3654 32.5702C25.3392 32.0587 26.1825 31.2225 26.5334 30.167C25.9962 30.5452 25.3263 30.6237 24.6973 30.7448C24.2566 30.8348 23.7778 30.8659 23.4017 31.1379C22.9563 31.4633 22.6204 31.9078 22.2926 32.3449C22.0185 32.7231 21.6567 33.0337 21.2582 33.2772C21.112 33.3963 20.961 33.5107 20.8066 33.6189C20.8794 33.6 20.9529 33.5824 21.0263 33.5661L21.0345 33.6203Z" fill="#8C9295"/>
<path d="M19.2286 37.4491C19.1083 37.6474 18.9757 37.8395 18.8213 38.0141C18.8777 37.9863 18.9355 37.9606 18.9933 37.9369C19.011 37.9329 19.045 37.9248 19.062 37.9207L19.0872 37.9146C19.0954 37.8788 19.111 37.807 19.1192 37.7712C19.5279 37.3659 19.9162 36.941 20.3229 36.5337C20.5276 36.3219 20.8207 36.2374 21.092 36.1433C21.7251 35.9146 22.4249 35.849 23.0009 35.4796C23.9789 34.8646 24.6229 33.7881 24.765 32.6528C23.8565 33.4025 22.5936 33.4715 21.6211 34.1109C21.3518 34.3118 21.1362 34.573 20.9322 34.8368C20.5187 35.3768 20.278 36.0229 19.8781 36.5716C19.6652 36.8666 19.4714 37.1765 19.2286 37.4491Z" fill="#8C9295"/>
<path d="M17.308 40.6203C17.5229 41.2556 17.6698 41.9119 17.8507 42.5574C17.9513 42.8693 17.8724 43.1994 17.9234 43.5188C17.9268 43.3774 17.9465 43.2373 17.9778 43.1007C18.0322 43.2597 18.0805 43.422 18.1329 43.5831C18.0696 43.102 17.9261 42.6318 17.9275 42.144C17.8031 41.8713 17.8037 41.5662 17.748 41.2766C17.7201 41.0303 17.6419 40.7766 17.7167 40.5324C17.8806 40.006 18.054 39.4823 18.1839 38.9465C18.4634 37.8707 18.3661 36.7185 18.0091 35.6725C17.8235 35.1014 17.5569 34.5439 17.529 33.9343C16.702 35.0229 16.0335 36.3585 16.1838 37.7597C16.3715 38.7746 16.8646 39.6981 17.308 40.6203Z" fill="#8C9295"/>
<path d="M18.886 40.5825C19.0316 40.3322 19.141 40.0352 19.3988 39.8755C19.7211 39.6631 20.0775 39.5095 20.4284 39.3525C20.9935 39.0988 21.6192 38.9148 22.0558 38.452C22.7705 37.7165 23.0031 36.6604 23.05 35.6692C22.3931 36.3194 21.4267 36.4533 20.6705 36.9479C20.357 37.1509 20.1428 37.4648 19.9313 37.7639C19.2288 38.7957 18.8275 39.9865 18.4249 41.1556C18.3501 41.4222 18.2617 41.6854 18.1699 41.9472C18.2318 41.8592 18.2937 41.7713 18.3563 41.6854C18.3705 42.1644 18.3352 42.6448 18.3835 43.1231C18.3964 42.5967 18.3569 42.067 18.4141 41.5426C18.5385 41.209 18.7262 40.9012 18.886 40.5825Z" fill="#8C9295"/>
<path d="M17.2462 45.02C17.5366 45.2541 17.6529 45.6202 17.8331 45.9334C17.9983 46.2906 18.2248 46.6235 18.3207 47.0092C18.3846 47.0741 18.4526 47.135 18.5199 47.1986C18.3934 46.7162 18.1826 46.2582 18.1058 45.7629C18.0935 45.7677 18.0684 45.7764 18.0561 45.7812C17.9589 45.4009 17.8004 45.0376 17.7304 44.652C17.6719 44.0207 17.7277 43.3847 17.642 42.7555C17.5073 41.587 16.9782 40.5133 16.4009 39.5032C16.118 38.9869 15.7909 38.4822 15.644 37.9058C15.3475 38.5377 15.0958 39.1967 14.9761 39.8861C14.8299 40.717 14.8796 41.5965 15.2148 42.3786C15.6501 43.4172 16.426 44.265 17.2462 45.02Z" fill="#8C9295"/>
<path d="M18.975 43.9186C19.5891 43.2109 20.5752 42.9091 21.1125 42.1202C21.7449 41.2035 21.9401 40.0526 21.9054 38.9592C21.3437 39.5661 20.5398 39.8577 19.9325 40.4085C19.4028 40.8631 19.0879 41.5093 18.8887 42.1649C18.6336 42.9822 18.6024 43.8435 18.4691 44.6831C18.4759 45.1073 18.4215 45.5282 18.397 45.9517C18.4548 45.7805 18.5058 45.6073 18.5486 45.4321C18.6724 44.924 18.7635 44.3983 18.975 43.9186Z" fill="#8C9295"/>
<path d="M19.8939 47.5302C20.1924 47.0552 20.5617 46.629 20.948 46.2231C21.2901 45.8651 21.4757 45.3929 21.6192 44.9281C21.8899 43.9599 21.9783 42.9159 21.7185 41.9355C21.1017 42.7765 20.1204 43.2948 19.6137 44.2244C19.0778 45.1568 19.1479 46.2745 19.2342 47.3056C19.2628 47.8536 19.3036 48.401 19.4063 48.9416C19.4852 49.265 19.5362 49.5958 19.6321 49.9158C19.6457 49.8076 19.6566 49.6993 19.6627 49.5918C19.6341 49.1215 19.6056 48.6493 19.6402 48.179C19.6525 47.9409 19.7756 47.7298 19.8939 47.5302Z" fill="#8C9295"/>
<path d="M18.0827 48.987C18.3275 49.0912 18.4921 49.3056 18.6785 49.4849C18.9607 49.7799 19.2504 50.0688 19.5047 50.3888C19.67 50.5499 19.8352 50.7129 19.9964 50.8787C19.7128 50.3726 19.3143 49.9382 19.0606 49.4146L18.9879 49.3652C18.792 49.0885 18.5907 48.8138 18.4316 48.5147C18.2276 48.035 18.1283 47.5181 17.9379 47.033C17.6733 46.2847 17.2435 45.6034 16.7308 44.9992C16.0398 44.1616 15.153 43.5012 14.5165 42.6169C14.2934 43.9769 14.3363 45.4755 15.1156 46.6649C15.8283 47.7285 16.9497 48.4335 18.0827 48.987Z" fill="#8C9295"/>
<path d="M22.101 49.3942C22.4567 48.9044 22.6431 48.3063 22.6791 47.7068C22.743 46.7806 22.4343 45.8916 22.2473 44.9978C21.8433 45.8909 21.1381 46.6087 20.7348 47.5025C20.3002 48.4274 20.2676 49.5038 20.5294 50.4808C20.6151 50.9504 20.7831 51.3983 20.981 51.8313C21.032 51.9463 21.0959 52.0613 21.1007 52.1906C21.2619 52.4449 21.3965 52.7142 21.5257 52.9862C21.5468 52.9591 21.589 52.9064 21.61 52.8793L21.6155 52.8725C21.3475 52.5539 21.3278 52.1114 21.1891 51.7325C21.1224 51.3726 20.8905 50.9524 21.1374 50.6155C21.4319 50.1879 21.8107 49.8252 22.101 49.3942Z" fill="#8C9295"/>
<path d="M16.8601 51.6257C17.8449 52.3077 19.0323 52.5939 20.1924 52.8152C20.6141 52.9978 20.9929 53.2671 21.3941 53.4897C21.5628 53.577 21.6988 53.7089 21.8307 53.8436L21.8096 53.7529C21.9987 53.8564 22.1837 53.9681 22.3748 54.0689C21.9592 53.6724 21.4608 53.3673 21.0826 52.9315L21.0554 52.9688C20.7542 52.6941 20.4087 52.464 20.1435 52.1514C19.7728 51.6399 19.4689 51.0804 19.0574 50.598C18.3937 49.7881 17.5035 49.2036 16.5929 48.7036C15.9849 48.3626 15.3422 48.0683 14.8091 47.6116C14.8832 48.2191 14.9995 48.8247 15.2117 49.4005C15.5252 50.28 16.0747 51.098 16.8601 51.6257Z" fill="#8C9295"/>
<path d="M22.8275 53.7554C23.1077 54.095 23.3246 54.4793 23.5776 54.8379C23.6694 54.9651 23.7476 55.1011 23.8095 55.2452C23.9442 55.3974 24.0686 55.5591 24.1836 55.7276C24.2033 55.708 24.242 55.6681 24.2618 55.6478L24.2747 55.6349C24.1652 55.5591 24.0693 55.4651 24.0305 55.3352C23.8517 54.8751 23.63 54.4231 23.5409 53.9347C23.445 52.9915 23.9503 52.137 24.0822 51.2243C24.1659 50.6343 24.1366 50.022 23.9469 49.4543C23.7347 48.8177 23.4028 48.229 23.1091 47.6289C22.9207 48.4361 22.4963 49.1587 22.2161 49.9334C21.9523 50.6417 21.7632 51.4178 21.9326 52.1708C22.0686 52.7743 22.4501 53.2791 22.8275 53.7554Z" fill="#8C9295"/>
<path d="M25.4775 56.2541C25.9339 56.8008 26.499 57.248 27.0764 57.66C26.9519 57.4814 26.8002 57.3129 26.7445 57.0978C26.5201 56.3502 26.4228 55.5498 26.5683 54.7778C26.6472 54.2818 26.5418 53.7764 26.3521 53.3177C25.9298 52.2731 25.1246 51.4544 24.5744 50.4849C24.6288 51.5187 24.1575 52.495 24.1691 53.5275C24.1433 54.1377 24.3119 54.7487 24.6268 55.271C24.8437 55.6519 25.1756 55.9435 25.4775 56.2541Z" fill="#8C9295"/>
<path d="M21.9631 55.9767C22.3256 55.9909 22.6969 55.8887 23.0519 55.9956C23.5089 56.1221 23.9611 56.2649 24.4141 56.4036C24.5643 56.4442 24.6827 56.5477 24.8119 56.6303L24.7629 56.5396C24.901 56.5646 25.039 56.5951 25.1764 56.6228C24.8282 56.4192 24.4433 56.2838 24.1053 56.0619C23.8856 56.0152 23.7 55.882 23.4973 55.794C23.1553 55.6221 22.7867 55.4821 22.497 55.227C22.0298 54.8069 21.5911 54.3515 21.0763 53.9882C20.1868 53.3502 19.132 52.9984 18.0807 52.7277C17.4632 52.5579 16.8225 52.4334 16.2554 52.1235C16.6831 53.3001 17.3591 54.4456 18.42 55.1594C19.4571 55.8441 20.7458 55.9936 21.9631 55.9767Z" fill="#8C9295"/>
<path d="M26.3184 58.3191C25.6941 58.0167 25.1473 57.5762 24.5217 57.2731C23.4656 56.7143 22.268 56.4978 21.0867 56.4064C20.2257 56.3279 19.3471 56.3448 18.5093 56.1067C18.8337 56.5992 19.1655 57.0891 19.5661 57.5241C20.3223 58.3638 21.3152 59.0343 22.4434 59.2426C23.6165 59.4585 24.8264 59.3171 25.9777 59.041C26.2436 58.9815 26.5095 58.88 26.787 58.9044C27.3562 58.9517 27.9233 59.0126 28.4905 59.0782C28.7272 59.1087 28.9645 59.129 29.2032 59.1324C28.8061 58.9788 28.3844 58.9077 27.9791 58.7812C27.4228 58.6371 26.8631 58.5018 26.3184 58.3191Z" fill="#8C9295"/>
<path d="M43.164 37.2876C43.1565 38.1726 42.9872 39.0481 42.7607 39.9012C42.605 39.8978 42.4492 39.8897 42.2949 39.8728C41.3231 39.8606 40.3723 40.1766 39.5563 40.6901C40.3098 39.3931 40.8273 37.9215 40.8015 36.408C40.8015 35.4865 40.5628 34.5819 40.2139 33.7355C39.8847 33.0792 39.4998 32.4439 38.9918 31.9081C38.9089 31.8134 38.8102 31.7308 38.745 31.6232C38.7388 31.13 38.745 30.6368 38.7436 30.1436C39.2829 30.446 39.8011 30.7877 40.2833 31.1747C41.1034 31.8228 41.8637 32.5914 42.3377 33.5298C42.9613 34.6719 43.1953 35.9967 43.164 37.2876Z" fill="white"/>
<path d="M32.3101 32.0792C31.8531 31.4696 31.3471 30.8823 30.7283 30.4303L30.7276 30.4114C30.4978 30.2531 30.2665 30.0947 30.0142 29.9736C29.9421 30.1164 29.868 30.2585 29.7973 30.4026C29.5178 30.9066 29.2274 31.4046 28.9227 31.8938L28.9241 31.9032C27.7347 33.7408 26.5167 35.5683 25.1226 37.2591C26.1331 37.3409 27.0988 37.6833 28.0325 38.0581C28.3726 37.7137 28.6936 37.3524 29.0064 36.9837C29.2981 36.6447 29.5926 36.3071 29.8592 35.9485C30.1774 35.5812 30.4678 35.1914 30.765 34.8078C31.3179 34.0927 31.8592 33.3674 32.3856 32.6326C32.4516 32.456 32.4468 32.2253 32.3101 32.0792Z" fill="white"/>
<path d="M37.5871 36.6118C37.5891 38.08 37.7591 39.5739 38.2991 40.9494C37.6122 40.4751 36.8771 40.0705 36.1052 39.7525C35.6618 39.5691 35.2082 39.4115 34.7478 39.2782C34.3452 39.1618 33.9365 39.0658 33.5258 38.9846C31.5522 38.5996 29.5209 38.6043 27.5283 38.8256C28.3682 38.055 29.1067 37.1849 29.8283 36.306C31.1163 34.7329 32.3064 33.0841 33.4945 31.4366L33.4931 31.4157C33.6196 31.2512 33.7223 31.0686 33.8624 30.9143C34.1052 31.2377 34.4071 31.5097 34.7472 31.7296C35.1783 32.0117 35.6469 32.2276 36.1175 32.4346L36.1277 32.4813L36.1685 32.465C36.9281 32.7343 37.6966 32.988 38.478 33.193C37.7721 34.1802 37.6204 35.4325 37.5871 36.6118Z" fill="white"/>
<path d="M45.6715 39.2964C45.475 39.2531 45.2771 39.2199 45.0772 39.2057C44.3447 39.1759 43.6116 39.3816 42.9901 39.7653C43.5525 37.6827 43.5253 35.3573 42.5059 33.4155C43.5498 34.1171 44.4828 35.017 45.1112 36.111C45.662 37.0664 45.8871 38.2098 45.6715 39.2964Z" fill="white"/>
<path d="M45.6665 36.8877C46.4567 37.544 47.1225 38.3356 47.7325 39.1563C47.1273 38.9066 46.454 39.0176 45.8698 39.2686C45.9984 38.475 45.9508 37.6441 45.6665 36.8877Z" fill="white"/>
<path d="M27.8432 44.2928C27.918 44.2739 27.9949 44.2522 28.0724 44.238C27.7324 44.2962 27.4093 44.4248 27.085 44.5432C27.3373 44.4566 27.5868 44.3652 27.8432 44.2928Z" fill="#8C9295"/>
<path d="M45.5325 36.5027C44.8613 35.0515 43.661 33.908 42.3192 33.063C41.4623 31.7829 40.2464 30.7687 38.9046 30.0204C38.8876 29.1124 38.8985 28.2038 38.8985 27.2958C39.3358 27.2809 39.5555 27.7051 39.8479 27.9507C40.1097 28.1598 40.3817 28.4291 40.7428 28.4223C40.9407 27.8641 41.1359 27.3032 41.3869 26.7654C40.9693 26.6429 40.547 26.4589 40.2607 26.1206C39.956 25.7667 39.5153 25.5204 39.0406 25.5144C38.8346 25.5232 38.6061 25.469 38.4191 25.5759C38.383 26.1125 38.4109 26.6537 38.4055 27.1923C38.16 27.4467 37.8839 27.6693 37.6091 27.8919C36.4925 28.7768 35.3166 29.5847 34.1354 30.3817C34.0544 30.427 33.9817 30.5015 33.8844 30.5062C33.7906 30.4081 33.7348 30.2829 33.6743 30.1638C33.4206 29.6415 33.2071 29.1009 33.0106 28.5549C32.8365 28.1571 32.9378 27.7153 32.9126 27.2965C33.3628 27.2884 33.5825 27.7383 33.8967 27.9812C34.1449 28.1713 34.4115 28.4561 34.7522 28.4088C34.961 27.8607 35.1398 27.2999 35.3969 26.7708C35.1507 26.6889 34.9059 26.5989 34.6828 26.4663C34.338 26.2782 34.1483 25.9041 33.7953 25.7261C33.3853 25.467 32.88 25.4893 32.4216 25.5759C32.4155 26.3594 32.4203 27.1429 32.4189 27.9271C31.7055 28.6165 30.8684 29.1632 30.0197 29.6733C29.9571 29.7044 29.9095 29.7511 29.8775 29.812C29.1111 31.3526 28.1352 32.7775 27.1682 34.1976C26.3779 35.3079 25.6088 36.4412 24.6921 37.4533C25.8046 37.4012 26.8669 37.8187 27.8897 38.2043C27.7095 38.4026 27.5041 38.5744 27.3089 38.7571C27.1532 38.7571 26.9981 38.7564 26.8431 38.7571C26.8424 38.8911 26.8417 39.025 26.8404 39.1597C25.5517 38.8708 24.2568 38.6069 22.9715 38.3038C22.9654 38.36 22.9525 38.4729 22.9463 38.5298C22.8688 38.548 22.7913 38.567 22.7151 38.5873C22.7063 39.0277 22.7131 39.4689 22.711 39.9093C22.8063 39.9215 22.9062 39.9384 22.9579 40.0304C23.5978 40.1353 24.2589 40.1867 24.8702 40.4147C25.2769 40.5656 25.3966 41.0176 25.4442 41.4025C26.0563 41.3417 26.7329 41.3856 27.2416 41.7672C27.7013 42.1096 27.8788 42.7151 27.836 43.2672H27.9468C27.8659 43.2828 27.7857 43.3017 27.7061 43.3227C27.8516 43.2889 27.9999 43.2638 28.1508 43.2523C28.2699 43.2523 28.3875 43.2618 28.5031 43.278C28.4317 43.2645 28.3596 43.253 28.2875 43.2429C28.2522 42.9973 28.2535 42.7489 28.2495 42.502C32.2122 43.0135 36.2402 42.8342 40.1865 42.2665C39.8839 42.707 39.7493 43.2341 39.703 43.7598C39.8227 43.7253 39.941 43.682 40.0567 43.6468C40.0859 43.6373 40.1158 43.6278 40.1457 43.6177C40.1947 43.2422 40.3015 42.864 40.5409 42.5622C41.0373 41.9398 41.8105 41.6366 42.5389 41.3701C44.1826 40.8051 45.861 40.3437 47.5292 39.8552C47.7325 39.7936 47.9542 39.7239 48.0637 39.525C48.1399 39.5683 48.2167 39.611 48.2949 39.6536C47.5489 38.4669 46.6036 37.4073 45.5325 36.5027ZM24.0453 39.5372L23.9651 39.5169L23.9732 38.8897L24.0501 38.9073L24.0453 39.5372ZM24.9702 39.6624C24.9233 39.6536 24.8301 39.6373 24.7832 39.6285C24.7859 39.4344 24.7852 39.2402 24.7825 39.046C24.8458 39.0589 24.9097 39.0717 24.9736 39.0859C24.9722 39.2774 24.9722 39.4696 24.9702 39.6624ZM25.8726 39.8187C25.8162 39.8072 25.7598 39.7963 25.7033 39.7862C25.7026 39.6049 25.7033 39.4235 25.704 39.2422C25.7462 39.2524 25.8305 39.2713 25.8726 39.2808C25.8733 39.4601 25.8733 39.6394 25.8726 39.8187ZM26.771 39.9871C26.7159 39.9682 26.6629 39.9479 26.6105 39.9262C26.5976 39.7672 26.6044 39.6076 26.603 39.4486C26.6459 39.4547 26.7302 39.4668 26.773 39.4729C26.7744 39.6441 26.7751 39.8153 26.771 39.9871ZM27.3783 39.2815C27.2647 39.3106 27.2273 39.2727 27.2674 39.1691C27.379 39.1373 27.4157 39.1746 27.3783 39.2815ZM38.4068 27.54C38.3966 28.9325 38.4102 30.3249 38.4 31.7173C36.9964 31.3573 35.59 31.0089 34.1884 30.6435C35.6288 29.6571 37.0875 28.6862 38.4068 27.54ZM38.4034 31.9649C38.4028 32.2978 38.4028 32.6313 38.4041 32.9649C37.2807 32.6807 36.1667 32.316 35.1521 31.7497C34.7495 31.5163 34.3578 31.243 34.0735 30.8702C35.5193 31.2261 36.959 31.6036 38.4034 31.9649ZM32.9289 29.0184C33.1221 29.5481 33.3383 30.0725 33.6158 30.5651C33.6498 30.6199 33.6593 30.6794 33.6437 30.7437C33.709 30.8377 33.5988 30.9115 33.5621 30.9893C33.3445 31.291 33.1377 31.6002 32.9153 31.8986C32.9174 30.9385 32.8922 29.9771 32.9289 29.0184ZM32.4216 28.2735C32.4155 29.4778 32.4196 30.6828 32.4196 31.8878C31.798 31.0975 31.1003 30.3296 30.1978 29.8533C30.9785 29.3844 31.7334 28.8695 32.4216 28.2735ZM25.1225 37.2592C26.5167 35.5684 27.7346 33.7409 28.9241 31.9033L28.9227 31.8939C29.2274 31.4047 29.5178 30.9067 29.7973 30.4027C29.868 30.2586 29.9421 30.1165 30.0142 29.9737C30.2665 30.0948 30.4977 30.2531 30.7276 30.4115L30.7283 30.4304C31.3471 30.8824 31.8531 31.4696 32.3101 32.0792C32.4468 32.2254 32.4515 32.4561 32.3856 32.6327C31.8592 33.3675 31.3179 34.0927 30.765 34.8079C30.4678 35.1915 30.1774 35.5812 29.8592 35.9486C29.5926 36.3072 29.2981 36.6448 29.0064 36.9838C28.6935 37.3525 28.3725 37.7138 28.0325 38.0582C27.0988 37.6834 26.1331 37.341 25.1225 37.2592ZM27.5075 40.0947C27.5055 39.9492 27.5041 39.8038 27.5021 39.659C27.5436 39.659 27.6265 39.6597 27.668 39.6597C27.6748 39.8153 27.6755 39.9716 27.6741 40.1285C27.6326 40.1204 27.549 40.1035 27.5075 40.0947ZM29.4056 42.1583C29.0145 42.113 28.6248 42.0575 28.2359 41.9979C28.2372 41.6177 28.2379 41.2368 28.2352 40.8565C28.2977 40.8559 28.361 40.8552 28.4242 40.8552C28.4236 40.9526 28.4229 41.0507 28.4235 41.1495C28.8295 41.2009 29.2403 41.2239 29.6449 41.2889C29.3607 41.4743 29.2695 41.8532 29.4056 42.1583ZM28.412 39.8525C28.4576 39.8566 28.548 39.8647 28.5936 39.8694C28.5936 39.9986 28.5942 40.1285 28.5963 40.2584C28.5494 40.2598 28.4562 40.2632 28.4093 40.2645C28.4072 40.1265 28.4011 39.9892 28.412 39.8525ZM31.949 42.3416C31.4811 42.3186 31.0139 42.2923 30.5467 42.2672C30.7337 41.977 30.7031 41.5873 30.4569 41.3403C30.9969 41.3809 31.5389 41.4215 32.0809 41.4283C31.8062 41.6454 31.7524 42.0534 31.949 42.3416ZM33.9667 42.3606C33.6546 42.3592 33.3431 42.3586 33.0323 42.3613C33.2119 42.0879 33.2023 41.7158 32.9698 41.4756C33.3411 41.4702 33.7131 41.4885 34.0844 41.4804C33.8532 41.7145 33.7947 42.0744 33.9667 42.3606ZM35.1194 42.3254C35.2473 42.0487 35.2078 41.7124 34.9855 41.4959C35.5145 41.4837 36.045 41.4959 36.5727 41.4567C36.4333 41.7009 36.4347 41.9851 36.5768 42.228C36.0933 42.2868 35.6043 42.2875 35.1194 42.3254ZM28.837 40.8579C28.8255 40.4357 28.8343 40.0142 28.8316 39.592C28.4542 39.5088 28.076 39.4249 27.6979 39.3464C27.6945 39.3058 27.6877 39.2253 27.6843 39.1854C29.5858 39.2551 31.4865 39.4499 33.3506 39.8349C34.7161 40.1333 36.0905 40.5081 37.3113 41.2036C34.4842 41.3329 31.6484 41.1657 28.837 40.8579ZM29.6415 38.8755C32.2618 38.7896 34.9644 39.2382 37.2691 40.5318C37.5948 40.7273 37.9349 40.908 38.2239 41.1563C38.1804 41.1569 38.0933 41.1583 38.0498 41.159C36.9529 40.4073 35.673 39.9729 34.3945 39.6346C32.8378 39.2382 31.2417 39.0081 29.6415 38.8755ZM37.5758 42.1488C37.7016 41.9073 37.654 41.6245 37.4894 41.4161C37.6132 41.4242 37.7431 41.433 37.8383 41.5243C38.0457 41.6867 38.2939 41.8207 38.4313 42.0541C38.147 42.0947 37.8614 42.1211 37.5758 42.1488ZM38.0403 39.3958C37.7615 37.9811 37.6642 36.5109 37.9233 35.086C38.0226 34.6029 38.1532 34.1185 38.3994 33.6868C38.4055 36.0007 38.4062 38.3153 38.3994 40.6292C38.2178 40.2388 38.1382 39.8119 38.0403 39.3958ZM37.5867 36.6117C37.5887 38.0799 37.7587 39.5737 38.2987 40.9492C37.6118 40.475 36.8767 40.0704 36.1048 39.7524C35.6614 39.569 35.2078 39.4114 34.7474 39.2781C34.3448 39.1617 33.9361 39.0656 33.5254 38.9844C31.5518 38.5995 29.5205 38.6042 27.5279 38.8254C28.3678 38.0548 29.1063 37.1847 29.8279 36.3059C31.1159 34.7328 32.306 33.084 33.4941 31.4365L33.4927 31.4155C33.6192 31.2511 33.7219 31.0684 33.862 30.9142C34.1048 31.2376 34.4067 31.5096 34.7467 31.7294C35.1779 32.0116 35.6465 32.2274 36.1171 32.4344L36.1273 32.4811L36.1681 32.4649C36.9277 32.7342 37.6962 32.9879 38.4776 33.1929C37.7717 34.18 37.62 35.4324 37.5867 36.6117ZM45.1109 36.111C45.6617 37.0663 45.8868 38.2098 45.6712 39.2963C45.4747 39.253 45.2768 39.2199 45.0769 39.2057C44.3444 39.1759 43.6113 39.3816 42.9898 39.7652C43.5522 37.6827 43.525 35.3573 42.5056 33.4155C43.5494 34.1171 44.4825 35.017 45.1109 36.111ZM38.7435 30.1435C39.2828 30.446 39.801 30.7876 40.2831 31.1746C41.1033 31.8228 41.8636 32.5914 42.3376 33.5298C42.9612 34.6719 43.1951 35.9967 43.1639 37.2876C43.1564 38.1725 42.987 39.048 42.7606 39.9012C42.6048 39.8978 42.4491 39.8897 42.2947 39.8728C41.3229 39.8606 40.3722 40.1766 39.5561 40.6901C40.3096 39.3931 40.8272 37.9215 40.8013 36.408C40.8013 35.4865 40.5626 34.5819 40.2138 33.7355C39.8846 33.0792 39.4997 32.4439 38.9917 31.9081C38.9087 31.8133 38.8101 31.7308 38.7448 31.6232C38.7387 31.13 38.7448 30.6368 38.7435 30.1435ZM38.8992 32.0874C39.8928 33.2037 40.5259 34.6469 40.6048 36.1421C40.7054 37.9066 40.039 39.6252 39.0835 41.0839C39.0366 41.0866 38.9434 41.092 38.8965 41.0947C38.8978 38.092 38.8931 35.0894 38.8992 32.0874ZM39.3623 41.9472C39.2066 41.9634 39.0508 41.9824 38.8965 42.0034C38.8965 41.8274 38.8965 41.6529 38.8951 41.4783C39.023 41.3268 39.2011 41.2578 39.397 41.2476C39.2678 41.4628 39.2596 41.7199 39.3623 41.9472ZM39.4133 41.0426C39.9669 40.5981 40.6395 40.3187 41.327 40.1543C41.3277 40.364 41.3277 40.5737 41.327 40.7842C40.6918 40.887 40.0546 40.9804 39.4133 41.0426ZM41.006 41.6258C40.8442 41.728 40.6517 41.749 40.4688 41.7855C40.5205 41.5406 40.4055 41.3227 40.2675 41.1312C41.4447 40.9459 42.6171 40.7287 43.7841 40.4865C42.8374 40.8126 41.8806 41.1326 41.006 41.6258ZM41.8398 40.7023C41.8371 40.4946 41.8377 40.2869 41.8371 40.0798C42.1213 40.0534 42.4063 40.0629 42.6898 40.094C42.6776 40.1441 42.6531 40.2449 42.6409 40.295C43.0843 39.8674 43.6501 39.59 44.2506 39.4581C44.2519 39.707 44.2513 39.956 44.2533 40.2057C43.4542 40.3971 42.647 40.5528 41.8398 40.7023ZM44.745 40.0886C44.7443 39.8566 44.743 39.6238 44.7491 39.3924C45.032 39.389 45.3203 39.3978 45.5937 39.4804L45.6352 39.567C46.2472 39.318 46.9395 39.0372 47.5931 39.3194C46.643 39.571 45.7046 39.8687 44.745 40.0886ZM45.8698 39.2686C45.9983 38.475 45.9507 37.6441 45.6665 36.8877C46.4567 37.544 47.1225 38.3356 47.7325 39.1563C47.1272 38.9066 46.454 39.0176 45.8698 39.2686Z" fill="#8C9295"/>
<path d="M28.1274 44.2293C28.175 44.2232 28.222 44.2205 28.2696 44.2246C28.2519 44.2219 28.2342 44.2198 28.2165 44.2178C28.1866 44.2212 28.1574 44.2246 28.1274 44.2293Z" fill="#8C9295"/>
<path d="M46.1079 43.2542C46.0684 43.5858 45.9753 43.9085 45.8862 44.2299C45.1782 44.3767 44.5288 44.7583 43.797 44.7955C43.0803 44.7725 42.441 44.4017 41.7521 44.2481C41.4855 44.1764 41.2189 44.2901 40.9673 44.3645C40.4437 44.5309 39.9295 44.7691 39.3726 44.7948C38.5871 44.7819 37.903 44.3171 37.1345 44.2224C36.3851 44.3212 35.7166 44.7589 34.9535 44.7948C34.1653 44.7819 33.4771 44.3232 32.7073 44.2211C31.9823 44.2989 31.3275 44.6663 30.6107 44.7819C30.4923 44.8022 30.372 44.7955 30.2557 44.7738C29.6028 44.652 28.9982 44.3516 28.3447 44.2353C28.3399 44.2339 28.3352 44.2332 28.3304 44.2326C28.31 44.2278 28.2896 44.2258 28.2692 44.2244C28.2515 44.2217 28.2339 44.2197 28.2162 44.2177C28.1863 44.2211 28.157 44.2244 28.1271 44.2292C28.1087 44.2312 28.0904 44.2346 28.072 44.238C27.732 44.2962 27.4089 44.4247 27.0846 44.5431C27.0784 44.5458 27.0716 44.5478 27.0648 44.5506C26.9853 44.5776 26.9057 44.604 26.8261 44.6297C26.6493 44.6859 26.4705 44.7359 26.2875 44.7711C26.1842 44.4612 26.0849 44.1493 26.0107 43.8307C26.1495 43.8077 26.2855 43.7752 26.4195 43.7373C26.8513 43.6169 27.2668 43.4389 27.7007 43.3239C27.7027 43.3232 27.7048 43.3232 27.7061 43.3226C27.8517 43.2887 27.9999 43.2637 28.1509 43.2522C28.2699 43.2522 28.3876 43.2617 28.5032 43.2779C29.0438 43.3794 29.562 43.5729 30.0863 43.736C30.2502 43.7799 30.4223 43.853 30.5943 43.7996C31.3009 43.627 31.9715 43.2847 32.7093 43.2563C33.3316 43.2793 33.8967 43.5682 34.485 43.738C34.6767 43.7894 34.8774 43.8591 35.078 43.809C35.7696 43.6602 36.4089 43.2894 37.1256 43.2563C37.8451 43.2786 38.4858 43.6527 39.1774 43.8056C39.3515 43.855 39.529 43.8016 39.7017 43.7705C39.7017 43.7671 39.7024 43.763 39.7031 43.7596C39.8228 43.7251 39.9411 43.6818 40.0567 43.6466C40.0859 43.6372 40.1159 43.6277 40.1458 43.6175V43.6182C40.6273 43.468 41.1047 43.2502 41.6188 43.2576C42.2594 43.2968 42.8368 43.604 43.4475 43.7671C43.6005 43.8036 43.761 43.8523 43.9194 43.8117C44.541 43.6872 45.1211 43.3686 45.7495 43.2793C45.8671 43.2617 45.9861 43.2522 46.1079 43.2542Z" fill="#8C9295"/>
<path d="M6.33816 73.5699C8.56604 71.4319 10.8102 69.3102 13.0436 67.1783C10.0887 64.0667 7.78669 60.34 6.34088 56.3076C5.30243 59.8049 5.44796 63.6424 6.736 67.0565C6.78564 67.1661 6.78428 67.3352 6.65575 67.3921C6.20283 67.5944 5.68122 67.5714 5.20314 67.48C4.29458 67.2858 3.46967 66.8305 2.69984 66.3278C1.71579 65.66 0.79499 64.8921 0 64.0078C0.282905 66.432 1.31524 68.6925 2.47542 70.8163C3.33229 72.3555 4.30954 73.8257 5.36023 75.2404C6.93729 77.348 8.66397 79.348 10.5382 81.1984C8.88635 79.0408 7.51942 76.6606 6.55238 74.122C6.47213 73.9421 6.16882 73.7905 6.33816 73.5699Z" fill="#8C9295"/>
<path d="M70.6235 65.3333C69.7442 66.0627 68.7996 66.7359 67.7414 67.1838C67.0273 67.4774 66.2085 67.6851 65.4503 67.4361C65.2938 67.4064 65.1782 67.2372 65.2578 67.087C66.556 63.6628 66.7009 59.8178 65.6679 56.3057C64.216 60.3394 61.914 64.0654 58.9604 67.1831C61.1686 69.273 63.3638 71.3772 65.57 73.4692C65.6686 73.5538 65.757 73.681 65.689 73.8149C65.5944 73.9489 65.4577 74.0572 65.4115 74.2202C64.456 76.7229 63.0918 79.0578 61.476 81.1938C63.4679 79.2127 65.3061 77.0747 66.962 74.8082C68.4432 72.7615 69.7782 70.5978 70.7853 68.2791C71.3634 66.9152 71.8469 65.4923 71.9999 64.0126C71.5728 64.4842 71.1111 64.924 70.6235 65.3333Z" fill="#8C9295"/>
<path d="M65.1361 73.7278C62.169 70.8983 59.2019 68.0689 56.2273 65.2468C52.7638 68.7908 48.3475 71.4078 43.5558 72.719C40.1065 73.671 36.4757 73.9545 32.919 73.5695C29.6744 73.2231 26.4938 72.3043 23.5654 70.8726C20.6711 69.4552 18.0168 67.5459 15.7747 65.238C12.8123 68.0682 9.84521 70.8929 6.87402 73.7129C11.4155 78.4043 17.1273 81.9679 23.3498 83.9943C29.5703 86.0328 36.29 86.5206 42.7465 85.4428C48.5338 84.4834 54.1008 82.2419 58.9326 78.9314C61.17 77.4098 63.2367 75.6486 65.1361 73.7278ZM60.5416 71.5999C61.1666 72.2657 61.776 72.9477 62.3962 73.6182C62.2581 73.7427 62.1201 73.8678 61.982 73.9917C61.37 73.3158 60.7511 72.6466 60.1377 71.9721C60.273 71.8483 60.4084 71.7258 60.5416 71.5999ZM59.3794 72.6344C60.1581 73.175 60.9415 73.7088 61.7175 74.2535C61.5617 74.3814 61.406 74.5099 61.2469 74.6344C61.0843 74.5038 60.917 74.3807 60.7491 74.2589C60.5471 74.4301 60.3431 74.5986 60.139 74.7664C60.2315 74.9517 60.3247 75.1371 60.4186 75.3218C60.2608 75.4138 60.1384 75.6432 59.948 75.6344C59.5712 74.7887 59.189 73.945 58.8177 73.0965C59.0054 72.943 59.1904 72.7867 59.3794 72.6344ZM58.647 73.8056C58.479 73.9287 58.3124 74.0539 58.1437 74.1757C58.5912 74.7954 59.072 75.3915 59.5114 76.0187C59.3529 76.1242 59.1999 76.2386 59.0516 76.3577C58.579 75.7582 58.1329 75.1391 57.667 74.535C57.4991 74.654 57.3345 74.7778 57.1706 74.9023C57.0849 74.7907 56.9931 74.6831 56.9196 74.564C56.9421 74.4842 57.0325 74.4544 57.089 74.4017C57.5154 74.083 57.9472 73.7718 58.3702 73.4484C58.4627 73.5661 58.5552 73.6852 58.647 73.8056ZM55.7697 69.4552C56.0981 69.3415 56.4042 69.5655 56.6116 69.7975C56.4681 69.922 56.3185 70.0404 56.1689 70.1575C56.0811 70.0763 56.007 69.9741 55.8948 69.9281C55.6785 69.8402 55.4017 70.0763 55.4881 70.3029C55.582 70.5857 55.7969 70.807 55.9744 71.0411C56.1525 71.2515 56.3137 71.5059 56.581 71.6114C56.802 71.6642 56.9938 71.4788 57.1155 71.3171C57.0251 71.1378 56.8659 70.9978 56.7564 70.8286C56.668 70.8889 56.581 70.9504 56.4953 71.0147C56.4048 70.9037 56.3164 70.7928 56.2314 70.6798C56.4504 70.5113 56.668 70.3402 56.8829 70.1656C57.1781 70.5242 57.4623 70.8916 57.7534 71.2542C57.4521 71.5776 57.1461 71.9376 56.717 72.0905C56.2974 72.2231 55.9356 71.8861 55.6874 71.5939C55.3963 71.2265 55.0257 70.8638 54.9624 70.378C54.9624 69.9295 55.3739 69.5898 55.7697 69.4552ZM53.3051 71.2163C53.9451 71.6784 54.6054 72.1148 55.2168 72.6162C54.772 72.0194 54.3449 71.4091 53.9158 70.8016C54.0607 70.7035 54.2069 70.606 54.3524 70.5086C54.8672 71.2617 55.3834 72.0147 55.8962 72.7691C55.6881 72.9044 55.4834 73.0458 55.2787 73.1859C54.5952 72.6906 53.8737 72.2434 53.248 71.675C53.7308 72.309 54.1872 72.9619 54.6476 73.6121C54.502 73.7089 54.3572 73.8056 54.2123 73.9024C53.6962 73.1514 53.1841 72.3983 52.6699 71.6459C52.8808 71.5025 53.095 71.3625 53.3051 71.2163ZM51.8396 72.1432C52.5169 72.8056 53.1902 73.4734 53.8709 74.1324C53.6934 74.2312 53.518 74.3347 53.3391 74.4321C53.2038 74.2745 53.0549 74.1297 52.9127 73.9795C52.6808 74.1087 52.451 74.2413 52.2231 74.3753C52.2823 74.5742 52.3408 74.7731 52.4 74.9727C52.2334 75.0668 52.0681 75.1622 51.9022 75.2555C51.6716 74.3367 51.4302 73.4206 51.2085 72.4991C51.4207 72.3841 51.6295 72.2623 51.8396 72.1432ZM42.756 75.7007C42.8404 76.0857 42.9356 76.468 43.0145 76.8543C43.1668 76.4172 43.3048 75.9761 43.4497 75.537C43.6435 75.4964 43.8367 75.4524 44.0305 75.4091C43.8686 75.8759 43.7034 76.3408 43.5401 76.8069C43.9067 77.2284 44.2753 77.6486 44.6432 78.0694C44.4269 78.1188 44.2114 78.1682 43.9958 78.2149C43.685 77.836 43.3844 77.449 43.0695 77.0735C43.1641 77.5038 43.2708 77.9314 43.362 78.3631C43.1756 78.4009 42.9907 78.4429 42.8057 78.4862C42.6044 77.5979 42.3983 76.7102 42.1963 75.8218C42.3834 75.7826 42.569 75.7393 42.756 75.7007ZM41.417 76.0052C41.6414 76.0065 41.8277 76.1872 41.8774 76.3989C41.9706 76.7129 42.0134 77.1466 41.6632 77.3205C41.8475 77.3286 42.0359 77.4206 42.0889 77.6107C42.1793 77.9307 42.1827 78.2744 42.3235 78.5823C42.1243 78.61 41.9264 78.6438 41.7278 78.6716C41.6326 78.3685 41.6244 78.0451 41.5183 77.7467C41.4238 77.5309 41.1497 77.633 40.9729 77.6499C41.028 78.0234 41.0946 78.3955 41.1491 78.7697C40.9586 78.7961 40.7696 78.8258 40.5812 78.857C40.4404 77.9578 40.2915 77.0606 40.15 76.1615C40.5717 76.1073 40.9892 75.991 41.417 76.0052ZM39.8087 76.2169C39.8209 76.3563 39.8352 76.4984 39.8481 76.6398C39.5482 76.6594 39.2503 76.696 38.9511 76.719C38.9701 76.9348 38.9912 77.152 39.0109 77.3692C39.2877 77.3441 39.5652 77.3184 39.8427 77.2914C39.8529 77.4294 39.8665 77.5688 39.8807 77.7081C39.6053 77.7386 39.3292 77.7643 39.0524 77.7866C39.0776 78.0498 39.1034 78.3144 39.1286 78.5782C39.4401 78.5539 39.7522 78.5254 40.063 78.4889C40.0752 78.6364 40.0895 78.7832 40.1045 78.9314C39.5999 78.9781 39.0966 79.0281 38.5927 79.0748C38.5084 78.1709 38.424 77.267 38.3295 76.3644C38.8212 76.3029 39.3156 76.267 39.8087 76.2169ZM27.9824 75.3976C28.2198 75.4571 28.4578 75.5167 28.6958 75.5762C28.6958 76.5194 28.7482 77.4619 28.7468 78.405C28.5537 78.3563 28.3612 78.3089 28.1687 78.2623C28.1687 78.0545 28.1681 77.8468 28.1715 77.6398C27.9158 77.5701 27.658 77.5072 27.401 77.4456C27.3092 77.633 27.2099 77.8164 27.1051 77.9977C26.9208 77.9449 26.7352 77.8989 26.5495 77.8543C27.0405 77.0437 27.4975 76.2122 27.9824 75.3976ZM25.8701 74.7664C26.0565 74.8191 26.2401 74.8793 26.4237 74.9429C26.1959 75.6574 25.962 76.3692 25.7348 77.083C26.0021 77.1628 26.2659 77.2541 26.5339 77.334C26.4836 77.4855 26.4332 77.6371 26.387 77.7907C25.9341 77.6587 25.4893 77.5011 25.0371 77.3665C25.3077 76.4977 25.5995 75.6351 25.8701 74.7664ZM24.0884 74.0884C24.2638 74.1554 24.4393 74.2244 24.608 74.3097C24.2543 75.1446 23.9218 75.9889 23.5811 76.8293C23.4083 76.7602 23.2369 76.6905 23.0642 76.6215C23.4029 75.7758 23.7524 74.9348 24.0884 74.0884ZM23.0853 73.6561C22.7704 74.3367 22.459 75.018 22.1509 75.7014C22.4025 75.8164 22.6541 75.9321 22.9078 76.0424C22.8459 76.1899 22.7806 76.338 22.7106 76.4835C22.2794 76.2927 21.8523 76.0931 21.4205 75.9037C21.7966 75.0735 22.1774 74.2454 22.5555 73.4159C22.7323 73.4944 22.9098 73.5735 23.0853 73.6561ZM21.6789 72.9673C21.4613 73.8861 21.2668 74.8103 21.056 75.7312C20.8799 75.6344 20.7024 75.5424 20.5255 75.4477C20.5759 75.2454 20.6282 75.0437 20.682 74.8435C20.4439 74.7183 20.2107 74.583 19.9645 74.4727C19.8258 74.6229 19.7156 74.8171 19.5401 74.9247C19.3735 74.8435 19.2137 74.7508 19.0532 74.6594C19.7238 73.9917 20.3671 73.2975 21.0302 72.6223C21.2464 72.7366 21.464 72.8496 21.6789 72.9673ZM19.3796 71.6602C19.1715 71.9944 18.9573 72.3252 18.7554 72.6635C19.1641 72.4545 19.5748 72.2488 19.9808 72.0343C20.1508 72.1344 20.3175 72.24 20.4793 72.353C20.0393 72.5729 19.5939 72.7826 19.1518 72.9998C19.1158 73.5553 19.0791 74.1107 19.043 74.6662C18.8533 74.5505 18.6642 74.4355 18.4779 74.3164C18.5303 73.8313 18.5894 73.3462 18.6241 72.8597C18.4004 73.2352 18.1589 73.6006 17.9359 73.9775C17.7699 73.8794 17.6054 73.7792 17.4422 73.6777C17.9298 72.9078 18.4065 72.1311 18.8948 71.3618C19.0559 71.4612 19.2178 71.5607 19.3796 71.6602ZM18.6003 71.1588C18.5173 71.2711 18.4357 71.3841 18.3548 71.4978C18.1161 71.3185 17.8658 71.1568 17.6292 70.9755C17.4911 71.1473 17.3646 71.328 17.2429 71.512C17.4714 71.6642 17.6924 71.8286 17.9182 71.9856C17.8366 72.1006 17.7543 72.2156 17.6727 72.3313C17.449 72.1683 17.2218 72.01 16.9954 71.851C16.841 72.0675 16.6853 72.2833 16.5302 72.4998C16.7866 72.6757 17.0375 72.8604 17.2946 73.037C17.2109 73.1588 17.1246 73.2785 17.0355 73.3976C16.6274 73.1047 16.2167 72.8151 15.8053 72.5269C16.3255 71.7819 16.8634 71.0492 17.385 70.3056C17.8005 70.5742 18.1991 70.8686 18.6003 71.1588ZM14.5431 70.4626C14.6974 70.5803 14.8491 70.7021 15.0014 70.8232C14.9389 70.9207 14.8572 71.0127 14.828 71.1277C14.8096 71.282 14.9443 71.4071 15.083 71.4497C15.2721 71.487 15.455 71.3036 15.4367 71.1175C15.4027 70.7461 15.1891 70.4119 15.1708 70.0364C15.1463 69.7542 15.3421 69.4951 15.5815 69.3659C15.8631 69.2177 16.2106 69.3138 16.4465 69.5052C16.6519 69.6683 16.8695 69.8889 16.8478 70.173C16.8491 70.3733 16.722 70.5391 16.6098 70.694C16.4663 70.5756 16.3221 70.4585 16.1766 70.3449C16.2385 70.2062 16.3731 70.0418 16.2527 69.8963C16.112 69.6832 15.761 69.7894 15.742 70.0377C15.7223 70.4633 16.0426 70.8273 16.0236 71.2556C15.9807 71.6987 15.4788 72.0911 15.0381 71.9091C14.7287 71.7813 14.4275 71.5593 14.2955 71.2441C14.1785 70.9565 14.3758 70.6805 14.5431 70.4626ZM9.94041 73.922C9.81392 73.7765 9.5827 73.675 9.52762 73.4978C10.1145 72.8212 10.732 72.1696 11.3141 71.4883C11.595 71.7271 11.8731 71.97 12.1404 72.2238C12.3322 72.4044 12.4784 72.6953 12.3349 72.949C12.1588 73.2677 11.8752 73.5986 11.4862 73.6317C11.1339 73.6283 10.9523 73.2758 10.6694 73.1365C10.4035 73.3753 10.1893 73.6655 9.94041 73.922ZM12.1608 75.7792C12.2445 75.5877 12.3329 75.399 12.4233 75.2115C12.2179 75.0444 12.0078 74.8841 11.8058 74.7136C11.6385 74.8415 11.4705 74.9686 11.3067 75.1019C11.1598 74.9788 11.0088 74.8611 10.8578 74.744C11.629 74.1892 12.4016 73.6365 13.1782 73.0905C13.3666 73.242 13.5577 73.3915 13.7453 73.5451C13.3734 74.4125 13.0007 75.2792 12.6301 76.1473C12.473 76.0248 12.3179 75.9003 12.1608 75.7792ZM13.9875 77.1168C14.1989 76.3042 14.3805 75.4822 14.6716 74.6926C14.2636 75.3719 13.8018 76.0167 13.3652 76.6777C13.2203 76.5789 13.0755 76.4801 12.9313 76.3814C13.4522 75.6331 13.9766 74.8875 14.5002 74.1419C14.7151 74.2867 14.9307 74.4308 15.1361 74.5891C14.9117 75.3455 14.76 76.1229 14.4893 76.8658C14.9008 76.2372 15.3183 75.6121 15.7427 74.9923C15.8821 75.0979 16.0256 75.1973 16.1698 75.2968C15.6441 76.0444 15.1266 76.7981 14.592 77.5397C14.3968 77.3895 14.1942 77.2501 13.9875 77.1168ZM15.4693 78.0681C15.8583 77.4138 16.2772 76.7772 16.656 76.1182C16.4894 75.9984 16.3078 75.901 16.1337 75.7934C16.2112 75.6655 16.2895 75.5383 16.3683 75.4118C16.8927 75.7305 17.4184 76.0478 17.942 76.3699C17.8624 76.497 17.7835 76.6249 17.6992 76.7494C17.5258 76.6391 17.3503 76.5322 17.1756 76.4247C16.7662 77.0681 16.3758 77.7237 15.9725 78.3712C15.8059 78.2677 15.6393 78.1641 15.4693 78.0681ZM17.8998 79.4517C17.9522 79.2528 18.0046 79.0545 18.0631 78.8583C17.8359 78.7169 17.5952 78.5978 17.3592 78.4706C17.2211 78.6249 17.0831 78.7798 16.941 78.9314C16.7743 78.8407 16.6077 78.7528 16.4411 78.6648C17.0974 77.9801 17.7625 77.3029 18.4323 76.631C18.6445 76.7467 18.8574 76.861 19.0709 76.9754C18.8553 77.8955 18.6459 78.8177 18.4276 79.7379C18.2521 79.6411 18.076 79.5457 17.8998 79.4517ZM19.9529 80.4463C20.0094 79.6134 20.0767 78.7812 20.1787 77.9537C19.9319 78.7014 19.5673 79.4036 19.2613 80.1289C19.1035 80.0552 18.9451 79.9842 18.7866 79.9145C19.1661 79.0836 19.5476 78.2528 19.9414 77.428C20.1706 77.5451 20.4079 77.6452 20.6391 77.7602C20.5575 78.5478 20.5296 79.3407 20.4093 80.1242C20.682 79.4267 21.005 78.7507 21.2988 78.062C21.462 78.1303 21.6218 78.2054 21.7816 78.2812C21.3967 79.106 21.0172 79.9341 20.6303 80.7582C20.4045 80.6533 20.178 80.5518 19.9529 80.4463ZM23.5539 79.8779C23.3818 79.8123 23.2077 79.7521 23.0391 79.6804C23.0499 79.5532 23.0982 79.4307 23.0833 79.3035C23.0254 79.0714 22.6725 78.9916 22.5317 79.1932C22.3365 79.4429 22.2481 79.7555 22.1285 80.045C22.0516 80.2812 21.9224 80.5261 21.9775 80.7805C22.0516 81.0024 22.3189 81.043 22.5168 81.0897C22.5909 80.8942 22.665 80.7 22.7425 80.5065C22.6439 80.472 22.5467 80.4375 22.4488 80.405C22.495 80.2697 22.544 80.1371 22.5902 80.0031C22.8582 80.0883 23.1173 80.1966 23.3811 80.2954C23.2131 80.7298 23.0527 81.1675 22.8704 81.5965C22.4297 81.4868 21.9408 81.4131 21.5946 81.0944C21.3253 80.8251 21.4055 80.405 21.5116 80.0809C21.6653 79.6513 21.7925 79.1865 22.1128 78.8461C22.3168 78.6249 22.6548 78.6161 22.9248 78.7047C23.2016 78.7886 23.4974 78.9456 23.5994 79.2338C23.6803 79.4449 23.6144 79.6702 23.5539 79.8779ZM26.0306 82.3305C25.8035 82.518 25.4886 82.4652 25.2282 82.3874C24.9276 82.3001 24.6277 82.2128 24.3271 82.1296C24.5699 81.2507 24.8358 80.3786 25.0847 79.5018C25.4254 79.6066 25.7722 79.6919 26.1109 79.8028C26.3312 79.8773 26.5638 80.0146 26.6271 80.2541C26.6991 80.6384 26.4645 81.1425 26.0218 81.1452C26.4706 81.3847 26.3509 82.0335 26.0306 82.3305ZM26.5611 82.7439C26.7726 81.8583 26.9895 80.9747 27.2044 80.0904C27.3833 80.133 27.5628 80.1749 27.743 80.2149C27.5329 81.1039 27.3173 81.9916 27.0963 82.8772C26.9181 82.8285 26.7406 82.7839 26.5611 82.7439ZM29.8023 81.9679C29.7261 82.3224 29.6567 82.706 29.4099 82.9882C29.2317 83.1905 28.9399 83.2399 28.6842 83.1945C28.3564 83.1411 28.0327 83.0673 27.7056 83.0119C27.8763 82.1167 28.0545 81.2237 28.2245 80.3285C28.5652 80.3989 28.91 80.4503 29.248 80.5329C29.486 80.589 29.7172 80.7433 29.8002 80.9821C29.9172 81.2994 29.8546 81.6431 29.8023 81.9679ZM29.4153 78.5139C29.4724 78.1682 29.5636 77.8265 29.5942 77.4781C29.4785 76.8834 29.3398 76.2927 29.2133 75.7007C29.4207 75.7386 29.6282 75.7772 29.8369 75.8137C29.9043 76.2102 29.958 76.6087 30.0205 77.0058C30.2361 76.6608 30.4503 76.315 30.6659 75.97C30.8625 76.0065 31.059 76.0424 31.2562 76.0803C30.9019 76.5857 30.5354 77.0843 30.196 77.5999C30.0954 77.9321 30.0661 78.2832 29.9859 78.6229C29.7954 78.585 29.605 78.5498 29.4153 78.5139ZM32.0669 82.6282C32.0294 82.9144 31.9757 83.2236 31.769 83.4428C31.5684 83.6431 31.2617 83.6533 30.9971 83.6221C30.7482 83.591 30.481 83.5078 30.3293 83.296C30.1742 83.0782 30.1586 82.796 30.196 82.5403C30.2708 81.9449 30.3504 81.3502 30.4245 80.7541C30.6136 80.7737 30.8026 80.7994 30.9917 80.8238C30.9209 81.5132 30.7836 82.1979 30.753 82.8908C30.7217 83.1634 31.0821 83.2981 31.2875 83.1736C31.4412 83.0606 31.4568 82.8542 31.4895 82.6837C31.5677 82.0978 31.6445 81.5112 31.7153 80.9239C31.9002 80.9388 32.0852 80.9632 32.2709 80.9835C32.2185 81.5328 32.1328 82.0795 32.0669 82.6282ZM32.2688 78.3725C32.024 78.2792 31.7377 78.3015 31.4786 78.2487C31.4051 78.4422 31.3331 78.6364 31.2644 78.8319C31.0712 78.8143 30.8788 78.7907 30.6877 78.7562C31.0672 77.8901 31.4174 77.0119 31.7989 76.1473C32.0383 76.1811 32.2784 76.2102 32.5184 76.2386C32.6565 77.1723 32.8027 78.1046 32.9366 79.039C32.7367 79.016 32.5368 78.9903 32.3375 78.9639C32.3164 78.7663 32.3021 78.5674 32.2688 78.3725ZM34.3865 83.8576C34.1662 83.8474 33.9459 83.8305 33.7269 83.8143C33.5365 83.3705 33.3753 82.9151 33.1733 82.4774C33.1359 82.9056 33.1087 83.3346 33.0829 83.7642C32.8918 83.7608 32.702 83.7466 32.5123 83.7338C32.5674 82.8251 32.6388 81.9165 32.6959 81.0078C32.887 81.022 33.0788 81.0349 33.2706 81.0484C33.24 81.4388 33.2066 81.8299 33.1951 82.2223C33.4569 81.8441 33.718 81.4666 33.9839 81.0924C34.1818 81.1127 34.3804 81.1242 34.5797 81.1337C34.2845 81.5322 33.9928 81.9334 33.6997 82.3346C33.9248 82.8434 34.158 83.3495 34.3865 83.8576ZM35.0639 78.0836C35.1292 78.4361 35.0142 78.8008 35.1108 79.1526C34.9102 79.1438 34.7096 79.1317 34.5096 79.1276C34.4532 78.8049 34.5518 78.4754 34.4865 78.1574C34.4226 77.9388 34.1574 77.9896 33.9853 77.9591C33.9486 78.3333 33.9438 78.7108 33.9159 79.0863C33.7255 79.0809 33.5351 79.0694 33.3454 79.064C33.3896 78.1553 33.4392 77.2474 33.4909 76.3394C33.8874 76.3604 34.2886 76.3529 34.6796 76.4253C34.8905 76.4619 35.0911 76.6094 35.1142 76.834C35.1672 77.1817 35.1326 77.6987 34.7014 77.7819C34.8524 77.8333 35.036 77.903 35.0639 78.0836ZM37.272 83.4976C37.1721 83.75 36.9034 83.8867 36.645 83.9178C36.3546 83.957 36.018 83.955 35.7834 83.7561C35.5991 83.5856 35.5678 83.3197 35.5651 83.0849C35.7446 83.0193 35.9575 83.0721 36.1492 83.0552C36.1635 83.2196 36.1595 83.4665 36.3716 83.5031C36.6403 83.6059 36.8708 83.2588 36.7069 83.043C36.4288 82.7189 35.967 82.6079 35.712 82.2582C35.4774 81.9151 35.6154 81.3799 36.003 81.2121C36.3199 81.0734 36.7137 81.068 37.017 81.2453C37.2469 81.3867 37.2965 81.6709 37.3081 81.9185C37.1183 81.9219 36.9286 81.9327 36.7389 81.9429C36.7321 81.7663 36.6715 81.5288 36.4519 81.5301C36.1771 81.5186 36.0819 81.8894 36.2696 82.0552C36.5464 82.3089 36.9354 82.4138 37.185 82.7006C37.372 82.9192 37.3666 83.2399 37.272 83.4976ZM37.0116 79.1364C36.9714 78.3786 36.9551 77.6209 36.9211 76.8638C36.7137 76.8631 36.5063 76.8746 36.2995 76.8861C36.2948 76.7345 36.2859 76.5843 36.2778 76.4348C36.8953 76.4192 37.5114 76.382 38.1289 76.3719C38.1309 76.5194 38.1309 76.6669 38.1316 76.8157C37.9269 76.8218 37.7222 76.8333 37.5175 76.834C37.5305 77.5951 37.5794 78.3556 37.5917 79.1175C37.3985 79.1303 37.2047 79.133 37.0116 79.1364ZM39.4482 83.5714C39.2578 83.7771 38.962 83.8278 38.694 83.8359C38.4581 83.8393 38.1962 83.792 38.031 83.6106C37.8494 83.4185 37.7984 83.1472 37.7794 82.8941C37.7365 82.3062 37.6998 81.7176 37.6522 81.1303C37.844 81.1134 38.0357 81.0998 38.2282 81.0897C38.2656 81.6905 38.3098 82.2906 38.354 82.8914C38.3792 83.0599 38.3758 83.2764 38.5403 83.3799C38.7627 83.499 39.1007 83.3671 39.0776 83.0822C39.0878 82.3975 38.9742 81.7155 38.9661 81.0302C39.1524 81.0227 39.3387 81.0098 39.5251 80.9997C39.5502 81.6052 39.6108 82.2094 39.6448 82.815C39.6536 83.0755 39.6291 83.3657 39.4482 83.5714ZM41.453 83.5206C41.349 83.2155 41.3653 82.8847 41.2599 82.5822C41.1674 82.3644 40.8933 82.4679 40.7159 82.4726C40.7669 82.8468 40.8206 83.2216 40.8607 83.5985C40.671 83.6167 40.4833 83.6418 40.2949 83.6681C40.1766 82.7649 40.0535 81.8623 39.9399 80.9578C40.3847 80.926 40.8301 80.79 41.2769 80.8522C41.6713 80.9253 41.721 81.4084 41.706 81.7331C41.7128 81.9266 41.5666 82.0619 41.4218 82.1661C41.5829 82.1864 41.7679 82.2426 41.8182 82.4192C41.9264 82.7514 41.8971 83.1167 42.0454 83.4408C41.8468 83.4625 41.6496 83.4888 41.453 83.5206ZM43.9393 83.0355C43.6666 83.2263 43.311 83.2886 42.9845 83.2473C42.6397 83.1966 42.4289 82.8657 42.365 82.5498C42.2351 81.9293 42.1215 81.3062 41.9991 80.6844C42.1855 80.6479 42.3732 80.6134 42.5602 80.5768C42.7043 81.2554 42.7975 81.9456 42.9798 82.6147C43.0648 82.9875 43.7088 82.861 43.6415 82.4821C43.583 81.7933 43.3885 81.1222 43.2804 80.4395C43.4647 80.4036 43.6483 80.3658 43.8332 80.3306C43.9441 80.9341 44.0719 81.5342 44.1794 82.1384C44.2324 82.4483 44.2175 82.8312 43.9393 83.0355ZM45.9088 82.6262C45.7177 82.6749 45.5266 82.7223 45.3355 82.7703C45.1424 82.0342 44.9628 81.2947 44.767 80.5599C44.5664 80.61 44.3651 80.6587 44.1658 80.7115C44.1277 80.5653 44.091 80.4212 44.0536 80.2758C44.652 80.133 45.2457 79.972 45.8435 79.8285C45.8782 79.9727 45.9136 80.1168 45.9489 80.2629C45.7483 80.3116 45.549 80.361 45.3484 80.4097C45.5218 81.1519 45.7204 81.8874 45.9088 82.6262ZM44.9159 77.9828C44.652 77.1094 44.3895 76.2352 44.1393 75.357C44.6133 75.2251 45.0852 75.085 45.5565 74.9436C45.5973 75.0783 45.6374 75.2115 45.6782 75.3482C45.3906 75.4348 45.1029 75.5187 44.8146 75.6006C44.871 75.811 44.9336 76.0194 44.9968 76.2284C45.2627 76.15 45.5286 76.0722 45.7952 75.9964C45.8333 76.1303 45.8727 76.2657 45.9122 76.401C45.6456 76.4767 45.379 76.5532 45.1145 76.6344C45.1913 76.8861 45.2661 77.1391 45.3396 77.3928C45.6422 77.311 45.9414 77.219 46.2434 77.1337C46.2828 77.2744 46.3236 77.4145 46.3638 77.5573C45.8802 77.6966 45.3967 77.8353 44.9159 77.9828ZM45.8972 74.8692C46.172 74.7684 46.4447 74.6615 46.7194 74.56C47.122 75.1764 47.5688 75.7657 47.934 76.4057C47.7667 75.6967 47.6926 74.97 47.5498 74.2562C47.8259 74.1216 48.121 74.035 48.4012 73.9105C48.7474 74.7549 49.0616 75.6114 49.3921 76.4625C49.2302 76.5241 49.069 76.5864 48.9106 76.6547C48.5923 75.88 48.3162 75.0884 48.0333 74.3002C48.155 75.1473 48.2836 75.993 48.4073 76.8401C48.2387 76.901 48.0714 76.9639 47.9068 77.0349C47.4042 76.3374 46.9384 75.6155 46.446 74.9111C46.7772 75.6757 47.0819 76.4517 47.3947 77.2244C47.2199 77.292 47.0452 77.359 46.8684 77.4192C46.5528 76.5661 46.208 75.7237 45.8972 74.8692ZM48.9718 81.6905C48.6304 81.3461 48.2836 81.0071 47.9428 80.6628C48.0591 81.0836 48.2312 81.4862 48.3516 81.9063C48.172 81.9618 47.9945 82.0207 47.8164 82.0809C47.5233 81.2182 47.2159 80.361 46.937 79.4943C47.1159 79.4341 47.2934 79.3718 47.4729 79.3137C47.5899 79.6912 47.7422 80.0572 47.8449 80.4395C47.9673 79.9957 48.0347 79.539 48.1503 79.0938C48.3278 79.0092 48.5209 78.9625 48.7072 78.9009C48.6005 79.3786 48.4821 79.8543 48.3699 80.3312C48.7202 80.6668 49.0765 80.9956 49.4349 81.3231C49.4784 81.3739 49.5641 81.4104 49.558 81.4909C49.3635 81.5606 49.1656 81.6201 48.9718 81.6905ZM49.864 81.3779C49.4995 80.5417 49.1758 79.6871 48.8276 78.8434C49.2839 78.6574 49.7436 78.4781 50.2006 78.292C50.2551 78.4185 50.3081 78.5471 50.3652 78.6743C50.0898 78.7981 49.8062 78.9023 49.526 79.0146C49.6042 79.2176 49.6858 79.4192 49.7647 79.6222C50.0232 79.5227 50.2795 79.4185 50.538 79.3184C50.5896 79.4436 50.6413 79.5681 50.6964 79.6939C50.4468 79.8184 50.1809 79.907 49.9245 80.016C50.0238 80.2588 50.1238 80.5017 50.2156 80.748C50.5114 80.6411 50.8011 80.5207 51.0922 80.403C51.1487 80.539 51.2031 80.6763 51.2595 80.8136C50.793 80.9977 50.3258 81.1817 49.864 81.3779ZM51.3445 75.2447C51.2541 75.6053 50.8644 75.7372 50.5665 75.8874C50.3564 75.9835 50.151 76.0891 49.9429 76.1878C49.5594 75.3604 49.1357 74.5519 48.7596 73.7217C49.1717 73.5485 49.5512 73.2907 49.9892 73.1852C50.574 73.0559 50.9943 73.9558 50.5373 74.3259C51.0541 74.194 51.422 74.7961 51.3445 75.2447ZM53.3452 78.5282C53.1589 78.746 52.8651 78.8204 52.6237 78.9605C52.7856 79.2893 52.9597 79.6134 53.1127 79.9483C52.9325 80.0315 52.7543 80.1195 52.5775 80.2095C52.1674 79.3955 51.7689 78.5762 51.3581 77.7623C51.7587 77.5789 52.1354 77.3326 52.5625 77.2142C52.8196 77.1425 53.0827 77.2887 53.2045 77.514C53.3908 77.8029 53.5744 78.2129 53.3452 78.5282ZM55.6813 78.5836C55.5378 78.4327 55.3922 78.2853 55.2562 78.129C55.0236 78.2609 54.7734 78.3719 54.5626 78.5363C54.6115 78.7318 54.6754 78.9226 54.7326 79.1168C54.5653 79.2115 54.3987 79.3062 54.2293 79.3969C54.0042 78.4801 53.771 77.5647 53.5486 76.6472C53.7608 76.5268 53.9729 76.4064 54.1851 76.286C54.8529 76.9544 55.5282 77.6154 56.1927 78.288C56.0226 78.3874 55.8513 78.4842 55.6813 78.5836ZM57.6038 77.384C56.9428 76.9003 56.2709 76.4307 55.6411 75.9077C56.1043 76.5187 56.5157 77.1675 56.9679 77.7866C56.8258 77.8928 56.6762 77.9889 56.5245 78.0816C56.0213 77.3225 55.518 76.5634 55.0175 75.8029C55.244 75.6818 55.4426 75.4869 55.6785 75.401C56.2926 75.8414 56.902 76.2914 57.4997 76.7541C57.0917 76.1628 56.6823 75.5728 56.2729 74.9829C56.4191 74.8861 56.5585 74.7772 56.7204 74.7061C57.2298 75.4571 57.7289 76.2163 58.224 76.9767C58.0125 77.1053 57.8071 77.244 57.6038 77.384Z" fill="#8C9295"/>
<path d="M11.7979 72.7115C11.8822 72.4767 11.6129 72.3387 11.4783 72.198C11.3103 72.3895 11.1396 72.5796 10.9648 72.7663C11.0975 72.8841 11.2253 73.039 11.413 73.0633C11.5864 73.0126 11.7143 72.8644 11.7979 72.7115Z" fill="#8C9295"/>
<path d="M52.6162 73.6653C52.3326 73.3791 52.0667 73.0767 51.7783 72.7959C51.8871 73.1829 51.9891 73.5726 52.1109 73.9576C52.2761 73.8548 52.4455 73.7587 52.6162 73.6653Z" fill="#8C9295"/>
<path d="M21.0816 73.2629C20.8089 73.5545 20.5444 73.8543 20.271 74.1459C20.4431 74.2406 20.6165 74.3333 20.7946 74.4165C20.8831 74.0302 21.0027 73.6513 21.0816 73.2629Z" fill="#8C9295"/>
<path d="M59.4331 73.2817C59.5916 73.6491 59.782 74.0023 59.9418 74.3697C60.1023 74.2553 60.2539 74.1281 60.3981 73.9928C60.0724 73.7608 59.7555 73.5179 59.4331 73.2817Z" fill="#8C9295"/>
<path d="M50.0257 73.7047C49.8163 73.6283 49.6252 73.7893 49.4375 73.8576C49.5286 74.0707 49.6306 74.2791 49.7388 74.4848C49.8897 74.3989 50.0686 74.3475 50.1896 74.2162C50.2917 74.0437 50.1862 73.8021 50.0257 73.7047Z" fill="#8C9295"/>
<path d="M12.6067 74.8169C12.774 74.4549 12.9488 74.0963 13.1134 73.7336C12.7842 73.9603 12.4721 74.2106 12.1504 74.4481C12.2986 74.5746 12.4523 74.6957 12.6067 74.8169Z" fill="#8C9295"/>
<path d="M63.17 76.2478C61.0509 78.1118 58.7394 79.7593 56.2803 81.149C56.8889 82.2701 57.503 83.3885 58.1164 84.5075C59.0971 83.6253 59.9846 82.6463 60.8163 81.6253C62.5613 79.4711 63.9942 77.0678 65.0462 74.5056C64.4254 75.0902 63.816 75.689 63.17 76.2478Z" fill="#8C9295"/>
<path d="M6.98193 74.5376C7.53958 75.9415 8.23868 77.2879 9.02823 78.5761C10.3782 80.75 11.9892 82.7777 13.8879 84.503C14.502 83.3866 15.1161 82.2703 15.7221 81.1492C13.6159 79.9584 11.6186 78.5788 9.75726 77.0362C8.79157 76.2493 7.88981 75.3887 6.98193 74.5376Z" fill="#8C9295"/>
<path d="M50.5284 74.7006C50.3101 74.6255 50.1088 74.7811 49.9204 74.867C50.0306 75.0977 50.1435 75.3284 50.257 75.5585C50.4298 75.4692 50.6399 75.4089 50.7487 75.2337C50.8065 75.0355 50.7086 74.8014 50.5284 74.7006Z" fill="#8C9295"/>
<path d="M28.1947 75.9807C28.005 76.3427 27.8091 76.7019 27.6099 77.0592C27.8023 77.1086 27.9955 77.1573 28.1893 77.2019C28.1859 76.7946 28.1784 76.3873 28.1947 75.9807Z" fill="#8C9295"/>
<path d="M41.3708 77.0382C41.4259 76.8792 41.394 76.6965 41.3185 76.5503C41.1947 76.3866 40.9648 76.4827 40.7935 76.4793C40.8186 76.7337 40.8642 76.9861 40.905 77.2391C41.0648 77.1992 41.2804 77.2012 41.3708 77.0382Z" fill="#8C9295"/>
<path d="M31.6362 77.8461C31.8307 77.8684 32.0252 77.8921 32.2204 77.9164C32.1687 77.522 32.134 77.1262 32.0796 76.7324C31.9164 77.0971 31.7852 77.4753 31.6362 77.8461Z" fill="#8C9295"/>
<path d="M34.0336 76.8007C34.0302 77.0483 34.0152 77.2959 33.9976 77.5442C34.1615 77.5354 34.3798 77.5957 34.4967 77.4448C34.5919 77.2952 34.5974 77.099 34.5443 76.9346C34.4267 76.7763 34.207 76.8007 34.0336 76.8007Z" fill="#8C9295"/>
<path d="M54.4349 78.0962C54.609 78.0049 54.7804 77.9102 54.9484 77.81C54.6723 77.5191 54.3982 77.2268 54.1255 76.9338C54.2112 77.3249 54.3383 77.7065 54.4349 78.0962Z" fill="#8C9295"/>
<path d="M17.6733 78.1497C17.8304 78.2586 18.0059 78.3384 18.1786 78.421C18.2759 78.0319 18.3867 77.6463 18.4881 77.2593C18.2167 77.5556 17.927 77.8371 17.6733 78.1497Z" fill="#8C9295"/>
<path d="M52.0762 77.8852C52.1897 78.1145 52.3047 78.3439 52.4216 78.5719C52.5713 78.4894 52.7522 78.4339 52.8508 78.2843C52.8827 78.0834 52.78 77.877 52.6331 77.7451C52.4393 77.6416 52.2516 77.8189 52.0762 77.8852Z" fill="#8C9295"/>
<path d="M25.4955 80.0618C25.435 80.281 25.3717 80.4995 25.3071 80.7187C25.4799 80.7647 25.6533 80.8412 25.8362 80.8222C26.0205 80.7404 26.1103 80.4948 26.0368 80.3128C25.9233 80.1294 25.6784 80.126 25.4955 80.0618Z" fill="#8C9295"/>
<path d="M28.7149 80.8406C28.5898 81.4596 28.4728 82.0808 28.3511 82.7005C28.5877 82.7458 28.923 82.8351 29.0549 82.5605C29.2284 82.1565 29.3086 81.708 29.3174 81.2716C29.327 80.9441 28.9658 80.8758 28.7149 80.8406Z" fill="#8C9295"/>
<path d="M25.1863 81.1274C25.1169 81.371 25.0503 81.6159 24.9707 81.8575C25.174 81.9177 25.41 82.0483 25.6134 81.9177C25.7521 81.7993 25.8045 81.5841 25.7535 81.413C25.6494 81.2039 25.3842 81.189 25.1863 81.1274Z" fill="#8C9295"/>
<path d="M40.5645 81.3C40.5978 81.5557 40.6182 81.8148 40.6814 82.0672C40.8344 82.0178 41.0419 82.028 41.1343 81.871C41.1908 81.6971 41.1792 81.4799 41.0568 81.3365C40.914 81.231 40.7249 81.2993 40.5645 81.3Z" fill="#8C9295"/>
<path d="M36.8445 61.5315C36.816 61.545 36.4358 61.7318 36.2944 61.792C36.2094 61.8326 36.5712 61.6567 36.8445 61.5315Z" fill="#8C9295"/>
<path d="M19.0275 49.1331C19.7647 51.0925 20.9521 52.8651 22.3918 54.3834C24.177 56.2677 26.3171 57.7852 28.564 59.0762C28.9911 59.3265 31.0564 60.1851 31.6236 60.4435C32.5458 60.8955 33.4673 61.3583 34.3473 61.8887C34.5077 61.9848 34.6662 62.0829 34.8233 62.1857C34.8383 62.1952 35.1191 62.3731 35.1443 62.3894C35.5816 62.6729 36.6295 63.4469 36.6295 63.4469C37.177 63.8867 37.6993 64.3616 38.0985 64.9414C39.2083 64.9381 40.3182 64.9442 41.428 64.9381C40.0666 63.9854 35.8747 61.8326 35.7897 61.792C35.6482 61.7317 35.5095 61.6627 35.3707 61.5937C35.3571 61.5869 35.2681 61.545 35.2395 61.5315C35.2103 61.5179 32.9463 60.4956 31.9534 60.0924C31.7535 60.0146 30.7919 59.6154 30.5083 59.5119C30.1377 59.363 29.7534 59.2446 29.4005 59.0559C27.2814 57.907 25.2555 56.5566 23.5085 54.8922C22.0001 53.4538 20.7148 51.7623 19.8613 49.8591C19.0085 47.9951 18.6011 45.9545 18.4971 43.9166C18.4393 42.7008 18.4128 41.4742 18.6018 40.2672C18.933 38.0304 19.7946 35.8998 20.9269 33.9499C22.2163 31.7287 23.8539 29.724 25.6527 27.8925C26.9985 26.5434 28.4287 25.27 29.9833 24.1638C29.5079 24.4419 29.0781 24.789 28.6381 25.1178C26.8652 26.4926 25.21 28.0197 23.7145 29.6895C22.1205 31.4763 20.7005 33.4357 19.6546 35.592C18.6052 37.734 17.9639 40.1021 18.0027 42.4958C17.9592 44.7421 18.2156 47.0235 19.0275 49.1331Z" fill="#8C9295"/>
<path d="M53.0563 49.1331C52.3191 51.0925 51.1317 52.8651 49.692 54.3834C47.9068 56.2677 45.7667 57.7852 43.5198 59.0762C43.0927 59.3265 42.5874 59.4199 42.1821 59.7108C41.5802 59.8853 41.0274 60.1851 40.4602 60.4435C39.538 60.8955 38.6165 61.3583 37.7365 61.8887C37.5761 61.9848 37.4176 62.0829 37.2605 62.1857C37.2455 62.1952 36.9647 62.3731 36.9395 62.3894C36.5022 62.6729 35.4543 63.4469 35.4543 63.4469C34.9068 63.8867 34.3845 64.3616 33.9853 64.9414C32.8755 64.9381 31.7656 64.9442 30.6558 64.9381C32.0172 63.9854 36.2091 61.8326 36.2941 61.792C36.4356 61.7317 36.5743 61.6627 36.7131 61.5937C36.7267 61.5869 36.8157 61.545 36.8443 61.5315C36.8736 61.5179 39.1375 60.4956 40.1304 60.0924C40.3303 60.0146 40.52 59.9131 40.7023 59.8008L40.7152 59.7987C41.0206 59.7683 41.2919 59.6154 41.5755 59.5119C41.9461 59.363 42.3304 59.2446 42.6833 59.0559C44.8024 57.907 46.8283 56.5566 48.5753 54.8922C50.0837 53.4538 51.369 51.7623 52.2225 49.8591C53.0753 47.9951 53.4827 45.9545 53.5867 43.9166C53.6445 42.7008 53.671 41.4742 53.482 40.2672C53.1508 38.0304 52.2892 35.8998 51.1569 33.9499C49.8675 31.7287 48.2299 29.724 46.4311 27.8925C45.0853 26.5434 43.6551 25.27 42.1005 24.1638C42.5759 24.4419 43.0057 24.789 43.4457 25.1178C45.2186 26.4926 46.8738 28.0197 48.3693 29.6895C49.9633 31.4763 51.3833 33.4357 52.4292 35.592C53.4786 37.734 54.1199 40.1021 54.0811 42.4958C54.1246 44.7421 53.8683 47.0235 53.0563 49.1331Z" fill="#8C9295"/>
<path d="M40.807 27.6714C40.7417 27.8548 40.6826 28.0415 40.6044 28.2208C40.3106 28.1112 40.0698 27.896 39.8461 27.6836C39.6237 27.3893 39.2409 27.1017 38.8906 27.049C38.9226 26.8561 38.9239 26.6606 38.8961 26.4678C39.2007 26.5178 39.57 26.7919 39.7618 27.0172C40.0318 27.3379 40.4153 27.5374 40.807 27.6714Z" fill="white"/>
<path d="M41.0988 26.8885C41.0233 27.0718 40.9553 27.3005 40.8655 27.4798C40.5268 27.3702 40.2494 27.1807 39.9916 26.9683C39.7353 26.674 39.2946 26.3188 38.8906 26.266C38.9273 26.0732 38.9287 25.8776 38.8967 25.6848C39.298 25.6848 39.755 25.8952 39.976 26.1205C40.2875 26.4412 40.6472 26.7545 41.0988 26.8885Z" fill="#8C9295"/>
<path d="M32.9107 26.488C33.448 26.5733 33.6758 27.0983 34.1069 27.3473C34.3184 27.4833 34.5565 27.5767 34.7965 27.6578C34.7238 27.85 34.6523 28.0435 34.5782 28.2356C34.1967 28.0577 33.8696 27.7905 33.5908 27.4887C33.4119 27.2898 33.178 27.1335 32.9053 27.0821C32.9243 26.8845 32.923 26.6856 32.9107 26.488Z" fill="white"/>
<path d="M32.9121 25.676C33.6669 25.649 33.9825 26.1794 34.379 26.4879C34.6299 26.6239 34.8611 26.7647 35.1454 26.8465C35.059 27.0387 34.9747 27.2938 34.887 27.4859C34.3769 27.3912 33.9859 27.0407 33.7173 26.739C33.5051 26.54 33.2283 26.3147 32.9053 26.2626C32.9277 26.0651 32.9257 25.8736 32.9121 25.676Z" fill="#8C9295"/>
</svg>
