<svg width="83" height="86" viewBox="0 0 83 86" fill="none" xmlns="http://www.w3.org/2000/svg">
<path d="M62.5347 46.2038C64.8351 46.4846 67.1402 47.4926 68.623 49.3207C68.9708 49.7364 69.2225 50.2211 69.5639 50.6416C70.5113 46.7623 71.5116 42.8942 72.5984 39.0518C68.5813 41.5187 64.5337 43.9407 60.4236 46.2487C61.1241 46.1829 61.8326 46.0834 62.5347 46.2038Z" fill="#8C9295"/>
<path d="M41.2241 25.7829C41.2273 24.5165 41.2273 23.2518 41.2257 21.9838V17.5876H41.2273V17.5812L41.79 17.8492L41.7964 17.8525C41.798 17.8541 41.8412 17.8733 41.9118 17.907C41.9262 17.9135 41.9422 17.9215 41.9583 17.9295C41.9839 17.9391 42.0096 17.952 42.0384 17.9664C42.0737 17.9825 42.1089 18.0001 42.1426 18.0146C42.367 18.1157 42.6668 18.2537 42.9553 18.3789C42.8255 16.5091 42.4424 10.9236 42.1122 5.81798C42.1009 5.65266 42.0913 5.48894 42.0801 5.32523C42.0641 5.08127 42.048 4.84051 42.0336 4.59976C42.0256 4.48099 42.0192 4.36061 42.0112 4.24184C41.9919 3.95293 41.9743 3.66885 41.9567 3.38797C41.9454 3.20499 41.9342 3.02362 41.923 2.84386C41.907 2.58706 41.8909 2.33507 41.8765 2.08789C41.8637 1.89529 41.8525 1.7059 41.8412 1.51972C41.8316 1.34637 41.8204 1.17463 41.8108 1.00771C41.8044 0.890545 41.7964 0.776588 41.79 0.662632C41.7883 0.636951 41.7867 0.612876 41.7851 0.587195C41.7739 0.386567 41.7627 0.190754 41.7515 -0.000244141L40.2238 0.0174111C40.0603 2.73472 39.0584 19.4992 38.5647 26.7957L41.2241 25.7829Z" fill="#8C9295"/>
<path d="M35.607 55.3524L35.6054 56.3138C35.6134 56.3106 35.623 56.3074 35.631 56.3058C35.7224 56.2785 35.8138 56.2512 35.9068 56.2239C35.9148 56.0987 35.9228 55.9719 35.9308 55.8419C35.9388 55.691 35.9484 55.5369 35.9581 55.3813C35.9677 55.2256 35.9773 55.0667 35.9869 54.9062C36.0398 54.0234 36.0975 53.0764 36.16 52.0813C36.1713 51.9 36.1825 51.717 36.1937 51.534C36.7323 42.7914 37.5002 30.8292 37.6829 27.9883L35.6006 28.7812C35.6182 37.62 35.6118 46.6339 35.607 55.3524Z" fill="#8C9295"/>
<path d="M43.8433 19.6631C43.8481 19.7161 43.8513 19.769 43.8545 19.822C43.8833 20.2586 43.9122 20.6967 43.941 21.1365C44.8483 34.7648 45.8582 49.8247 46.0746 52.8004C46.8329 52.5228 47.5366 52.2547 48.2243 51.9594C48.2115 42.899 48.2291 24.1652 48.2307 21.7689L43.8433 19.6631Z" fill="#8C9295"/>
<path d="M55.8721 37.0004C55.8753 33.2013 55.8785 29.277 55.8593 25.4121C53.4227 24.2725 51.1817 23.2036 49.032 22.1587V22.3417L49.0256 51.6189C51.023 50.7779 53.4884 49.6881 55.8833 48.3961C55.8657 44.5937 55.8689 40.7353 55.8721 37.0004Z" fill="#8C9295"/>
<path d="M42.6312 1.3109C42.6328 1.32535 42.6328 1.33819 42.6344 1.35263C42.6425 1.49387 42.6521 1.63833 42.6601 1.78278C42.6665 1.88068 42.6729 1.9802 42.6777 2.08131C42.6857 2.18082 42.6905 2.28194 42.697 2.38306C42.7354 2.99136 42.7755 3.62535 42.8156 4.27378C42.83 4.50169 42.8444 4.72961 42.8589 4.96073C42.8893 5.42298 42.9198 5.89004 42.9502 6.36031C42.9615 6.53205 42.9727 6.70539 42.9855 6.87874C43.0961 8.53994 43.2067 10.1931 43.3189 11.8222C43.4728 14.0869 43.6347 16.427 43.7822 18.7238L43.7838 18.7431L48.2305 20.8794V2.83407L46.6195 3.68634L42.5815 0.468262C42.588 0.564563 42.5928 0.66247 42.5992 0.761981C42.6104 0.941744 42.6216 1.12472 42.6312 1.3109Z" fill="#8C9295"/>
<path d="M39.3148 1.72668L39.3516 1.1264L39.3612 0.959473L37.2902 3.78592L35.615 2.91921C35.6054 10.8208 35.6006 24.8968 35.6006 27.9223L37.7374 27.1037L39.3148 1.72668Z" fill="#8C9295"/>
<path d="M34.8038 56.5448V56.4854C34.8086 48.0013 34.8006 32.3025 34.799 29.0876C33.0325 29.7666 27.4235 31.9157 24.6936 32.9542C24.6856 42.1638 24.6792 50.5163 24.6952 59.0455C27.8612 58.3842 31.1762 57.564 34.8038 56.5448Z" fill="#8C9295"/>
<path d="M42.0254 26.3351L41.7929 26.4234L41.7865 26.4266C40.876 26.8294 39.1528 27.4522 38.5068 27.6817C38.2423 32.0362 37.9425 36.7228 37.6508 41.257C37.4199 44.8571 37.1827 48.5422 36.9615 52.1118C36.9326 52.566 36.9054 53.0106 36.8797 53.4424C36.8637 53.712 36.8461 53.9769 36.8316 54.2353C36.822 54.3942 36.8124 54.5499 36.8028 54.7039C36.7996 54.7553 36.7964 54.8067 36.7932 54.858C36.7691 55.2464 36.7467 55.622 36.7258 55.9831C39.3179 55.2063 42.2995 54.2658 45.2859 53.0973C45.225 52.5002 45.1769 51.8598 45.1368 51.1103C44.8338 46.5039 44.5229 41.875 44.2103 37.2445C43.8272 31.5386 43.4312 25.6465 43.0545 19.8588C43.0481 19.7673 43.0433 19.6791 43.0369 19.5956C43.0289 19.4832 43.0224 19.3789 43.016 19.2794C42.9776 19.2634 42.9375 19.2457 42.8974 19.2297C42.6249 19.1173 42.338 18.9905 42.027 18.8477V21.9839C42.0286 23.3112 42.0302 24.6386 42.0254 25.9675V26.3351Z" fill="#8C9295"/>
<path d="M67.9173 51.6686C68.3148 51.5257 68.7076 51.37 69.0955 51.2015C67.983 48.9721 65.7228 47.5083 63.3391 46.9659C62.0759 46.6593 60.755 46.8005 59.4983 47.0702L59.9039 48.29C62.9399 47.5116 66.3495 48.9561 67.9173 51.6686Z" fill="#8C9295"/>
<path d="M40.1083 60.8864C46.9003 59.6858 53.6473 57.9444 59.9263 55.0393C60.404 54.7873 60.9378 54.6123 61.3658 54.2801C60.5675 52.0234 59.6939 49.7924 58.8651 47.5454C57.9963 47.998 57.1419 48.4811 56.2859 48.9546C53.8092 50.3061 51.2284 51.4569 48.6251 52.5435C47.6729 52.964 46.6951 53.3235 45.7172 53.6798C42.633 54.9012 39.4687 55.9076 36.2915 56.8513C35.9293 56.9557 35.567 57.0648 35.2047 57.1691C31.6011 58.1883 27.9655 59.108 24.2962 59.8592C18.1535 61.1159 11.9675 62.2089 5.7334 62.8927C6.17743 62.9713 6.62467 63.0323 7.07672 63.0339C18.1166 63.318 29.2143 62.7755 40.1083 60.8864Z" fill="#8C9295"/>
<path d="M64.0959 50.1873C62.985 49.6448 61.717 49.5854 60.5132 49.7684L60.9588 50.9112C60.9588 50.9112 61.4862 50.9047 61.7491 50.9208C63.1245 50.9047 64.4598 51.6029 65.2853 52.6943L66.4956 52.2353C65.8688 51.3782 65.0786 50.6158 64.0959 50.1873Z" fill="#8C9295"/>
<path d="M61.6353 52.5884L62.1691 53.9559L63.6695 53.3685C63.1164 52.8565 62.3935 52.5611 61.6353 52.5884Z" fill="#8C9295"/>
<path d="M5.64843 72.2549C4.65777 71.2774 3.09965 71.3047 2.09937 70.3578C1.35717 69.6275 1.62808 68.1669 2.60912 67.7881C3.29201 67.5233 4.18969 67.6324 4.65136 68.2488C4.97997 68.6468 5.06333 69.17 5.0986 69.6708C5.56507 69.6708 6.03315 69.6724 6.49963 69.666C6.54611 68.4012 5.74942 67.1429 4.53754 66.74C3.31605 66.3436 1.80441 66.5394 0.911538 67.5249C-0.0214126 68.5296 0.00102946 70.3257 1.04459 71.2437C1.64892 71.7927 2.41516 72.1153 3.183 72.3624C3.79856 72.5727 4.4606 72.8311 4.83891 73.3929C5.315 74.1761 5.15951 75.4088 4.28106 75.8389C3.46032 76.1952 2.36066 76.054 1.78678 75.3237C1.47419 74.9353 1.44053 74.4185 1.39244 73.945C0.927568 73.945 0.464299 73.9434 0.0010295 73.9466C-0.0182066 74.7844 0.23026 75.6784 0.903523 76.2241C2.25967 77.3974 4.55678 77.4744 5.86964 76.1968C6.86511 75.1231 6.75771 73.2115 5.64843 72.2549Z" fill="#8C9295"/>
<path d="M16.1963 66.7047C15.4044 69.5039 14.5949 72.2982 13.7966 75.0958C12.9727 72.303 12.2032 69.4942 11.3825 66.6999C10.7669 66.6967 10.1498 66.6983 9.53421 66.6983C9.5294 70.1186 9.53581 73.5389 9.53101 76.9592C10.0103 76.9608 10.488 76.9608 10.9673 76.9608C11.0026 74.3141 10.9304 71.669 10.8487 69.024C11.655 71.6739 12.495 74.3141 13.3109 76.9608C13.6331 76.9592 13.9569 76.9592 14.2823 76.9576C15.0967 74.3141 15.9142 71.6723 16.7558 69.0368C16.658 71.6787 16.6083 74.3189 16.6371 76.9608C17.11 76.9592 17.5829 76.9608 18.0558 76.9624C18.0558 73.5421 18.0542 70.1218 18.0574 66.7031C17.437 66.6951 16.8167 66.6951 16.1963 66.7047Z" fill="#8C9295"/>
<path d="M23.7482 66.7C22.703 70.1203 21.6467 73.539 20.5967 76.9593C21.0856 76.9609 21.5729 76.9609 22.0618 76.9657C22.3103 76.1087 22.5652 75.2548 22.7944 74.3929C23.8812 74.3768 24.9697 74.3897 26.0565 74.3849C26.3066 75.2403 26.547 76.1006 26.7939 76.9577C27.2828 76.9609 27.7733 76.9609 28.2623 76.9609C27.2283 73.5374 26.18 70.1187 25.1412 66.6968C24.6763 66.6984 24.2115 66.6984 23.7482 66.7ZM23.1487 73.2164C23.5767 71.7205 23.9999 70.223 24.4375 68.7303C24.8751 70.223 25.2871 71.7237 25.7295 73.2148C24.8687 73.2164 24.0079 73.2164 23.1487 73.2164Z" fill="#8C9295"/>
<path d="M35.6485 71.961C37.1457 71.2676 37.399 69.218 36.6103 67.9051C36.1038 67.0817 35.1051 66.7174 34.1753 66.7142C33.0468 66.7109 31.9183 66.7125 30.7898 66.7158C30.801 70.1313 30.793 73.5451 30.7946 76.9606C31.2723 76.9606 31.75 76.9606 32.2277 76.959C32.2261 75.4904 32.2309 74.0218 32.2245 72.5516C32.9282 72.5645 33.6351 72.5308 34.3389 72.5661C34.956 72.5982 35.4193 73.1375 35.5411 73.7153C35.7575 74.7826 35.3984 75.9543 35.9258 76.959C36.4516 76.9606 36.979 76.9638 37.5064 76.9574C36.6568 75.7553 37.391 74.192 36.7546 72.9288C36.5494 72.4537 36.1054 72.1568 35.6485 71.961ZM34.5761 71.3591C33.8051 71.5212 33.0068 71.4185 32.2229 71.4409C32.2309 70.234 32.2261 69.027 32.2261 67.82C32.9795 67.8312 33.7409 67.7574 34.4895 67.8698C35.2397 68.0206 35.5988 68.828 35.5956 69.5294C35.6581 70.2613 35.3536 71.1456 34.5761 71.3591Z" fill="#8C9295"/>
<path d="M39.3374 66.6968C39.3342 67.0691 39.3342 67.4415 39.3358 67.8155C40.203 67.8123 41.0702 67.8123 41.9391 67.8187C41.9359 70.8666 41.9375 73.9146 41.9375 76.9625C42.42 76.9593 42.9025 76.9593 43.3866 76.9641C43.3834 73.9146 43.3866 70.8666 43.385 67.8187C44.2618 67.8139 45.1387 67.8107 46.0171 67.8171C46.0171 67.4431 46.0171 67.0691 46.0139 66.6968C43.7889 66.6984 41.5623 66.7 39.3374 66.6968Z" fill="#8C9295"/>
<path d="M57.9801 73.842C57.9448 74.4953 57.8903 75.2657 57.3277 75.6958C56.5486 76.2512 55.2822 76.1003 54.7869 75.232C54.1649 74.1951 54.3733 72.9304 54.3348 71.7796C54.3669 70.64 54.1729 69.3784 54.8254 68.3673C55.3463 67.5423 56.5887 67.454 57.3341 68.0094C57.8871 68.4363 57.948 69.189 57.9897 69.8343C58.4514 69.8375 58.913 69.8375 59.3747 69.8375C59.418 68.6803 58.9627 67.3802 57.8342 66.8858C56.5053 66.292 54.7019 66.43 53.7497 67.6306C52.8553 68.6915 52.8857 70.1585 52.9017 71.4682C52.937 72.887 52.7126 74.4439 53.5125 75.7071C54.4951 77.3265 56.9493 77.5641 58.3776 76.4261C59.1439 75.8082 59.3715 74.7842 59.3779 73.8452C58.9114 73.8436 58.445 73.8436 57.9801 73.842Z" fill="#8C9295"/>
<path d="M62.4045 66.6968C62.3965 70.1187 62.4029 73.539 62.4013 76.9609C62.871 76.9609 63.3423 76.9609 63.8136 76.9625C63.812 73.5406 63.812 70.1203 63.812 66.6984C63.3423 66.6984 62.8742 66.6984 62.4045 66.6968Z" fill="#8C9295"/>
<path d="M66.5999 66.6998C66.6031 67.0738 66.6031 67.4477 66.6079 67.8217C67.4751 67.8089 68.3407 67.8105 69.2079 67.8201C69.2031 70.8664 69.2079 73.9144 69.2063 76.9607C69.6872 76.9591 70.1698 76.9607 70.6523 76.9623C70.6539 73.9144 70.6555 70.8664 70.6523 67.8185C71.5307 67.8105 72.4108 67.8137 73.2892 67.8169C73.2876 67.4445 73.2892 67.0738 73.294 66.703C71.0626 66.6918 68.8312 66.6998 66.5999 66.6998Z" fill="#8C9295"/>
<path d="M79.6143 73.2934C80.5761 71.0801 81.6197 68.9005 82.6135 66.7016C82.0781 66.6984 81.5427 66.6968 81.0089 66.6984C80.31 68.3724 79.6015 70.0417 78.901 71.7157C78.2069 70.0417 77.4967 68.374 76.8042 66.6984C76.2624 66.6968 75.7238 66.6984 75.1836 66.7032C76.1406 68.7785 77.0928 70.857 78.0482 72.9355C78.1828 73.1731 78.1588 73.4491 78.1636 73.714C78.1556 74.7957 78.1588 75.8791 78.1604 76.9625C78.6381 76.9593 79.1158 76.9593 79.5935 76.9625C79.6095 75.7395 79.563 74.5149 79.6143 73.2934Z" fill="#8C9295"/>
<path d="M4.03815 81.7278C4.13272 82.7759 4.18883 83.8256 4.19524 84.8785C3.40656 83.7983 2.6259 82.7133 1.8292 81.6395C1.53104 81.6507 1.23288 81.6716 0.934723 81.6973C0.877015 81.7567 0.758392 81.8738 0.700684 81.9316C0.909075 82.0167 1.1351 82.036 1.35792 82.0552C1.37074 83.2301 1.41883 84.4114 1.23449 85.575C1.13029 85.9442 1.64325 85.8623 1.84844 85.9827C1.9863 84.9282 1.89332 83.8641 1.83722 82.8064C2.53933 83.7806 3.23985 84.7565 3.94678 85.7259C4.06059 85.933 4.30745 85.9281 4.51264 85.957C4.6008 84.5173 4.72584 83.0712 4.62966 81.6299C4.43249 81.6604 4.23532 81.6925 4.03815 81.7278Z" fill="#8C9295"/>
<path d="M22.1287 83.0437C21.7472 82.7885 21.8594 82.1416 22.2987 82.0213C22.8244 81.9057 23.2941 82.2251 23.7333 82.4627C23.8343 82.2604 23.9369 82.0566 24.0379 81.8559C23.3855 81.4948 22.5615 81.5205 21.8771 81.7773C21.3192 81.9651 21.0291 82.6536 21.3064 83.1817C21.7729 83.9473 22.8629 83.9168 23.3647 84.6407C23.7285 85.1141 23.1274 85.7546 22.6176 85.5748C22.1528 85.4448 21.7841 85.1109 21.4058 84.8301C21.2952 85.0259 20.9601 85.2008 21.1188 85.4592C21.736 85.9712 22.6481 86.1301 23.4031 85.8685C24.0636 85.655 24.421 84.7691 23.9914 84.1929C23.5426 83.5701 22.709 83.4867 22.1287 83.0437Z" fill="#8C9295"/>
<path d="M14.1734 81.6956C14.3017 82.6474 14.2568 83.612 14.2312 84.5686C14.2071 85.1849 13.6316 85.7178 13.0049 85.6055C12.4342 85.5621 12.0751 85.0004 12.0479 84.4675C12.003 83.5334 12.0479 82.5992 12.0286 81.6651C11.5814 81.6812 10.9193 81.4982 10.6853 82.0054C10.8488 82.0134 11.1774 82.0327 11.3409 82.0407C11.3698 82.9604 11.2832 83.8865 11.389 84.7997C11.6167 85.9377 13.0882 86.2667 14.0083 85.7852C14.5534 85.5124 14.8259 84.888 14.8243 84.3006C14.8307 83.4965 14.8531 82.6891 14.8147 81.8866C14.789 81.5223 14.3963 81.6764 14.1734 81.6956Z" fill="#8C9295"/>
<path d="M32.3034 81.6973C32.1687 81.6989 31.8994 81.7005 31.7648 81.7005C31.1075 83.0551 30.3365 84.4033 30.1008 85.9105C30.3637 85.9008 30.625 85.8703 30.8847 85.8222C30.8639 85.4643 30.8783 85.1079 30.928 84.7548C31.5307 84.7613 32.135 84.7581 32.7394 84.7597C32.9366 85.1561 33.0183 85.6392 33.3469 85.9554C33.807 85.9393 34.2719 85.6456 34.4498 85.2123C34.2831 85.2492 33.9481 85.3246 33.7813 85.3615C33.2812 84.1433 32.8548 82.893 32.3034 81.6973ZM31.0434 84.3343C31.3015 83.7019 31.4906 83.0182 31.9026 82.4645C32.1254 83.0872 32.3499 83.71 32.5727 84.3343C32.0629 84.3375 31.5532 84.3375 31.0434 84.3343Z" fill="#8C9295"/>
<path d="M43.1682 81.7163C43.2836 82.7708 43.3173 83.8302 43.3413 84.8911C42.551 83.7965 41.7656 82.6986 40.9448 81.6265C40.5761 81.6409 40.2026 81.6714 39.8628 81.8255C39.8836 81.8768 39.9253 81.9796 39.9462 82.0309C40.0856 82.0309 40.3645 82.0325 40.504 82.0325C40.4944 83.2283 40.5617 84.4304 40.3693 85.6166C40.3036 85.9376 40.8102 85.8685 40.9865 85.9857C41.1228 84.9296 41.0346 83.8607 40.9769 82.803C41.6598 83.7595 42.3491 84.7129 43.0416 85.6647C43.165 85.9022 43.4038 85.96 43.6571 85.9536C43.7373 84.5235 43.8527 83.0902 43.8126 81.657C43.6523 81.6714 43.3301 81.7019 43.1682 81.7163Z" fill="#8C9295"/>
<path d="M50.1994 81.7037C49.8179 81.6475 49.7666 82.0039 49.8452 82.288C50.3677 82.2013 50.8935 82.1387 51.4225 82.1162C51.4321 83.3553 51.4225 84.5928 51.4289 85.8319C51.6822 85.9249 51.9451 85.9265 52.208 85.8639C52.0894 84.6233 52.1647 83.3746 52.1519 82.1307C52.6584 82.1371 53.1698 82.1868 53.6715 82.0873C53.6812 81.9702 53.702 81.7358 53.7116 81.6187C52.543 81.7326 51.3696 81.6845 50.1994 81.7037Z" fill="#8C9295"/>
<path d="M62.695 85.379C62.2526 84.2346 61.807 83.0918 61.3517 81.9539C61.27 81.6489 60.9237 81.7051 60.6849 81.6826C60.1671 82.7179 59.6413 83.7531 59.263 84.8477C59.1556 85.2008 58.9905 85.57 59.1011 85.9456C59.3704 85.9103 59.6429 85.883 59.9138 85.8541C59.7166 85.509 59.7727 85.1174 59.8673 84.7498C60.4588 84.7627 61.0503 84.7611 61.6434 84.753C61.8278 85.1479 61.948 85.5812 62.2125 85.9343C62.6325 85.968 63.3282 85.6599 63.2753 85.1703C63.0781 85.2361 62.8874 85.31 62.695 85.379ZM59.9587 84.3341C60.1863 83.66 60.4957 83.018 60.781 82.368C61.0151 83.0244 61.2539 83.6809 61.4928 84.3373C60.9798 84.3357 60.4684 84.3373 59.9587 84.3341Z" fill="#8C9295"/>
<path d="M72.3962 85.3759C72.1189 84.9762 71.8496 84.5701 71.5755 84.1705C72.587 83.7917 72.6062 82.0647 71.545 81.7549C70.6618 81.5399 69.724 81.641 68.8456 81.8384C68.8392 81.9122 68.8263 82.0631 68.8215 82.1385C68.9642 82.1305 69.2511 82.1145 69.3954 82.108C69.397 83.3471 69.3922 84.5878 69.3986 85.8301C69.6519 85.8975 69.9116 85.9248 70.1745 85.9457C70.1376 85.3727 70.0863 84.8029 70.1023 84.2299C70.3572 84.2395 70.6153 84.2491 70.8734 84.2588C71.3014 84.8302 71.5114 85.6182 72.1526 85.9954C72.5117 85.8092 72.8339 85.5605 73.0903 85.2459C72.8419 85.0244 72.6127 85.2491 72.3962 85.3759ZM70.12 83.8415C70.0959 83.2412 70.0975 82.6409 70.1152 82.0406C70.5816 82.0759 71.21 81.954 71.5082 82.4162C71.6701 82.7789 71.6813 83.2669 71.4248 83.5927C71.0834 83.941 70.5576 83.8463 70.12 83.8415Z" fill="#8C9295"/>
<path d="M82.3555 85.3695C81.8489 84.1512 81.4257 82.9009 80.8791 81.702C80.7428 81.7004 80.4735 81.6972 80.3389 81.6956C79.6832 83.063 78.8689 84.4193 78.6846 85.9505C78.9394 85.9104 79.1959 85.8654 79.4508 85.8205C79.4316 85.4626 79.4476 85.1062 79.4973 84.7547C80.0984 84.7596 80.7012 84.7596 81.3055 84.7563C81.5043 85.1512 81.5876 85.6327 81.9082 85.9537C82.3619 85.9409 82.8716 85.6535 82.9999 85.1929C82.8396 85.2362 82.5174 85.3245 82.3555 85.3695ZM79.6095 84.3358C79.8452 83.6697 80.1481 83.0325 80.4222 82.3841C80.6899 83.0229 80.9015 83.6858 81.1436 84.3358C80.6322 84.3374 80.1209 84.3374 79.6095 84.3358Z" fill="#8C9295"/>
</svg>
