<svg width="72" height="86" viewBox="0 0 72 86" fill="none" xmlns="http://www.w3.org/2000/svg">
<path d="M48.4348 64.2971H45.7984V62.5931C45.7996 62.5944 45.8008 62.5944 45.8021 62.5956L45.8082 59.0376L46.5838 58.1659V55.5312L45.9195 54.8267L45.9134 54.8194L45.7984 54.7038V49.8094C48.0079 49.7418 49.7892 47.9345 49.7892 45.7301C49.7892 43.4814 47.9173 41.4762 45.6699 41.1664C43.3271 40.8455 41.4626 41.9053 40.7714 44.2928H39.4771L38.5289 43.1863H36.6583L35.9145 44.3887H34.7266L33.9827 43.1863H32.1134L31.1652 44.2928H29.8709C29.1784 41.9053 27.3152 40.8455 24.9723 41.1664C22.7249 41.4762 20.8531 43.4814 20.8531 45.7301C20.8531 47.9357 22.6344 49.7418 24.8439 49.8094V54.8796L23.9581 55.8263V58.2016L24.8732 59.2281L24.8757 61.2961C24.8769 61.2973 24.8794 61.2973 24.8806 61.2985L24.8769 62.2477L24.8781 63.8656L21.4697 63.8472V65.0151L19.8193 66.2151V74.2225H31.1567V70.9989H39.4856V74.2225H50.8229L50.8266 66.2151L48.4348 64.2971ZM48.4336 72.3967H41.3036V69.4682H29.3387V72.3967H22.2074V64.6143H25.6574V59.0376L24.7607 58.1401L24.7631 56.1472L25.6574 55.257V48.9131C23.6205 48.8504 21.9787 47.1845 21.9787 45.151C21.9787 43.0769 23.6841 41.3864 25.7773 41.3864C27.7042 41.3864 29.3032 42.8212 29.5442 44.6678H31.4882L32.3617 43.6474H33.7344L34.4195 44.6678H36.2216L36.9067 43.6474H38.2793L39.1528 44.6678H41.0968C41.3379 42.8212 42.9381 41.3864 44.8649 41.3864C46.957 41.3864 48.6636 43.0769 48.6636 45.151C48.6636 47.1845 47.0206 48.8504 44.9836 48.9131V55.257L45.1622 55.4353L45.8779 56.1472L45.8804 58.1401L44.9836 59.0376V64.6143H48.4336V72.3967Z" fill="#8C9295"/>
<path d="M33.7148 58.4242C33.3882 58.0898 32.352 59.2185 32.314 59.5049C31.5641 59.3746 31.0148 59.4152 30.616 59.6365C30.4532 59.7274 30.3187 59.8442 30.2061 59.9893C30.0189 60.0385 29.8232 60.0717 29.6152 60.0852C29.4831 60.1713 28.9533 60.052 28.6475 60.1873C28.809 60.4098 29.5699 60.3827 29.6384 60.4516C29.7522 60.4442 29.8648 60.4307 29.9737 60.4122C29.9186 60.5536 29.8758 60.7098 29.8415 60.8819C29.5234 61.0011 29.2445 61.0884 28.9839 61.1364C28.8249 61.2679 28.1826 61.1573 27.955 61.2962C28.1593 61.5532 29.0096 61.4511 29.0488 61.4954C29.0634 61.4929 29.0781 61.4905 29.0928 61.488C28.9827 61.6282 28.8995 61.7806 28.842 61.9417C28.7967 62.0683 28.7686 62.2011 28.7564 62.3388C28.7564 62.3388 28.7551 62.34 28.7551 62.3412C28.6145 62.6105 28.4077 62.8023 28.1973 62.94C28.1459 63.1035 27.5232 63.2191 27.4706 63.4563C27.7617 63.5621 28.3429 63.2154 28.3942 63.2461C28.5313 63.1564 28.6671 63.0482 28.7894 62.9154C28.8151 63.0457 28.8506 63.1785 28.8971 63.315C28.541 63.7895 28.4371 64.3526 28.5251 64.821C28.5692 65.0472 28.6573 65.2526 28.7833 65.4173C28.7943 65.4333 28.8078 65.4481 28.82 65.4628C28.5203 66.0406 27.0314 66.9492 26.761 67.0574C27.0779 67.2172 28.1471 66.5853 28.4664 66.316C28.2878 67.0156 26.4808 69.2138 26.405 69.2433C27.0607 69.2544 28.672 66.7636 28.9937 66.0788C29.0084 66.1574 29.0218 66.2324 29.0365 66.3074C29.0757 66.2521 29.0989 66.9664 29.4231 67.248C29.4892 67.0525 29.335 66.6 29.335 66.3751C29.335 66.3037 29.3509 66.2546 29.3925 66.2435C29.3656 66.0935 29.3387 65.9447 29.3045 65.7825C29.5699 65.8599 29.8868 65.8304 30.2367 65.6484C30.2428 65.662 30.2489 65.6767 30.2563 65.6902C30.3456 65.8697 30.4887 66.0013 30.6673 66.0812C30.8374 66.1562 31.0368 66.1833 31.2472 66.1574C31.3267 66.1464 31.4087 66.1292 31.4907 66.1046C31.5274 66.2718 31.58 66.4795 31.6375 66.6627C31.6779 66.7931 31.8516 66.8324 31.9433 66.7328C32.8988 65.7001 33.3649 64.5985 33.4665 63.4686C33.5778 62.2232 33.2426 60.9495 32.6285 59.7041C32.6285 59.7004 32.6272 59.6979 32.626 59.6942C32.7838 59.3131 33.9094 58.6886 33.7148 58.4242ZM33.7148 58.4242C33.3882 58.0898 32.352 59.2185 32.314 59.5049C31.5641 59.3746 31.0148 59.4152 30.616 59.6365C30.4532 59.7274 30.3187 59.8442 30.2061 59.9893C30.0189 60.0385 29.8232 60.0717 29.6152 60.0852C29.4831 60.1713 28.9533 60.052 28.6475 60.1873C28.809 60.4098 29.5699 60.3827 29.6384 60.4516C29.7522 60.4442 29.8648 60.4307 29.9737 60.4122C29.9186 60.5536 29.8758 60.7098 29.8415 60.8819C29.5234 61.0011 29.2445 61.0884 28.9839 61.1364C28.8249 61.2679 28.1826 61.1573 27.955 61.2962C28.1593 61.5532 29.0096 61.4511 29.0488 61.4954C29.0634 61.4929 29.0781 61.4905 29.0928 61.488C28.9827 61.6282 28.8995 61.7806 28.842 61.9417C28.7967 62.0683 28.7686 62.2011 28.7564 62.3388C28.7564 62.3388 28.7551 62.34 28.7551 62.3412C28.6145 62.6105 28.4077 62.8023 28.1973 62.94C28.1459 63.1035 27.5232 63.2191 27.4706 63.4563C27.7617 63.5621 28.3429 63.2154 28.3942 63.2461C28.5313 63.1564 28.6671 63.0482 28.7894 62.9154C28.8151 63.0457 28.8506 63.1785 28.8971 63.315C28.541 63.7895 28.4371 64.3526 28.5251 64.821C28.5692 65.0472 28.6573 65.2526 28.7833 65.4173C28.7943 65.4333 28.8078 65.4481 28.82 65.4628C28.5203 66.0406 27.0314 66.9492 26.761 67.0574C27.0779 67.2172 28.1471 66.5853 28.4664 66.316C28.2878 67.0156 26.4808 69.2138 26.405 69.2433C27.0607 69.2544 28.672 66.7636 28.9937 66.0788C29.0084 66.1574 29.0218 66.2324 29.0365 66.3074C29.0757 66.2521 29.0989 66.9664 29.4231 67.248C29.4892 67.0525 29.335 66.6 29.335 66.3751C29.335 66.3037 29.3509 66.2546 29.3925 66.2435C29.3656 66.0935 29.3387 65.9447 29.3045 65.7825C29.5699 65.8599 29.8868 65.8304 30.2367 65.6484C30.2428 65.662 30.2489 65.6767 30.2563 65.6902C30.3456 65.8697 30.4887 66.0013 30.6673 66.0812C30.8374 66.1562 31.0368 66.1833 31.2472 66.1574C31.3267 66.1464 31.4087 66.1292 31.4907 66.1046C31.5274 66.2718 31.58 66.4795 31.6375 66.6627C31.6779 66.7931 31.8516 66.8324 31.9433 66.7328C32.8988 65.7001 33.3649 64.5985 33.4665 63.4686C33.5778 62.2232 33.2426 60.9495 32.6285 59.7041C32.6285 59.7004 32.6272 59.6979 32.626 59.6942C32.7838 59.3131 33.9094 58.6886 33.7148 58.4242ZM47.6311 45.0085L47.6176 44.8524L47.5956 44.6987L47.5663 44.5487C47.5479 44.4749 47.5283 44.4012 47.5051 44.3286L47.4537 44.186L47.395 44.0459L47.3265 43.9082L47.2494 43.7754L47.165 43.6451C47.1197 43.5811 47.0708 43.5184 47.0218 43.4557C46.9705 43.3943 46.9166 43.334 46.8604 43.275L46.7429 43.1594C46.6891 43.1115 46.6316 43.0672 46.5753 43.023L46.4909 42.9615L46.4052 42.9037L46.3196 42.8496L46.2328 42.7992L46.1434 42.7513L46.0541 42.707L45.9648 42.6664L45.8731 42.6283L45.7813 42.5951L45.6883 42.5632L45.5954 42.5361L45.5012 42.5127L45.407 42.4918L45.3103 42.4746L45.2149 42.4611L45.1182 42.45L45.0204 42.4439L44.9237 42.4402H44.8258L44.728 42.4439L44.6289 42.45L44.531 42.4611L44.4319 42.4746L44.334 42.4918L44.2349 42.5127L44.1371 42.5373L44.038 42.5644L43.9401 42.5963L43.841 42.6308L43.7443 42.6701C43.6893 42.6947 43.6355 42.723 43.5816 42.75L43.4311 42.8349L43.288 42.9271L43.1522 43.0254L43.0225 43.1299L42.9014 43.2418L42.7876 43.3598L42.68 43.4852L42.5833 43.6143L42.494 43.7496L42.4133 43.8897L42.3411 44.0373L42.2762 44.1897L42.2187 44.3483L42.171 44.5131L42.1319 44.6803L41.9716 45.7179H38.6892L37.8157 44.6987H37.445L36.7587 45.7179H33.8824L33.1961 44.6987H32.8254L31.9519 45.7179H28.6683L28.4872 44.5733L28.453 44.4442L28.4163 44.3286L28.3759 44.2155L28.3306 44.1061L28.2829 43.9991L28.2303 43.8959L28.174 43.7951L28.1129 43.6979L28.0505 43.6033L27.9832 43.5135L27.9122 43.4262L27.8388 43.3414L27.763 43.2615L27.6822 43.184L27.599 43.1103L27.5146 43.0402L27.4229 42.9713L27.3287 42.9074L27.2332 42.8472L27.1341 42.7906L27.0326 42.7377L26.9286 42.6886L26.8222 42.6443L26.7133 42.6037L26.6032 42.5681L26.4906 42.5361L26.3768 42.5078L26.2606 42.4857L26.1419 42.466L26.0233 42.4525L25.9022 42.4414L25.781 42.4365C25.7174 42.4365 25.6526 42.4427 25.589 42.4464L25.4067 42.466L25.2293 42.4968L25.0568 42.5361L24.888 42.5853L24.724 42.6443L24.565 42.7144L24.412 42.7931L24.3374 42.8361L24.1943 42.9283L24.056 43.0303L23.9239 43.141L23.7967 43.2615L23.6756 43.3918L23.5593 43.532L23.4504 43.6819L23.3929 43.7668L23.311 43.9168L23.2376 44.0705L23.1752 44.2241L23.1214 44.3803L23.0785 44.5376L23.0443 44.6938L23.021 44.8524L23.0076 45.011L23.0039 45.1696L23.01 45.3282L23.0272 45.488L23.0528 45.6466L23.0895 45.8077L23.136 45.9675L23.1923 46.1273L23.2596 46.2884L23.3061 46.3781L23.4003 46.5404L23.5031 46.6941L23.6132 46.8392L23.7306 46.9744L23.8542 47.0998L23.9839 47.2166L24.1209 47.3236L24.2665 47.4219L24.3411 47.4674L24.4965 47.5522L24.658 47.6285L24.8243 47.6936L24.9968 47.749L25.1742 47.7944L25.3577 47.8289L25.5474 47.8547L26.6815 47.9174V56.3084H25.7859C25.7859 56.7719 25.7847 57.2341 25.7847 57.6964L26.6815 58.5939V65.6644H23.2315V71.3469H28.3147V68.4184H34.8551C34.8551 64.7178 34.8551 61.0184 34.8563 57.319H26.6839V58.2681L26.0172 57.6017V56.5432L26.9139 56.5493V56.5419H43.7272V56.5493L44.624 56.5432V57.6017L44.3634 57.8624L43.967 58.2583V57.319H35.7861C35.7861 61.0184 35.7873 64.7178 35.7897 68.4184H42.3264V71.3469H47.4097V65.6644H43.9597V58.5939L44.356 58.198V58.1968L44.8564 57.6964V56.3084H43.9597V47.9174L45.221 47.8424L45.3543 47.8203L45.4706 47.7944L45.5856 47.7662L45.6993 47.733L45.8095 47.6949L45.9183 47.6543L46.0248 47.6088L46.1275 47.5596L46.2291 47.5068L46.3282 47.4502L46.4236 47.3887L46.5166 47.3248L46.6059 47.2572L46.6928 47.1859L46.7772 47.1109L46.8579 47.0322L46.9325 46.9535L47.0047 46.8711L47.0732 46.7863L47.1393 46.6978L47.2005 46.6068L47.2592 46.5134L47.313 46.415L47.3644 46.3154L47.4109 46.2134L47.4537 46.1076L47.4929 46.0007L47.5283 45.89L47.5589 45.7769L47.5846 45.6601L47.6066 45.5421L47.6274 45.4105C47.6323 45.3306 47.6348 45.2507 47.636 45.1696L47.6311 45.0085ZM26.991 65.9755V58.7414H26.9934V57.63H34.5468L34.5443 68.1073H28.0052V71.0359H23.541V67.4889H25.2207L26.991 65.9755ZM43.6575 57.63V58.4587L43.6501 58.466V62.1494L42.9919 60.1123L41.9936 60.4381L41.0761 59.8541V58.8004H38.5228V59.8541L37.6872 60.5512L36.6889 60.2254L36.098 62.056L36.0956 57.63H43.6575ZM45.429 67.4889H47.1001V71.0359H42.6372V68.1073H36.0993L36.098 62.7297L36.8981 62.9904L37.2994 64.0059L36.6828 64.8591L38.7479 66.3664L39.3645 65.5132L40.4485 65.4431L41.0651 66.2964L42.0462 65.5796C42.4903 66.2607 43.003 67.6352 44.2936 68.8032C44.7084 68.5696 45.6614 68.3299 46.0774 68.4073C44.2447 67.4459 43.6134 66.6492 42.8635 64.9833L43.1302 64.7891L42.5136 63.9358L42.7827 62.8773L43.6501 62.5945V65.9755L45.429 67.4889ZM26.542 47.1355C26.0367 47.4736 24.5478 47.2719 24.0316 46.3744C23.5862 45.5999 23.3929 44.6692 24.0989 43.891C24.5821 43.3586 26.1493 43.3783 26.7842 44.9077C27.0864 45.6355 27.1292 46.7433 26.542 47.1355ZM43.6391 56.2887H27.0008V47.9198H43.6391V56.2887ZM46.6096 46.3744C46.0933 47.2719 44.6044 47.4736 44.1003 47.1355C43.5131 46.7433 43.5547 45.6355 43.8581 44.9077C44.4918 43.3783 46.0603 43.3586 46.5423 43.891C47.2482 44.6692 47.0561 45.5999 46.6096 46.3744ZM28.9937 66.0788C29.0084 66.1574 29.0218 66.2324 29.0365 66.3074C29.0757 66.2521 29.0989 66.9664 29.4231 67.248C29.4892 67.0525 29.335 66.6 29.335 66.3751C29.335 66.3037 29.3509 66.2546 29.3925 66.2435C29.3656 66.0935 29.3387 65.9447 29.3045 65.7825C29.5699 65.8599 29.8868 65.8304 30.2367 65.6484C30.2428 65.662 30.2489 65.6767 30.2563 65.6902C30.3456 65.8697 30.4887 66.0013 30.6673 66.0812C30.8374 66.1562 31.0368 66.1833 31.2472 66.1574C31.3267 66.1464 31.4087 66.1292 31.4907 66.1046C31.5274 66.2718 31.58 66.4795 31.6375 66.6627C31.6779 66.7931 31.8516 66.8324 31.9433 66.7328C32.8988 65.7001 33.3649 64.5985 33.4665 63.4686C33.5778 62.2232 33.2426 60.9495 32.6285 59.7041C32.6285 59.7004 32.6272 59.6979 32.626 59.6942C32.7838 59.3131 33.9094 58.6886 33.7148 58.4242C33.3882 58.0898 32.352 59.2185 32.314 59.5049C31.5641 59.3746 31.0148 59.4152 30.616 59.6365C30.4532 59.7274 30.3187 59.8442 30.2061 59.9893C30.0189 60.0385 29.8232 60.0717 29.6152 60.0852C29.4831 60.1713 28.9533 60.052 28.6475 60.1873C28.809 60.4098 29.5699 60.3827 29.6384 60.4516C29.7522 60.4442 29.8648 60.4307 29.9737 60.4122C29.9186 60.5536 29.8758 60.7098 29.8415 60.8819C29.5234 61.0011 29.2445 61.0884 28.9839 61.1364C28.8249 61.2679 28.1826 61.1573 27.955 61.2962C28.1593 61.5532 29.0096 61.4511 29.0488 61.4954C29.0634 61.4929 29.0781 61.4905 29.0928 61.488C28.9827 61.6282 28.8995 61.7806 28.842 61.9417C28.7967 62.0683 28.7686 62.2011 28.7564 62.3388C28.7564 62.3388 28.7551 62.34 28.7551 62.3412C28.6145 62.6105 28.4077 62.8023 28.1973 62.94C28.1459 63.1035 27.5232 63.2191 27.4706 63.4563C27.7617 63.5621 28.3429 63.2154 28.3942 63.2461C28.5313 63.1564 28.6671 63.0482 28.7894 62.9154C28.8151 63.0457 28.8506 63.1785 28.8971 63.315C28.541 63.7895 28.4371 64.3526 28.5251 64.821C28.5692 65.0472 28.6573 65.2526 28.7833 65.4173C28.7943 65.4333 28.8078 65.4481 28.82 65.4628C28.5203 66.0406 27.0314 66.9492 26.761 67.0574C27.0779 67.2172 28.1471 66.5853 28.4664 66.316C28.2878 67.0156 26.4808 69.2138 26.405 69.2433C27.0607 69.2544 28.672 66.7636 28.9937 66.0788ZM33.7148 58.4242C33.3882 58.0898 32.352 59.2185 32.314 59.5049C31.5641 59.3746 31.0148 59.4152 30.616 59.6365C30.4532 59.7274 30.3187 59.8442 30.2061 59.9893C30.0189 60.0385 29.8232 60.0717 29.6152 60.0852C29.4831 60.1713 28.9533 60.052 28.6475 60.1873C28.809 60.4098 29.5699 60.3827 29.6384 60.4516C29.7522 60.4442 29.8648 60.4307 29.9737 60.4122C29.9186 60.5536 29.8758 60.7098 29.8415 60.8819C29.5234 61.0011 29.2445 61.0884 28.9839 61.1364C28.8249 61.2679 28.1826 61.1573 27.955 61.2962C28.1593 61.5532 29.0096 61.4511 29.0488 61.4954C29.0634 61.4929 29.0781 61.4905 29.0928 61.488C28.9827 61.6282 28.8995 61.7806 28.842 61.9417C28.7967 62.0683 28.7686 62.2011 28.7564 62.3388C28.7564 62.3388 28.7551 62.34 28.7551 62.3412C28.6145 62.6105 28.4077 62.8023 28.1973 62.94C28.1459 63.1035 27.5232 63.2191 27.4706 63.4563C27.7617 63.5621 28.3429 63.2154 28.3942 63.2461C28.5313 63.1564 28.6671 63.0482 28.7894 62.9154C28.8151 63.0457 28.8506 63.1785 28.8971 63.315C28.541 63.7895 28.4371 64.3526 28.5251 64.821C28.5692 65.0472 28.6573 65.2526 28.7833 65.4173C28.7943 65.4333 28.8078 65.4481 28.82 65.4628C28.5203 66.0406 27.0314 66.9492 26.761 67.0574C27.0779 67.2172 28.1471 66.5853 28.4664 66.316C28.2878 67.0156 26.4808 69.2138 26.405 69.2433C27.0607 69.2544 28.672 66.7636 28.9937 66.0788C29.0084 66.1574 29.0218 66.2324 29.0365 66.3074C29.0757 66.2521 29.0989 66.9664 29.4231 67.248C29.4892 67.0525 29.335 66.6 29.335 66.3751C29.335 66.3037 29.3509 66.2546 29.3925 66.2435C29.3656 66.0935 29.3387 65.9447 29.3045 65.7825C29.5699 65.8599 29.8868 65.8304 30.2367 65.6484C30.2428 65.662 30.2489 65.6767 30.2563 65.6902C30.3456 65.8697 30.4887 66.0013 30.6673 66.0812C30.8374 66.1562 31.0368 66.1833 31.2472 66.1574C31.3267 66.1464 31.4087 66.1292 31.4907 66.1046C31.5274 66.2718 31.58 66.4795 31.6375 66.6627C31.6779 66.7931 31.8516 66.8324 31.9433 66.7328C32.8988 65.7001 33.3649 64.5985 33.4665 63.4686C33.5778 62.2232 33.2426 60.9495 32.6285 59.7041C32.6285 59.7004 32.6272 59.6979 32.626 59.6942C32.7838 59.3131 33.9094 58.6886 33.7148 58.4242ZM33.7148 58.4242C33.3882 58.0898 32.352 59.2185 32.314 59.5049C31.5641 59.3746 31.0148 59.4152 30.616 59.6365C30.4532 59.7274 30.3187 59.8442 30.2061 59.9893C30.0189 60.0385 29.8232 60.0717 29.6152 60.0852C29.4831 60.1713 28.9533 60.052 28.6475 60.1873C28.809 60.4098 29.5699 60.3827 29.6384 60.4516C29.7522 60.4442 29.8648 60.4307 29.9737 60.4122C29.9186 60.5536 29.8758 60.7098 29.8415 60.8819C29.5234 61.0011 29.2445 61.0884 28.9839 61.1364C28.8249 61.2679 28.1826 61.1573 27.955 61.2962C28.1593 61.5532 29.0096 61.4511 29.0488 61.4954C29.0634 61.4929 29.0781 61.4905 29.0928 61.488C28.9827 61.6282 28.8995 61.7806 28.842 61.9417C28.7967 62.0683 28.7686 62.2011 28.7564 62.3388C28.7564 62.3388 28.7551 62.34 28.7551 62.3412C28.6145 62.6105 28.4077 62.8023 28.1973 62.94C28.1459 63.1035 27.5232 63.2191 27.4706 63.4563C27.7617 63.5621 28.3429 63.2154 28.3942 63.2461C28.5313 63.1564 28.6671 63.0482 28.7894 62.9154C28.8151 63.0457 28.8506 63.1785 28.8971 63.315C28.541 63.7895 28.4371 64.3526 28.5251 64.821C28.5692 65.0472 28.6573 65.2526 28.7833 65.4173C28.7943 65.4333 28.8078 65.4481 28.82 65.4628C28.5203 66.0406 27.0314 66.9492 26.761 67.0574C27.0779 67.2172 28.1471 66.5853 28.4664 66.316C28.2878 67.0156 26.4808 69.2138 26.405 69.2433C27.0607 69.2544 28.672 66.7636 28.9937 66.0788C29.0084 66.1574 29.0218 66.2324 29.0365 66.3074C29.0757 66.2521 29.0989 66.9664 29.4231 67.248C29.4892 67.0525 29.335 66.6 29.335 66.3751C29.335 66.3037 29.3509 66.2546 29.3925 66.2435C29.3656 66.0935 29.3387 65.9447 29.3045 65.7825C29.5699 65.8599 29.8868 65.8304 30.2367 65.6484C30.2428 65.662 30.2489 65.6767 30.2563 65.6902C30.3456 65.8697 30.4887 66.0013 30.6673 66.0812C30.8374 66.1562 31.0368 66.1833 31.2472 66.1574C31.3267 66.1464 31.4087 66.1292 31.4907 66.1046C31.5274 66.2718 31.58 66.4795 31.6375 66.6627C31.6779 66.7931 31.8516 66.8324 31.9433 66.7328C32.8988 65.7001 33.3649 64.5985 33.4665 63.4686C33.5778 62.2232 33.2426 60.9495 32.6285 59.7041C32.6285 59.7004 32.6272 59.6979 32.626 59.6942C32.7838 59.3131 33.9094 58.6886 33.7148 58.4242Z" fill="#8C9295"/>
<path fill-rule="evenodd" clip-rule="evenodd" d="M38.7134 31.8892H53.2475V32.2777H38.7134V31.8892ZM17.6941 31.8892H32.2294V32.2777H17.6941V31.8892ZM49.5993 37.9294H47.6137L49.2984 39.9519H52.0119L50.2404 37.9294H49.5993ZM46.5518 37.9294H44.1625L45.8092 39.9519H48.7943L47.1097 37.9294H46.5518ZM43.2939 37.9294H40.6305L41.9677 39.9519H45.3088L43.6621 37.9294H43.2939ZM41.2826 35.714H39.0915L40.4054 37.5409H42.5501L41.2826 35.714ZM44.2017 35.714H41.7548L43.0235 37.5409H45.7236L44.2017 35.714ZM47.2492 35.714H44.7057L46.2276 37.5409H48.7711L47.2492 35.714ZM51.2754 35.714H47.7532L49.2751 37.5409H52.8573L51.2754 35.714ZM51.925 33.5649L51.9837 33.6313L53.5142 35.3906L53.7944 35.7127H51.7905L53.4298 37.6061L53.7088 37.9282H50.7554L52.5857 40.0158L52.8683 40.3391H41.7622L41.7047 40.2518L40.1106 37.8409L39.9112 37.5397H39.9307L38.5581 35.6328L38.3366 35.3242H40.3186L39.1808 33.8796L38.9324 33.5637H51.925V33.5649ZM41.4343 33.9546H39.7325L40.8116 35.3255H42.5757L41.4343 33.9546ZM44.806 33.9546H41.9383L43.0798 35.3255H45.9475L44.806 33.9546ZM48.3722 33.9546H45.3101L46.4515 35.3255H49.5137L48.3722 33.9546ZM51.7513 33.9546H48.8763L50.0177 35.3255H52.9417L51.7513 33.9546ZM23.3291 37.9294H20.7037L18.9322 39.9519H21.6457L23.3291 37.9294ZM26.7803 37.9294H23.8331L22.1485 39.9519H25.1336L26.7803 37.9294ZM30.3123 37.9294H27.2807L25.634 39.9519H28.9751L30.3123 37.9294ZM28.3659 35.3242H30.13L31.2091 33.9534H29.5073L28.3659 35.3242ZM24.9942 35.3242H27.8618L29.0033 33.9534H26.1356L24.9942 35.3242ZM21.4279 35.3242H24.4901L25.6315 33.9534H22.5694L21.4279 35.3242ZM19.1915 33.9546L17.9999 35.3255H20.9239L22.0653 33.9546H19.1915ZM23.1884 35.714H19.6662L18.0843 37.5409H21.6677L23.1884 35.714ZM26.2359 35.714H23.6924L22.1705 37.5409H24.714L26.2359 35.714ZM29.1868 35.714H26.7412L25.2193 37.5409H27.9193L29.1868 35.714ZM30.3184 35.714H29.659L28.3903 37.5409H30.5362L31.8501 35.714H30.3184ZM19.0166 33.5649H32.0104L31.762 33.8809L30.6255 35.3255H32.6074L32.386 35.6328L31.0133 37.5409H31.0341L30.8347 37.8421L29.2406 40.2531L29.1831 40.3404H18.0758L18.3584 40.017L20.1874 37.9294H17.2353L17.5142 37.6073L19.1536 35.714H17.1484L17.4286 35.3918L18.9591 33.6325L19.0166 33.5649Z" fill="#8C9295"/>
<path fill-rule="evenodd" clip-rule="evenodd" d="M42.7752 60.539L41.9482 60.8095L40.7395 60.0128V59.1387H38.8603V60.0128L37.7324 60.9226L36.9053 60.6521L36.3242 62.4471L37.1525 62.7176L37.6639 64.0761L37.1537 64.7843L38.6732 65.8932L39.1845 65.1863L40.6282 65.1162L41.1396 65.8232L41.9176 65.2552C41.5139 64.306 41.0246 63.7208 40.2 63.4393L39.8268 63.8143L38.705 62.6869L39.8268 61.5607L40.9475 62.6869L40.6832 62.9536C41.2546 63.1147 41.684 63.2905 42.1758 63.9065L42.5293 62.6045L43.3551 62.3352L42.7752 60.539Z" fill="#8C9295"/>
<path fill-rule="evenodd" clip-rule="evenodd" d="M39.8549 60.8561C40.7957 60.8561 41.5652 61.6282 41.5652 62.5737C41.5652 62.811 41.5175 63.036 41.4307 63.2413C41.5028 63.2818 41.5738 63.3273 41.6448 63.3802C41.7561 63.1343 41.8172 62.8601 41.8172 62.5737C41.8172 62.5651 41.8172 62.5577 41.8172 62.5491L42.9673 62.1335L42.5574 60.866L41.3536 61.3012C41.1236 61.027 40.8202 60.818 40.4752 60.7025V59.4558H39.1502V60.7344C38.8113 60.866 38.5189 61.0897 38.3012 61.3737L37.0973 61.0025L36.6875 62.2688L37.895 62.6413C37.9085 63.0335 38.0369 63.3974 38.2473 63.6999L37.5525 64.7055L38.6254 65.4887L39.3288 64.4707C39.4964 64.5187 39.6738 64.5433 39.8561 64.5433C40.069 64.5433 40.2758 64.5076 40.4678 64.4449L41.2068 65.4678L41.816 65.024C41.5836 64.5322 41.3181 64.1498 40.9792 63.8671C40.6783 64.1302 40.2855 64.2912 39.8561 64.2912C38.9141 64.2912 38.1458 63.5191 38.1458 62.5725C38.1446 61.6282 38.9129 60.8561 39.8549 60.8561Z" fill="#8C9295"/>
<path fill-rule="evenodd" clip-rule="evenodd" d="M39.0415 62.6868L39.8257 61.8987L40.6099 62.6868L40.2869 63.0113C41.5214 63.3089 42.1551 64.0895 42.6126 65.0571C43.2072 66.3148 43.8422 67.5922 45.3127 68.2254C44.9285 68.2488 44.9383 68.3299 44.5542 68.4885C43.2586 67.6217 42.7117 66.4169 42.226 65.346C41.7697 64.3404 41.3807 63.4466 40.0777 63.2228L39.8245 63.4773L39.0415 62.6868Z" fill="#8C9295"/>
<path fill-rule="evenodd" clip-rule="evenodd" d="M31.4416 65.7358C31.4502 65.571 31.4857 65.4837 31.5542 65.4862C31.6203 65.2219 31.6949 65.0276 31.761 64.8776C31.6631 64.9145 31.564 64.9379 31.4637 64.9477C31.2349 64.971 31.0086 64.9219 30.7834 64.7768C30.655 64.8948 30.5828 64.992 30.5473 65.078C30.5094 65.1678 30.5118 65.2501 30.5253 65.33C30.5253 65.3325 30.5265 65.3362 30.5265 65.3387C30.529 65.3509 30.5314 65.3645 30.5326 65.3768C30.5424 65.4321 30.5596 65.4813 30.5804 65.5255C30.6305 65.6251 30.7113 65.6989 30.8128 65.7444C30.9229 65.7935 31.0575 65.8108 31.2031 65.7923C31.2814 65.7837 31.3609 65.7653 31.4416 65.7358ZM32.035 59.8307C31.4832 59.757 31.0783 59.7975 30.7908 59.9561C30.6905 60.0115 30.6036 60.084 30.529 60.1713C30.5326 60.2561 30.4874 60.2856 30.4311 60.3053C30.3234 60.4774 30.2476 60.695 30.1962 60.9581C30.2011 60.9778 30.2011 61.0024 30.1925 61.0319C30.1938 61.0405 30.1938 61.0503 30.1938 61.0577C30.1999 61.0676 30.2072 61.0774 30.2158 61.0885C30.321 61.2225 30.5326 61.3934 30.8397 61.3663C30.9804 61.1266 31.1309 60.9446 31.2924 60.8217C31.4282 60.7184 31.5713 60.6569 31.7206 60.636C31.7291 60.4307 31.7707 60.2598 31.849 60.1037C31.898 60.0053 31.9604 59.9156 32.035 59.8307ZM29.9026 61.2753C29.5246 61.4966 29.2921 61.7597 29.1845 62.0622C29.067 62.3941 29.0964 62.7814 29.2456 63.2129C29.8059 63.4428 30.2133 63.1564 30.5999 62.8835C30.6036 62.881 30.6073 62.8785 30.6134 62.8748C30.4531 62.3093 30.5424 62.0056 30.666 61.7278C30.3137 61.6921 30.0641 61.4831 29.932 61.3122C29.9209 61.3012 29.9112 61.2876 29.9026 61.2753ZM29.16 63.5719C28.8921 63.9494 28.8138 64.3883 28.8835 64.7522V64.7534C28.9153 64.9231 28.9801 65.0743 29.0707 65.1936C29.1563 65.3055 29.2676 65.3891 29.3998 65.4284C29.6004 65.4899 29.8561 65.453 30.1558 65.2747C30.1509 65.1714 30.1632 65.0608 30.2158 64.9366C30.2696 64.8088 30.3663 64.6711 30.5326 64.5162C30.3932 64.2912 30.3296 64.033 30.3381 63.7699C30.3418 63.6678 30.3565 63.567 30.3797 63.465C30.0384 63.6568 29.6542 63.7625 29.16 63.5719ZM31.827 65.9386C31.8429 66.0222 31.8662 66.1267 31.8943 66.2374C32.6418 65.3436 33.0149 64.4006 33.1006 63.4379C33.2021 62.3093 32.911 61.1487 32.369 60.0065C32.2833 60.0914 32.2185 60.175 32.1732 60.266C32.1084 60.3963 32.079 60.55 32.0815 60.7491C32.0839 60.7676 32.0852 60.7885 32.0827 60.8131C32.0962 61.0565 32.1402 61.3307 32.1891 61.6343C32.243 61.9675 32.3017 62.3351 32.3335 62.7162C32.3678 62.7691 32.3629 62.8097 32.3421 62.8453C32.3555 63.1048 32.3384 63.3679 32.32 63.6383C32.3041 63.8941 32.287 64.1572 32.2956 64.4215C32.3286 64.4866 32.3176 64.5297 32.2919 64.5629C32.276 64.6502 32.2344 64.7338 32.1794 64.8432C32.0839 65.0337 31.9383 65.3264 31.8405 65.871C31.8392 65.8931 31.8344 65.9165 31.827 65.9386ZM31.9335 64.3809C31.9261 64.1166 31.9432 63.8621 31.9591 63.6137C31.9689 63.4527 31.9799 63.2953 31.9824 63.1416C31.8662 63.2006 31.7365 63.24 31.5982 63.2584C31.3866 63.2843 31.1505 63.2584 30.8948 63.1711C30.7724 63.3666 30.7064 63.5769 30.7003 63.7822C30.6929 64.0108 30.759 64.2309 30.9009 64.4129C30.9021 64.4141 30.9033 64.4153 30.9033 64.4166C31.082 64.5555 31.2557 64.6034 31.4282 64.5862C31.5921 64.569 31.761 64.4952 31.9335 64.3809ZM31.9689 62.715C31.9371 62.3376 31.8821 61.9995 31.8331 61.6909C31.7928 61.4425 31.7561 61.2126 31.7353 61.0036C31.6594 61.0208 31.586 61.0565 31.5126 61.1118C31.3756 61.2151 31.2447 61.3835 31.1174 61.6147C31.0942 61.6675 31.0709 61.7179 31.0477 61.7671V61.7683C30.929 62.0228 30.8128 62.27 30.9743 62.8121C31.1908 62.8908 31.3854 62.9166 31.5542 62.8957C31.7145 62.8761 31.8539 62.8134 31.9689 62.715Z" fill="#8C9295"/>
<path fill-rule="evenodd" clip-rule="evenodd" d="M35.3649 -0.000244141L36.5198 3.59342L40.2781 3.58605L37.233 5.80028L38.4014 9.39026L35.3649 7.16496L32.3284 9.39026L33.4967 5.80028L30.4517 3.58728L34.21 3.59465L35.3649 -0.000244141ZM36.784 3.22705L36.5295 2.43283L38.3585 1.09273L37.6649 3.22459L36.784 3.22705ZM37.9438 6.80842L37.6612 5.94044L38.3341 5.45112L40.2059 6.81211L37.9438 6.80842ZM34.6553 8.13868L35.3649 7.61863L36.0744 8.13868L35.3649 10.3492L34.6553 8.13868ZM32.3957 5.45112L33.0685 5.94044L32.7859 6.80842L30.5226 6.81211L32.3957 5.45112ZM34.2014 2.43406L33.9457 3.22828L33.0661 3.22705L32.3724 1.09396L34.2014 2.43406Z" fill="#8C9295"/>
<path fill-rule="evenodd" clip-rule="evenodd" d="M35.4558 34.9822C35.3102 32.6721 35.5512 31.9664 35.884 30.9976C36.1372 30.2575 36.4468 29.3575 36.667 27.3978C37.056 23.9443 36.2143 20.0678 35.5011 16.7815C35.4485 16.5356 35.3958 16.2934 35.3445 16.0549C35.3237 17.2795 35.2185 18.1302 35.1328 18.8261C34.9995 19.9105 34.9138 20.6088 35.287 21.794C36.3782 25.2524 35.7971 26.2089 35.2576 27.0966C34.9395 27.6191 34.6373 28.117 34.7817 29.2014C34.8013 29.3538 34.8465 29.5506 34.8979 29.7755C35.1157 30.732 35.4411 32.1693 34.6569 33.4848C34.5309 33.6962 34.6606 33.9261 34.7976 34.1684C34.9395 34.4204 35.0875 34.6823 35.068 34.9921L35.4558 34.9822ZM34.953 16.141C34.8575 16.7127 34.7597 17.25 34.6655 17.7737C33.9742 21.6046 33.4139 24.7213 34.1712 35.0167L34.674 35.0031C34.6973 34.7806 34.5762 34.5667 34.4599 34.3601C34.2666 34.0184 34.0819 33.6913 34.3241 33.2868C35.03 32.1053 34.7242 30.7579 34.5199 29.8616C34.4673 29.6292 34.4208 29.4251 34.3975 29.253C34.2361 28.0322 34.5725 27.4789 34.9273 26.8962C35.4228 26.0811 35.9562 25.2032 34.9175 21.912C34.5187 20.6469 34.608 19.9166 34.7474 18.7806C34.8294 18.1118 34.9297 17.3004 34.953 16.141Z" fill="#8C9295"/>
<path fill-rule="evenodd" clip-rule="evenodd" d="M35.8494 36.9224C36.0525 36.9015 36.2702 36.7011 36.3987 36.4466C36.4574 36.3311 36.4941 36.2069 36.5015 36.084C36.5076 35.9696 36.4868 35.8577 36.4305 35.7594C36.3228 35.5737 36.0843 35.4237 35.6524 35.3672L34.9269 35.3856C34.8976 35.4016 34.8572 35.4053 34.7985 35.3893L34.0167 35.409C33.7965 35.4729 33.6338 35.6082 33.5298 35.7729C33.4454 35.9081 33.4013 36.0655 33.3964 36.2229C33.3915 36.379 33.427 36.5339 33.5041 36.6667C33.591 36.8155 33.7317 36.9384 33.9274 37.006L35.8567 36.9212L35.8494 36.9224Z" fill="#8C9295"/>
<path fill-rule="evenodd" clip-rule="evenodd" d="M39.9016 43.2541C40.1413 42.7205 40.271 42.1119 40.1046 41.523C39.948 40.9686 39.526 40.4215 38.6806 39.958C38.4298 39.8203 38.0762 39.7883 37.7129 39.7576C36.6705 39.6654 35.5682 39.5682 35.6637 37.3208L34.0769 37.3909C33.9179 38.6203 34.0267 39.4563 34.2788 40.0784C34.5381 40.7202 34.9578 41.1468 35.3884 41.5501C35.8129 41.9472 36.4381 41.9189 37.084 41.8882C38.1301 41.8378 39.2262 41.7874 39.9016 43.2541Z" fill="#8C9295"/>
<path fill-rule="evenodd" clip-rule="evenodd" d="M30.0005 53.4721C30.1522 53.5115 30.3112 53.5496 30.4776 53.5852C30.6868 53.6295 30.9058 53.6713 31.1309 53.7082L31.405 53.0811L31.6154 52.5992L32.451 50.6837L30.6171 52.7726L30.3063 53.1266L30.0005 53.4721ZM31.3695 53.745C31.5787 53.7758 31.7928 53.8028 32.013 53.8274C32.2405 53.852 32.4852 53.8754 32.7446 53.895V50.594L31.8246 52.7037L31.6142 53.1856L31.3695 53.745ZM29.7607 53.3836L30.1363 52.9557L30.447 52.6017L31.9751 50.862L29.5246 52.7295L29.1551 53.0111L29.7607 53.3836ZM32.977 53.2385C33.4468 53.0922 33.9558 53.0123 34.4892 53.0172C34.9394 53.0209 35.4079 53.0873 35.8875 53.2238C35.5009 52.5648 35.1535 51.9181 34.8941 51.3021C34.6335 50.6837 34.4647 50.0948 34.4366 49.5539L32.977 50.6604V53.2385ZM32.977 49.3559C33.3123 49.1568 33.6475 48.9564 33.9827 48.7572C33.8665 48.7523 33.749 48.7412 33.6303 48.7228C33.4126 48.6883 33.196 48.6256 32.977 48.5199V49.3559ZM36.8149 48.6306C36.8149 48.901 36.8149 49.1715 36.8149 49.4408C37.1476 49.2871 37.4792 49.1346 37.8119 48.9809C37.6713 48.9723 37.5342 48.9551 37.4033 48.9232C37.1843 48.8703 36.9849 48.7805 36.8149 48.6306ZM36.8149 53.1156C37.418 52.8094 37.9881 52.5931 38.5423 52.475C39.0256 52.3705 39.4954 52.341 39.9651 52.3877C39.6128 52.0115 39.3302 51.5947 39.1185 51.1362C38.8775 50.6149 38.7283 50.042 38.6696 49.4174C38.0419 49.7481 37.9588 49.7912 37.7863 49.8821C37.1122 50.2374 36.9666 50.3137 36.8161 50.3936V53.1156H36.8149ZM32.977 50.3567L34.4463 49.2428C34.4574 49.2318 34.4708 49.2231 34.4843 49.2145C34.4892 49.2121 34.4928 49.2084 34.4965 49.2059L34.9859 48.8973C35.036 48.8654 35.0862 48.8346 35.1437 48.9416C35.2024 49.0486 35.1523 49.0805 35.1021 49.1113L34.6629 49.3879C34.6604 49.935 34.8305 50.5485 35.1045 51.2001C35.3945 51.8898 35.8007 52.6213 36.2472 53.3688C36.3023 53.461 36.2117 53.5877 36.1139 53.5545C35.556 53.3602 35.0079 53.2705 34.4867 53.2656C33.9509 53.2606 33.4419 53.3442 32.9758 53.4967V53.911C33.5068 53.9467 34.0708 53.9676 34.6666 53.975C35.2685 53.9811 35.9071 53.9737 36.5824 53.9516V53.3172C36.5824 53.316 36.5824 53.3147 36.5824 53.3135V50.3161V50.3149C36.5824 50.3137 36.5824 50.3137 36.5824 50.3137V49.635C36.5824 49.6338 36.5824 49.6326 36.5824 49.6301C36.5824 49.6239 36.5824 49.6166 36.5824 49.6104C36.5824 49.603 36.5824 49.5969 36.5824 49.5895C36.5824 49.5834 36.5824 49.576 36.5824 49.5686C36.5824 49.5625 36.5824 49.5551 36.5824 49.5477C36.5824 49.5403 36.5824 49.5342 36.5824 49.5281C36.5824 49.5219 36.5824 49.5145 36.5824 49.5071C36.5824 49.501 36.5824 49.4936 36.5824 49.4875C36.5824 49.4801 36.5824 49.474 36.5824 49.4666C36.5824 49.4604 36.5824 49.4531 36.5824 49.4457C36.5824 49.4395 36.5824 49.4322 36.5824 49.426C36.5824 49.4186 36.5824 49.4125 36.5824 49.4051C36.5824 49.399 36.5824 49.3916 36.5824 49.3842C36.5824 49.3781 36.5824 49.3707 36.5824 49.3645C36.5824 49.3572 36.5824 49.351 36.5824 49.3436C36.5824 49.3375 36.5824 49.3301 36.5824 49.3227C36.5824 49.3166 36.5824 49.3092 36.5824 49.3018C36.5824 49.2945 36.5824 49.2883 36.5824 49.2822C36.5824 49.276 36.5824 49.2686 36.5824 49.2613C36.5824 49.2551 36.5824 49.2477 36.5824 49.2416C36.5824 49.2342 36.5824 49.2281 36.5824 49.2207C36.5824 49.2133 36.5824 49.2072 36.5824 49.1998C36.5824 49.1936 36.5824 49.1863 36.5824 49.1801C36.5824 49.1727 36.5824 49.1666 36.5824 49.1592C36.5824 49.1531 36.5824 49.1457 36.5824 49.1383C36.5824 49.1322 36.5824 49.1248 36.5824 49.1174C36.5824 49.11 36.5824 49.1039 36.5824 49.0977C36.5824 49.0916 36.5824 49.0842 36.5824 49.0768C36.5824 49.0707 36.5824 49.0633 36.5824 49.0559C36.5824 49.0486 36.5824 49.0424 36.5824 49.0363C36.5824 49.0301 36.5824 49.0227 36.5824 49.0154C36.5824 49.0092 36.5824 49.0018 36.5824 48.9945C36.5824 48.9871 36.5824 48.9809 36.5824 48.9736C36.5824 48.9674 36.5824 48.96 36.5824 48.9539C36.5824 48.9478 36.5824 48.9404 36.5824 48.933C36.5824 48.9256 36.5824 48.9195 36.5824 48.9133C36.5824 48.906 36.5824 48.8998 36.5824 48.8924C36.5824 48.885 36.5824 48.8789 36.5824 48.8715C36.5824 48.8642 36.5824 48.858 36.5824 48.8519C36.5824 48.8445 36.5824 48.8383 36.5824 48.831C36.5824 48.8248 36.5824 48.8174 36.5824 48.8101C36.5824 48.8027 36.5824 48.7965 36.5824 48.7892C36.5824 48.783 36.5824 48.7756 36.5824 48.7695C36.5824 48.7633 36.5824 48.756 36.5824 48.7486C36.5824 48.7412 36.5824 48.7351 36.5824 48.7277C36.5824 48.7215 36.5824 48.7142 36.5824 48.708C36.5824 48.7019 36.5824 48.6945 36.5824 48.6871C36.5824 48.6797 36.5824 48.6736 36.5824 48.6662C36.5824 48.6588 36.5824 48.6527 36.5824 48.6453C36.5824 48.6392 36.5824 48.6318 36.5824 48.6256C36.5824 48.6183 36.5824 48.6121 36.5824 48.6047C36.5824 48.5986 36.5824 48.5912 36.5824 48.5851C36.5824 48.5789 36.5824 48.5715 36.5824 48.5642C36.5824 48.5568 36.5824 48.5506 36.5824 48.5433C36.5824 48.5359 36.5824 48.5297 36.5824 48.5236C36.5824 48.5162 36.5824 48.5101 36.5824 48.5027C36.5824 48.4953 36.5824 48.4892 36.5824 48.4818C36.5824 48.4744 36.5824 48.4683 36.5824 48.4609C36.5824 48.4547 36.5824 48.4474 36.5824 48.4412C36.5824 48.4338 36.5824 48.4277 36.5824 48.4203C36.5824 48.4142 36.5824 48.4068 36.5824 48.3994C36.5824 48.3933 36.5824 48.3859 36.5824 48.3797C36.5824 48.3724 36.5824 48.3662 36.5824 48.3588C36.5824 48.3515 36.5824 48.3453 36.5824 48.3379C36.5824 48.3318 36.5824 48.3244 36.5824 48.317C36.5824 48.3158 36.5824 48.3146 36.5824 48.3146C36.5824 48.3134 36.5824 48.3121 36.5824 48.3121C36.5824 48.3121 36.5824 48.3121 36.5824 48.3109C36.5824 48.2507 36.5861 48.1929 36.6986 48.1929C36.7867 48.1929 36.8075 48.2285 36.8124 48.2728C36.9764 48.4978 37.199 48.6195 37.4535 48.681C37.7312 48.7474 38.0517 48.7449 38.3857 48.724C38.4983 48.7166 38.5411 48.9146 38.4383 48.9625C37.8976 49.2121 37.3568 49.4617 36.8149 49.7112V50.1157C37.5342 49.7358 37.6125 49.6953 37.6835 49.6571C38.5484 49.201 38.6402 49.1531 38.7173 49.1125L39.2348 48.7732C39.2849 48.7412 39.3339 48.708 39.3938 48.815C39.4538 48.9207 39.4048 48.9539 39.3547 48.9859L38.891 49.2895C38.9387 49.9264 39.0843 50.5042 39.3241 51.0255C39.5749 51.5665 39.9284 52.0484 40.3872 52.4689C40.4692 52.5439 40.3982 52.7062 40.2918 52.6853C39.729 52.5783 39.1663 52.5918 38.5851 52.7172C38.0187 52.8389 37.4339 53.0664 36.8124 53.3897V53.943C36.8467 53.9418 36.8809 53.9405 36.9152 53.9393C36.9751 53.9368 37.04 53.9344 37.1073 53.9307L38.0811 53.2041C38.0897 53.1979 38.1374 53.182 38.1472 53.182H40.764C40.8472 53.182 40.9059 53.2815 40.868 53.3615L40.4753 54.2024C40.4606 54.2331 40.4031 54.2712 40.3713 54.2712H39.1516L37.8609 55.5376C37.9416 55.5536 38.0224 55.5622 38.1056 55.5646C38.4836 55.572 38.7381 55.4269 38.9938 55.2806C39.2666 55.1245 39.5418 54.9659 39.9602 54.9573C40.2796 54.9499 40.5512 54.9745 40.8215 55.0261C41.0907 55.0778 41.3525 55.1564 41.6534 55.2585C41.7085 55.2769 41.7648 55.2966 41.7293 55.4146C41.695 55.5339 41.6388 55.5142 41.5837 55.4958C41.2889 55.395 41.0344 55.3187 40.7812 55.2708C40.5291 55.2216 40.271 55.1995 39.9651 55.2069C39.5993 55.2155 39.3498 55.3581 39.1026 55.4995C38.8188 55.6618 38.5374 55.8228 38.1019 55.8142C37.9428 55.8105 37.7924 55.7847 37.6468 55.7429C37.3507 55.9753 37.0216 55.7466 36.6705 55.5019C36.4356 55.3384 36.1885 55.1663 35.9646 55.1601C35.4875 55.1466 35.0103 55.2794 34.5332 55.4122C34.0708 55.5413 33.6071 55.6704 33.1349 55.674C33.13 55.674 33.1238 55.674 33.1177 55.674C33.1177 55.674 33.1177 55.674 33.1165 55.674C33.1116 55.674 33.1055 55.674 33.1006 55.674C33.1006 55.674 33.0994 55.674 33.0982 55.674C33.0933 55.674 33.0884 55.674 33.0835 55.674C32.7165 55.6642 32.3164 55.513 31.9163 55.363C31.5371 55.2204 31.1566 55.0765 30.83 55.0679C30.4299 55.1048 30.1497 55.1933 29.8855 55.2745C29.5185 55.3888 29.182 55.4933 28.6376 55.4564C28.5801 55.4527 28.5214 55.4491 28.5287 55.3237C28.5348 55.1995 28.5936 55.2032 28.6511 55.2069C29.16 55.2413 29.4769 55.1429 29.8206 55.036C30.0506 54.9647 30.2917 54.8897 30.6012 54.8442L29.6995 53.6369L28.9251 53.1623C28.9043 53.1623 28.8823 53.1512 28.8566 53.1205L28.0235 52.6103C27.9733 52.5795 27.9231 52.5488 27.9794 52.4406C28.0369 52.3324 28.0871 52.3632 28.1385 52.3939L28.9276 52.8771L29.3839 52.5291L32.7397 49.9719V48.3195C32.7397 48.258 32.7397 48.1953 32.8559 48.1953C32.9183 48.1953 32.9464 48.2125 32.9599 48.2396C33.1924 48.3699 33.4248 48.4412 33.6585 48.4781C33.9105 48.5174 34.1674 48.5174 34.4231 48.5076C34.532 48.5027 34.5797 48.6834 34.4843 48.7412C33.9802 49.0412 33.4762 49.3424 32.9721 49.6424V49.9793C32.9893 50.0063 32.9832 50.0358 32.9721 50.0641V50.3567H32.977Z" fill="#8C9295"/>
<path fill-rule="evenodd" clip-rule="evenodd" d="M24.8207 6.63501C24.4782 6.87844 24.1393 7.03704 23.7625 7.21408C23.8763 7.15998 24.1283 7.04073 23.6414 7.2694C22.4889 7.81159 21.7696 8.5259 21.3707 9.31766C20.9352 10.1832 20.8814 11.1483 21.0661 12.0802C21.783 11.8331 22.3984 11.4987 22.9012 11.12C23.5068 10.6651 23.9484 10.1475 24.2054 9.64592C24.5234 9.02382 24.5809 8.41279 24.636 7.82019C24.6751 7.4194 24.7118 7.02597 24.8207 6.63501ZM19.8598 9.2402C19.8439 9.25004 19.8292 9.25988 19.8133 9.26971C19.5919 9.41356 19.4182 9.52789 19.1197 9.69633C17.8216 10.4328 17.0252 11.2983 16.6484 12.2044C16.2606 13.1351 16.3144 14.1174 16.7157 15.0506C16.9873 14.9215 17.2564 14.7469 17.5219 14.5305C17.8583 14.2551 18.1899 13.9133 18.5165 13.5101C19.3399 12.4933 19.4169 11.4089 19.4573 10.8471C19.4695 10.6737 19.4793 10.5459 19.5087 10.4537C19.5956 10.1869 19.6518 9.96927 19.702 9.7787C19.7534 9.57953 19.7999 9.40618 19.8598 9.2402ZM22.3189 14.1752C22.2137 14.2244 22.1048 14.2711 21.9898 14.3141C21.5885 14.4641 21.1273 14.5674 20.5364 14.6117C19.1453 14.7137 18.1434 15.1833 17.4118 15.894C16.7426 16.5443 16.2948 17.4013 15.9816 18.3651C16.3144 18.3283 16.6263 18.3197 16.931 18.3135C18.2143 18.284 19.3753 18.257 21.241 15.7759L21.2362 15.7809C21.4625 15.4563 21.69 15.1133 21.9359 14.7444C22.0607 14.56 22.1892 14.3682 22.3189 14.1752ZM15.102 12.6863C14.8989 12.8597 14.7007 13.022 14.5135 13.1769C14.3031 13.3502 14.1049 13.5138 13.9165 13.6785C12.7004 14.7432 12.1193 15.6764 11.9419 16.6378C11.7755 17.5451 11.9664 18.4979 12.3224 19.6192C12.6527 19.4335 13.0026 19.1692 13.3293 18.8434C13.6767 18.4979 13.9972 18.0811 14.2407 17.6115V17.6127C14.9197 16.2948 14.938 15.171 14.9478 14.5994C14.9491 14.5145 14.9503 14.4408 14.9527 14.3867V14.3793C14.9723 14.142 14.9833 13.9404 14.9931 13.7498C15.0163 13.3576 15.0347 13.0146 15.102 12.6863ZM9.72021 18.1119C9.59175 18.2988 9.47064 18.4672 9.35319 18.6295C9.19904 18.8446 9.05223 19.0487 8.89319 19.2885C7.97685 20.6777 7.62329 21.901 7.6918 22.9854C7.75542 24.0071 8.19584 24.9156 8.89196 25.732C9.17335 25.4947 9.42048 25.1554 9.63213 24.7533C9.90739 24.2284 10.1178 23.6001 10.2548 22.951V22.9522C10.5521 21.5125 10.3197 20.7085 10.1496 20.1245C10.1239 20.036 10.0995 19.9511 10.0811 19.8823L10.0787 19.8737C10.0297 19.6487 9.98202 19.4532 9.93675 19.27C9.83276 18.8434 9.74346 18.4783 9.72021 18.1119ZM17.6161 20.304C17.4913 20.3777 17.3616 20.4466 17.2234 20.5093C16.8245 20.6925 16.3596 20.8314 15.7479 20.947C15.0359 21.0835 14.4132 21.3023 13.8725 21.5924C13.3342 21.8814 12.8742 22.2416 12.4839 22.6645L12.4876 22.6608C12.1156 23.0838 11.8453 23.5817 11.6361 24.1288C11.4599 24.5886 11.3265 25.0853 11.2115 25.6029C11.5945 25.4947 11.9639 25.4246 12.3273 25.3558C13.7783 25.0804 15.1277 24.8234 16.6887 22.1236C16.8637 21.7978 17.057 21.4154 17.265 21.0011C17.3751 20.7773 17.4925 20.5437 17.6161 20.304ZM6.0035 25.1222C5.89828 25.4037 5.78451 25.684 5.67562 25.9533C5.49211 26.4094 5.32206 26.8299 5.23764 27.1348V27.1336C4.77642 28.829 4.8119 30.1223 5.21929 31.1624C5.59977 32.1349 6.30813 32.896 7.23792 33.5697C7.49973 32.971 7.71627 32.4706 7.85574 31.9739C8.00866 31.428 8.06739 30.8748 7.98909 30.1752C7.82148 28.7392 7.27217 27.9819 6.83175 27.377C6.75222 27.2676 6.67637 27.1643 6.60664 27.0598L6.60174 27.0536C6.19802 26.4045 6.06589 25.7492 6.0035 25.1222ZM14.4988 26.7733C14.3924 26.8864 14.2786 26.9934 14.1538 27.0979C13.8223 27.3733 13.4161 27.6241 12.8705 27.9192C12.2539 28.2548 11.7229 28.647 11.2752 29.0896C10.8164 29.542 10.4432 30.0473 10.1508 30.5994L10.1545 30.5908C9.9025 31.1243 9.80096 31.7034 9.77526 32.3194C9.75324 32.8369 9.78627 33.3865 9.83032 33.9557C10.1863 33.6963 10.546 33.4763 10.9008 33.2599V33.2586C12.26 32.4288 13.5531 31.6382 14.1771 28.7441V28.749C14.2468 28.3753 14.3092 27.972 14.3777 27.5368C14.4157 27.2921 14.456 27.0377 14.4988 26.7733ZM3.34381 32.7865C3.34136 32.8849 3.33892 32.9796 3.33769 33.0718C3.32913 33.5328 3.32056 33.9348 3.30711 34.3651V34.375C3.15418 36.1761 3.53833 37.4953 4.28461 38.4789C4.99296 39.4145 6.03408 40.0575 7.25137 40.5271C7.34802 39.9788 7.34313 39.4268 7.26116 38.86C7.16696 38.2096 6.97244 37.5359 6.71185 36.8179V36.8191C6.23839 35.5331 5.47866 34.9073 4.82536 34.3688V34.3676C4.69567 34.2606 4.56966 34.1574 4.45099 34.0529L4.4461 34.048C4.02035 33.6472 3.73041 33.3496 3.50652 33.0386C3.4478 32.9562 3.39397 32.8726 3.34381 32.7865ZM12.9806 33.8057C12.917 33.9594 12.8423 34.107 12.7543 34.2557C12.534 34.627 12.2368 34.9959 11.8428 35.4716V35.4704C11.4012 36.0089 11.0439 36.5855 10.7748 37.1916C10.5044 37.799 10.3234 38.4371 10.2328 39.0961L10.234 39.0825C10.1521 40.205 10.6745 41.2586 11.2519 42.4205C11.2629 42.4426 11.2739 42.4647 11.285 42.4869C11.5235 42.0578 11.7841 41.6631 12.0422 41.2722C12.9843 39.8497 13.8933 38.4752 13.4137 35.7089L13.4149 35.7151C13.3403 35.3549 13.2485 34.9639 13.1482 34.5373C13.0968 34.3049 13.0393 34.0627 12.9806 33.8057ZM14.1208 41.0226C14.018 41.5119 13.7819 41.9533 13.4626 42.5533C13.4161 42.6393 13.3684 42.7303 13.2816 42.895C12.9586 43.5073 12.7176 44.1626 12.5671 44.8413C12.419 45.5101 12.3579 46.2059 12.3897 46.9141C12.5267 48.0022 13.2289 48.8775 14.0168 49.8574C14.0951 49.9545 14.1746 50.0529 14.2554 50.1549C14.3912 49.6263 14.5625 49.1222 14.7325 48.6206C15.3136 46.9055 15.8825 45.2285 14.9148 42.7537L14.9185 42.7623C14.7631 42.4131 14.5943 42.0467 14.4083 41.6447C14.3166 41.4492 14.2211 41.2427 14.1208 41.0226ZM3.64966 40.9095C3.67046 41.0152 3.69126 41.1123 3.70961 41.2082C3.80259 41.6668 3.88578 42.0762 3.95551 42.4352L3.95674 42.4401C4.24424 44.1454 4.97339 45.3933 5.93254 46.2859C7.02749 47.3051 8.42585 47.8669 9.81074 48.1214C9.73244 47.8743 9.65292 47.605 9.56973 47.3235C9.27244 46.3166 8.92499 45.1363 8.41483 44.2831L8.41851 44.2905C7.77255 43.3044 6.87456 42.9553 6.05855 42.6381C5.75148 42.5188 5.45419 42.4033 5.18259 42.2619L5.1777 42.2594C4.63083 41.9557 4.22956 41.6078 3.90413 41.2279C3.8136 41.1234 3.72918 41.0177 3.64966 40.9095ZM5.45174 48.5382C5.55084 48.7251 5.64993 48.907 5.74536 49.0828C5.9668 49.4898 6.17233 49.866 6.32892 50.2201C7.0801 51.9056 7.901 52.9753 9.04856 53.5433C10.157 54.0928 11.5859 54.1863 13.5629 53.9269C13.2767 53.2113 13.0381 52.7331 12.7396 52.304C12.408 51.8294 11.9982 51.4102 11.3584 50.7967C10.5228 50 9.41558 49.8426 8.4026 49.7C8.01478 49.6459 7.64042 49.5918 7.2893 49.5058H7.28563C6.65435 49.3386 6.16254 49.0792 5.74047 48.7681C5.64137 48.6943 5.54472 48.6181 5.45174 48.5382ZM17.046 47.5682C17.0533 48.0132 16.9371 48.4398 16.7891 48.9796C16.7328 49.1837 16.6728 49.4049 16.6178 49.6263V49.6275C16.4477 50.2938 16.3682 51.0069 16.3841 51.7397C16.4 52.4527 16.5065 53.183 16.7095 53.9059C17.0998 54.935 17.988 55.5866 18.9973 56.328C19.1551 56.4435 19.3166 56.5616 19.4867 56.6906C19.4634 56.0833 19.483 55.4833 19.5026 54.887C19.5674 52.9826 19.6298 51.1028 18.2058 49.0398C17.8302 48.5628 17.5304 48.1829 17.4595 48.0931C17.331 47.9284 17.194 47.755 17.046 47.5682ZM9.67984 55.6542C9.84622 55.8743 9.99303 56.0673 10.1276 56.2456C10.3955 56.5984 10.6378 56.9181 10.8996 57.2623L10.9106 57.2783C11.9725 59.0327 13.355 59.795 14.8634 60.0507C16.2973 60.2941 17.8559 60.0839 19.3631 59.8257C18.8566 59.1188 18.437 58.5569 18.0284 58.0713C17.5843 57.5402 17.161 57.1062 16.6667 56.6759C15.9792 56.2788 15.1607 56.0501 14.3349 55.9198C13.4981 55.7882 12.6478 55.7575 11.9211 55.7587C11.6667 55.7575 11.433 55.7612 11.2164 55.7661C10.6133 55.7772 10.1411 55.787 9.67984 55.6542ZM21.3034 51.8675C21.4184 52.2978 21.4086 52.7392 21.3964 53.2998C21.3927 53.5051 21.3866 53.7277 21.3879 53.9687V53.9699C21.3854 54.6608 21.5114 55.4969 21.7365 56.3267C21.9531 57.1283 22.2626 57.9213 22.6357 58.5729C23.1361 59.2983 24.1161 60.3458 24.877 60.8413L24.8721 59.227L23.957 58.2004V55.8251L24.6066 55.1428C24.1258 54.2797 23.6365 53.5789 22.7899 53.0121L22.7874 53.0097C22.4926 52.7822 22.2002 52.556 21.8332 52.2745C21.668 52.1478 21.4943 52.0138 21.3034 51.8675ZM15.1754 62.2096C15.3381 62.3608 15.4922 62.5047 15.6464 62.6485H15.6476C16.0146 62.9903 16.3266 63.278 16.6215 63.5485C18.377 65.1591 19.7362 65.3029 21.4698 65.0152V63.8472L24.4525 63.8534C24.0879 63.5362 23.2609 62.828 22.9452 62.6018C22.369 62.1924 21.8699 61.9785 21.3658 61.8691C20.1424 61.6047 19.368 61.7756 18.3208 62.008C18.0455 62.0682 17.7519 62.1334 17.4008 62.201C16.7132 62.3326 16.1859 62.3645 15.7015 62.3092C15.5216 62.2859 15.3479 62.2539 15.1754 62.2096Z" fill="#8C9295"/>
<path fill-rule="evenodd" clip-rule="evenodd" d="M52.6482 57.8268C52.483 57.7961 52.3117 57.7641 52.1551 57.7309C52.0671 57.7113 51.9937 57.6129 52.0047 57.5281C52.0866 56.9404 52.2787 56.397 52.5601 55.9113C52.8146 55.4724 53.14 55.0815 53.5217 54.7434C53.0421 54.4471 52.4047 54.2344 51.7844 54.1827C51.1899 54.1336 50.6173 54.2344 50.2307 54.5577C50.1341 54.6376 49.9677 54.5983 49.9224 54.484C49.6325 53.761 49.2459 53.3037 48.748 53.0246C48.3051 52.7763 47.7668 52.6619 47.1257 52.6226C47.5062 53.8631 47.1539 54.9278 46.5837 55.5314L46.5911 57.9805C46.5556 58.2916 46.2131 58.6333 45.8081 59.0378L45.8313 62.1803C46.5911 62.7003 47.4291 63.1343 48.2329 63.5216C48.8042 63.797 49.4098 63.7269 50.0986 63.6482C51.0749 63.5364 52.2065 63.4073 53.6844 64.1154C53.6477 63.6618 53.6049 63.2143 53.5205 62.8024C53.4177 62.3032 53.2538 61.852 52.9663 61.5016C52.9173 61.4426 52.9173 61.3381 52.965 61.2791C53.3259 60.8316 53.6844 60.4308 54.0942 60.0632C54.4564 59.7398 54.8577 59.446 55.3336 59.1731C54.3034 58.1379 53.5449 57.9953 52.6482 57.8268ZM63.6466 51.4571C63.3616 51.1472 62.9334 50.9346 62.3547 50.9014C62.2629 50.8952 62.1712 50.8042 62.1724 50.7182C62.1736 50.1993 62.2287 49.7912 62.3412 49.3818C62.4367 49.0387 62.5725 48.697 62.756 48.2888C61.398 48.1388 60.7545 48.3453 59.8687 48.6281C59.8455 48.6355 59.8369 48.6379 59.6277 48.7043C59.5494 48.7289 59.4259 48.6761 59.3916 48.606C59.2901 48.3982 59.1751 48.2003 59.0588 48.0011C58.731 47.4368 58.3982 46.8639 58.3639 46.1077C57.8856 46.1422 57.3864 46.3278 56.9741 46.6143C56.5386 46.9167 56.2046 47.3298 56.1055 47.7896C56.0798 47.9089 55.922 47.974 55.8131 47.9089C55.1867 47.5351 54.646 47.4048 54.1273 47.4577C53.6734 47.5044 53.2269 47.6937 52.7509 47.9876C53.2134 48.3208 53.5021 48.6662 53.6709 49.0203C53.8263 49.3424 53.8789 49.6682 53.8753 49.9891C54.0539 49.9412 54.2337 49.9018 54.4136 49.8895C54.7023 49.8674 54.9849 49.9141 55.2504 50.0936C56.267 50.7809 56.9876 50.9235 58.1021 51.1448C58.1278 51.1497 58.1817 51.1608 58.4202 51.2099C59.3781 51.403 59.3121 52.0349 59.2375 52.7664C59.1959 53.1537 59.153 53.5754 59.2986 53.9356C59.4907 54.4127 59.8406 54.7753 60.1464 55.0925C60.1464 55.0925 60.1464 55.0925 60.1464 55.0938C60.1501 55.0962 60.1526 55.0999 60.1562 55.1036C60.1636 55.1011 60.1721 55.0987 60.1783 55.0975C60.7533 54.9438 61.1068 54.3979 61.4567 53.8557C62.0342 52.9631 62.6055 52.0792 64.0907 52.5476C64.0626 52.1382 63.917 51.7521 63.6466 51.4571ZM67.5884 40.9871C67.2703 40.7732 66.8495 40.6748 66.3357 40.7609C66.2488 40.7757 66.1338 40.7043 66.1142 40.6232C65.9968 40.1658 65.9515 39.7945 65.9589 39.4097C65.9637 39.0901 66.0053 38.768 66.0714 38.3819C64.8615 38.5258 64.3452 38.8356 63.6368 39.2597H63.6356C63.5732 39.2979 63.5084 39.336 63.4423 39.3753C63.375 39.4159 63.238 39.3937 63.1878 39.3335C63.0557 39.1749 62.9077 39.0225 62.7584 38.8688C62.3437 38.4409 61.9216 38.0069 61.7161 37.3516C61.3124 37.4783 60.9245 37.7401 60.6334 38.0684C60.3214 38.42 60.122 38.8479 60.1391 39.2683C60.1452 39.3925 60.0082 39.4884 59.8846 39.4491C59.2534 39.2474 58.7493 39.2413 58.3089 39.3925C57.9284 39.5228 57.5846 39.7724 57.2396 40.1142C57.8721 40.3798 58.2453 40.7277 58.4655 41.1162C58.6673 41.474 58.7346 41.86 58.7542 42.2436C58.8056 42.2313 58.8606 42.2202 58.9169 42.2104C59.2839 42.1526 59.6387 42.3346 60.0547 42.5473C60.4009 42.7255 60.7949 42.9272 61.2487 43.0059C61.5974 43.0649 62.028 42.9296 62.4367 42.8005C63.1829 42.5657 63.8693 42.3493 64.2057 43.1067C64.3892 43.5222 64.5446 43.8566 64.722 44.1591C64.8761 44.421 65.0486 44.6607 65.275 44.9115C65.3129 44.8931 65.3423 44.8783 65.3631 44.8672C65.828 44.6189 66.0139 44.0693 66.1974 43.5235C66.5033 42.6198 66.8055 41.7248 68.2124 41.8256C68.0937 41.4826 67.8833 41.1851 67.5884 40.9871ZM67.7989 31.0692C67.4392 30.9462 67.0134 30.9585 66.5559 31.1663C66.4788 31.202 66.3442 31.1614 66.3026 31.0901C66.0628 30.6856 65.916 30.3463 65.8145 29.9811C65.7301 29.6811 65.6787 29.3676 65.6334 28.9877C64.5348 29.4254 64.1335 29.8446 63.5854 30.42C63.5365 30.4717 63.4863 30.5245 63.435 30.5786C63.3811 30.634 63.2429 30.6475 63.1781 30.6032C63.0031 30.484 62.8245 30.3782 62.6434 30.2725C62.132 29.9725 61.6096 29.6676 61.2316 29.1008C60.8891 29.3209 60.5979 29.6627 60.4156 30.045C60.2198 30.4557 60.1513 30.9081 60.2859 31.2991C60.3263 31.4171 60.2223 31.5437 60.0914 31.5376C59.4393 31.5056 58.9622 31.6249 58.5903 31.8769C58.271 32.0933 58.0177 32.4117 57.7889 32.8199C58.5291 32.922 59.0001 33.201 59.3194 33.5637C59.5653 33.8428 59.7146 34.1649 59.8271 34.492C59.8467 34.4661 59.8687 34.4403 59.8908 34.4145C60.0241 34.262 60.1893 34.1489 60.407 34.1034C60.9331 33.9953 61.3124 33.8735 61.6647 33.7113C62.0207 33.5477 62.351 33.34 62.7707 33.0646C63.4117 32.6441 63.8473 33.0855 64.3207 33.5637C64.5752 33.8207 64.8443 34.0936 65.1441 34.1895C65.538 34.3174 65.9454 34.3309 66.3026 34.342C66.6268 34.3518 66.9156 34.3604 67.1505 34.4465C67.1786 34.2424 67.1872 34.0248 67.1945 33.8072C67.23 32.8765 67.2642 31.9556 68.6185 31.6974C68.4118 31.4073 68.1316 31.1811 67.7989 31.0692ZM65.1575 24.499C64.8272 23.7589 64.5006 23.0249 65.4377 22.3586C65.1795 22.2184 64.8908 22.1459 64.607 22.1692C64.2852 22.195 63.9635 22.3463 63.6919 22.6598C63.6368 22.7212 63.4974 22.7385 63.4288 22.6905C63.0863 22.4557 62.8392 22.2381 62.6177 21.9848C62.4428 21.7832 62.285 21.5643 62.1112 21.2963C61.4445 21.9922 61.2952 22.4508 61.0897 23.0766C61.0726 23.1294 61.0554 23.1847 61.0322 23.2536C61.0065 23.3286 60.8915 23.3925 60.8095 23.3778C60.6334 23.3446 60.4511 23.3224 60.2676 23.3015C59.7562 23.2413 59.2375 23.1811 58.7273 22.8749C58.556 23.1577 58.4655 23.5093 58.4679 23.856C58.4728 24.2371 58.5903 24.6072 58.8398 24.8629C58.9304 24.9551 58.8924 25.1101 58.7689 25.1568C58.2538 25.351 57.9333 25.6018 57.7412 25.9215C57.5797 26.1883 57.5051 26.5079 57.4794 26.8854C57.811 26.7969 58.1021 26.7747 58.3627 26.8018C58.6429 26.83 58.8839 26.9149 59.0968 27.0341C59.1176 27.0218 59.1396 27.0108 59.1616 26.9997C59.5996 26.7907 59.903 26.6026 60.1685 26.385C60.4401 26.1637 60.675 25.9104 60.9698 25.5797C61.4335 25.0609 61.951 25.3559 62.5125 25.6768C62.8135 25.8477 63.1303 26.0285 63.4252 26.0494C63.813 26.0764 64.18 25.9989 64.503 25.9313C64.8284 25.8625 65.1147 25.8035 65.3679 25.8514C65.3802 25.8231 65.3912 25.7973 65.401 25.774C65.5515 25.3842 65.3533 24.9404 65.1575 24.499ZM61.1093 16.2605C60.8805 16.1413 60.6285 16.0822 60.3801 16.1019C60.0889 16.1253 59.8002 16.2617 59.5543 16.5445C59.4993 16.606 59.3598 16.6232 59.2913 16.5765C58.9769 16.3601 58.7493 16.1609 58.5462 15.9273C58.3884 15.7466 58.2477 15.5499 58.0936 15.3126C57.4978 15.9396 57.362 16.3552 57.176 16.9207H57.1772C57.1626 16.9662 57.1454 17.0178 57.1234 17.083C57.0989 17.1568 56.9839 17.2219 56.902 17.2072C56.7429 17.1777 56.5753 17.1568 56.4065 17.1383C55.9428 17.083 55.4706 17.0277 55.0057 16.7535C54.8552 17.0068 54.7757 17.3203 54.7781 17.6301C54.7818 17.9744 54.8882 18.3088 55.1146 18.5387C55.2051 18.6321 55.1672 18.787 55.0436 18.8337C54.5763 19.0095 54.2851 19.2382 54.1114 19.5271C53.9695 19.7632 53.8997 20.046 53.8765 20.3791C55.1195 20.0533 55.7006 20.7172 56.2144 21.3086C56.3062 21.4143 56.3955 21.5164 56.486 21.6074C56.5044 21.5188 56.5411 21.434 56.6035 21.3553C56.8298 21.0639 56.9717 20.8279 57.0769 20.582C57.1809 20.3361 57.2519 20.0706 57.3351 19.7214C57.4757 19.1386 57.9749 19.2099 58.5181 19.2874C58.7885 19.3267 59.0747 19.3673 59.2778 19.2972C59.5519 19.2013 59.7782 19.0329 59.9764 18.8841C60.2296 18.6948 60.445 18.5338 60.7117 18.5325C60.812 18.5325 60.9123 18.5436 61.0114 18.5633C60.9674 18.4514 60.9172 18.337 60.867 18.2239C60.5648 17.5453 60.2663 16.874 61.1093 16.2605ZM57.0341 12.8906C56.5973 12.2808 56.1655 11.6771 56.8653 10.9223C56.6157 10.846 56.3563 10.8325 56.1165 10.8989C55.8376 10.9751 55.5819 11.162 55.3984 11.4841C55.358 11.5567 55.2247 11.5985 55.1464 11.5653C54.7916 11.4103 54.5286 11.2567 54.2826 11.0661C54.0918 10.9198 53.9132 10.7526 53.7101 10.546C53.2574 11.269 53.2097 11.703 53.1449 12.2919C53.1375 12.3546 53.1302 12.4283 53.1265 12.4591C53.118 12.5402 53.0201 12.6226 52.9332 12.6226C52.7754 12.6226 52.6054 12.6349 52.4329 12.6459C51.9667 12.6779 51.4933 12.7111 50.9794 12.5279C50.8852 12.8045 50.873 13.1254 50.9391 13.4279C51.0149 13.766 51.1874 14.0746 51.4566 14.259C51.5642 14.3327 51.5593 14.4913 51.448 14.5602C51.0259 14.8184 50.7874 15.0962 50.676 15.411C50.5867 15.6691 50.5769 15.9593 50.6234 16.2912C51.0798 16.0761 51.4737 16.0343 51.8236 16.0933C52.0438 16.1302 52.242 16.2076 52.4255 16.3048C52.4047 16.1351 52.4304 15.974 52.5417 15.8314V15.8302C52.7473 15.5671 52.8757 15.3544 52.9699 15.1319C53.0641 14.9106 53.1278 14.6684 53.2036 14.3524C53.3357 13.8078 53.797 13.8742 54.2986 13.9455C54.542 13.9811 54.8002 14.0168 54.98 13.9541C55.2271 13.8692 55.4314 13.7156 55.61 13.5828C55.8425 13.4082 56.0407 13.2594 56.2903 13.2594C56.5545 13.2582 56.8188 13.3393 57.0683 13.4783C57.2152 13.5606 57.3571 13.6639 57.4929 13.7819C57.4562 13.482 57.2445 13.1857 57.0341 12.8906ZM50.7299 8.4523C50.643 8.20272 50.6565 7.93348 50.8559 7.62365C50.676 7.60152 50.4974 7.61874 50.3396 7.6839C50.1353 7.7675 49.9603 7.93348 49.8539 8.19658C49.8233 8.27403 49.6985 8.33182 49.6154 8.30723C49.3181 8.21994 49.0905 8.12158 48.8678 7.99126C48.71 7.89782 48.5595 7.79209 48.3944 7.66423C48.1375 8.24698 48.1473 8.58508 48.1595 9.04244V9.04366C48.1607 9.08669 48.1619 9.13095 48.1632 9.17644C48.1656 9.25882 48.0812 9.3498 47.9943 9.36086C47.8634 9.37684 47.7313 9.40143 47.5992 9.42725C47.2419 9.4961 46.8786 9.56618 46.4626 9.48135C46.4284 9.69281 46.4553 9.92764 46.5336 10.1416C46.6266 10.3936 46.7917 10.6137 47.0168 10.7292C47.1343 10.7907 47.1502 10.9481 47.0486 11.0304C46.7501 11.269 46.5948 11.505 46.5434 11.757C46.5042 11.9513 46.5226 12.1603 46.5813 12.3939C47.2909 11.9599 47.8377 12.1419 48.3198 12.4025C48.3051 12.2919 48.3185 12.1824 48.3724 12.0755C48.5192 11.7792 48.6011 11.5468 48.6476 11.312C48.6953 11.0735 48.7076 10.8251 48.7174 10.5042C48.7333 9.94485 49.1994 9.92395 49.7059 9.90305C49.953 9.89198 50.2136 9.88092 50.3763 9.78625C50.6002 9.65716 50.769 9.47028 50.9158 9.30554C50.9954 9.21825 51.0688 9.1371 51.1458 9.06702C50.9721 8.87769 50.8094 8.68344 50.7299 8.4523Z" fill="#8C9295"/>
<path fill-rule="evenodd" clip-rule="evenodd" d="M46.0649 11.0476C46.1493 11.0476 46.2337 11.0476 46.3144 11.0463C46.3719 11.0451 46.4319 11.0439 46.493 11.0402C46.5249 11.0033 46.5603 10.9652 46.5995 10.9271C46.6056 10.9209 46.6117 10.916 46.6166 10.9099C46.4123 10.7427 46.2606 10.5128 46.1676 10.2595C46.0404 9.91525 46.0245 9.52429 46.137 9.19849C46.1664 9.11489 46.2924 9.05341 46.3817 9.08169C46.7867 9.20955 47.1586 9.13825 47.5244 9.06817C47.6076 9.05218 47.6895 9.03743 47.7715 9.02268C47.7556 8.47434 47.7519 8.076 48.1471 7.28916C48.1973 7.18835 48.3575 7.15515 48.4481 7.22769C48.6903 7.42317 48.8799 7.56947 49.0708 7.68135C49.2188 7.76864 49.3754 7.83995 49.5687 7.90511C49.6311 7.79077 49.7069 7.69242 49.7914 7.60882C49.8819 7.51907 49.981 7.44899 50.0862 7.39366C50.0825 7.38137 50.0789 7.36907 50.0752 7.35801C50.0556 7.30022 50.0311 7.23998 50.0006 7.17605C49.9443 7.05311 49.8966 6.92893 49.8501 6.80968C49.7204 6.47158 49.6066 6.17774 49.2616 6.0339C49.2212 6.01668 49.0536 6.07816 48.8775 6.14209C48.5606 6.25643 48.2266 6.37691 47.9966 6.19127C47.7801 6.01545 47.5476 5.8753 47.3164 5.79292C47.1182 5.72285 46.9225 5.6958 46.7451 5.73022C46.6496 5.74744 46.5395 5.87038 46.4099 6.01422C46.2582 6.18266 46.0844 6.37568 45.8312 6.52199C45.6036 6.65354 45.3198 6.66583 45.0507 6.6769C45.0507 6.6769 45.0507 6.6769 45.0494 6.6769H45.0507C45.0507 6.6769 45.0507 6.6769 45.0494 6.6769C44.7693 6.68919 44.5124 6.70026 44.5062 6.88098C44.4977 7.18957 44.4842 7.42809 44.4377 7.6666C44.39 7.9088 44.3068 8.14485 44.16 8.44115C44.0964 8.56901 44.2236 8.77187 44.3472 8.96735C44.4573 9.1407 44.5637 9.31037 44.5858 9.48618C44.6139 9.71363 44.5858 9.94107 44.5601 10.1587C44.5331 10.38 44.5075 10.5927 44.5515 10.7464C44.6114 10.9578 44.9528 10.9627 45.31 10.9689C45.5706 10.9713 45.8336 10.975 46.0649 11.0476ZM50.4116 15.0642C50.496 14.9068 50.6061 14.7679 50.7297 14.6449C50.8227 14.5515 50.9242 14.4679 51.0307 14.3904C50.7909 14.1532 50.6331 13.8372 50.5584 13.5015C50.4618 13.0626 50.5058 12.5856 50.6967 12.2082C50.7371 12.1295 50.8728 12.0828 50.956 12.1209C51.4503 12.3459 51.9311 12.3139 52.4033 12.2807C52.5196 12.2721 52.6358 12.2647 52.7569 12.261C52.7569 12.2586 52.7569 12.2573 52.7569 12.2561C52.8327 11.5639 52.8866 11.0709 53.5154 10.1464C53.579 10.053 53.743 10.0394 53.8213 10.123C54.0855 10.3997 54.2972 10.6087 54.5223 10.7832C54.7058 10.9259 54.9015 11.0451 55.1487 11.1631C55.1621 11.1447 55.1756 11.125 55.1903 11.1066C55.2184 11.0697 55.2478 11.034 55.2783 10.9996C55.2747 10.9886 55.2698 10.9763 55.2661 10.9652C55.2502 10.9234 55.2306 10.8791 55.2086 10.8324C55.1462 10.6972 55.0936 10.5607 55.0422 10.4292C54.8966 10.0517 54.7694 9.72223 54.3804 9.55995C54.329 9.53782 54.1393 9.60666 53.9412 9.67797C53.5974 9.80338 53.2328 9.93493 52.9893 9.73576C52.9893 9.73576 52.9881 9.73576 52.9881 9.73453L52.9893 9.73576C52.9893 9.73576 52.9881 9.73576 52.9881 9.73453C52.7471 9.53904 52.4877 9.38291 52.2296 9.29193C52.0069 9.21324 51.7867 9.18374 51.5873 9.22185C51.476 9.24275 51.3512 9.38045 51.2068 9.54273C51.0405 9.72838 50.8496 9.93984 50.5731 10.0997C50.326 10.2423 50.0152 10.2558 49.7204 10.2681C49.4011 10.2816 49.1062 10.2952 49.1001 10.5128C49.0903 10.8533 49.0769 11.1152 49.0255 11.3783C48.9729 11.6439 48.8824 11.9033 48.7197 12.2303C48.645 12.3815 48.7894 12.6102 48.9276 12.8303C49.0475 13.0196 49.1637 13.2053 49.1882 13.3958C49.2188 13.6454 49.1882 13.8962 49.1601 14.1347C49.1295 14.3818 49.1014 14.6179 49.1515 14.7912C49.2225 15.0396 49.6066 15.0445 50.0103 15.0506C50.1449 15.0506 50.2783 15.0531 50.4116 15.0642ZM53.924 19.1361C54.0195 19.0218 54.1345 18.916 54.269 18.8189C54.3865 18.7353 54.5198 18.6591 54.6691 18.589C54.4831 18.3124 54.395 17.973 54.3914 17.63C54.3877 17.1825 54.5308 16.7227 54.7963 16.3871C54.8514 16.3182 54.9957 16.2985 55.0679 16.3502C55.5059 16.6612 55.9842 16.7178 56.454 16.7731C56.5715 16.7866 56.6877 16.8014 56.8052 16.8186C56.8052 16.8174 56.8064 16.8149 56.8076 16.8137C57.0254 16.1485 57.1807 15.674 57.9882 14.8834C58.0702 14.8035 58.2329 14.822 58.2928 14.9179C58.4959 15.24 58.6598 15.4846 58.8433 15.6949C58.9938 15.867 59.1602 16.0207 59.3792 16.1817C59.3976 16.1645 59.4171 16.1461 59.4355 16.1301L59.4367 16.1289C59.4697 16.0994 59.504 16.0711 59.5395 16.0453C59.5382 16.0317 59.5358 16.0195 59.5346 16.0084C59.5272 15.9629 59.5174 15.9162 59.5064 15.867C59.471 15.7182 59.4489 15.5768 59.4269 15.4416C59.3621 15.0445 59.3058 14.6978 58.9571 14.4679C58.9106 14.4372 58.7112 14.4691 58.5032 14.5035C58.1399 14.5626 57.7545 14.624 57.5563 14.3843C57.3618 14.1495 57.1391 13.9478 56.9042 13.8114C56.7024 13.6933 56.4932 13.6233 56.2889 13.6245C56.1739 13.6245 56.0246 13.7376 55.8472 13.8692C55.6454 14.0204 55.4141 14.1937 55.1107 14.2995C54.8404 14.3929 54.5321 14.3486 54.2397 14.3068C53.9228 14.2613 53.6316 14.2208 53.5803 14.4322C53.5007 14.7617 53.4334 15.0162 53.327 15.267C53.2206 15.5178 53.0787 15.7563 52.8511 16.0465V16.0453C52.7471 16.1793 52.8401 16.4301 52.9318 16.6723C53.0101 16.8801 53.0872 17.0842 53.0701 17.2723C53.0493 17.5231 52.9673 17.764 52.889 17.9939C52.8095 18.2288 52.7324 18.4538 52.7459 18.6357C52.763 18.8927 53.1398 18.9689 53.5338 19.0488C53.6659 19.0759 53.7992 19.1029 53.924 19.1361ZM58.179 25.0215C58.2329 24.9907 58.2891 24.9624 58.3479 24.9342C58.3638 24.9268 58.3785 24.9206 58.3944 24.9133C58.1864 24.6108 58.0861 24.2358 58.0824 23.8572C58.0775 23.3715 58.2329 22.8724 58.5216 22.5085C58.5766 22.4396 58.7198 22.4199 58.7932 22.4716C59.274 22.8146 59.8001 22.8773 60.3163 22.9375C60.4497 22.9535 60.583 22.9683 60.7152 22.9892C60.7176 22.983 60.7188 22.9769 60.7213 22.9707C60.9586 22.2454 61.1275 21.729 62.0095 20.8672C62.0915 20.7872 62.2542 20.8057 62.3142 20.9016C62.5368 21.2544 62.7167 21.5224 62.9185 21.7524C63.0874 21.9454 63.2745 22.1163 63.5192 22.297C63.6391 22.1802 63.7663 22.0855 63.8985 22.0118C64.0379 21.9331 64.1835 21.8778 64.3316 21.8433C64.3303 21.7942 64.3279 21.7437 64.323 21.6921C64.3132 21.5888 64.2961 21.4856 64.2728 21.3811C64.2349 21.22 64.2092 21.0639 64.1847 20.9139C64.1126 20.4737 64.0502 20.0877 63.6599 19.8307C63.6012 19.7926 63.3785 19.8283 63.1461 19.8664C62.7509 19.9303 62.3337 19.9979 62.1233 19.7422H62.1245C61.908 19.4816 61.6621 19.259 61.4015 19.1066C61.1764 18.975 60.9427 18.8976 60.7139 18.8976C60.5806 18.8976 60.4142 19.023 60.2172 19.1705C59.9958 19.3365 59.7426 19.5258 59.411 19.6402C59.1174 19.741 58.781 19.693 58.4629 19.6475C58.1044 19.5971 57.7765 19.5492 57.7154 19.8C57.6285 20.1615 57.5539 20.4405 57.4377 20.7159C57.3214 20.9901 57.1648 21.2507 56.9153 21.5704H56.9165C56.7954 21.7265 56.9006 22.0068 57.0021 22.2773C57.0878 22.5048 57.171 22.7261 57.1538 22.9302C57.1306 23.2043 57.04 23.4674 56.9544 23.7207C56.8663 23.9813 56.7819 24.2297 56.7954 24.4338C56.8162 24.7301 57.237 24.8161 57.6774 24.9059C57.845 24.9391 58.0176 24.9747 58.179 25.0215ZM58.5583 31.4637C58.7467 31.3629 58.9535 31.2867 59.1835 31.2363C59.3878 31.192 59.6104 31.1687 59.8539 31.1662C59.7805 30.7482 59.8673 30.3007 60.0606 29.8937C60.3041 29.3848 60.7201 28.9348 61.2082 28.6852C61.2889 28.6434 61.4272 28.684 61.47 28.7602C61.804 29.3516 62.3301 29.6589 62.8451 29.9614C62.9858 30.045 63.1265 30.1273 63.2611 30.2122C63.2733 30.1999 63.2855 30.1863 63.2978 30.1741C63.9205 29.5212 64.3621 29.0565 65.7275 28.5549C65.84 28.5131 65.977 28.5942 65.9893 28.7073C66.0407 29.1819 66.0933 29.547 66.1875 29.8864C66.2682 30.1765 66.382 30.4507 66.5557 30.7642C66.8347 30.6597 67.1038 30.6154 67.3595 30.6216C67.6152 30.6277 67.8538 30.683 68.0715 30.7777C68.0935 30.7126 68.1131 30.6462 68.129 30.5822C68.1767 30.388 68.2367 30.2109 68.293 30.04C68.463 29.5298 68.611 29.0848 68.2978 28.6176C68.2428 28.5364 67.9504 28.4688 67.6433 28.3975C67.1601 28.2856 66.6499 28.1664 66.5545 27.8135C66.4505 27.4312 66.289 27.0734 66.07 26.7869C65.8779 26.5349 65.6418 26.3382 65.3653 26.2288C65.1867 26.1587 64.909 26.2165 64.5824 26.2853C64.2325 26.3579 63.8349 26.4415 63.3944 26.4107C63.0103 26.3837 62.6506 26.1796 62.3105 25.9853C61.8945 25.7481 61.5116 25.5304 61.262 25.8095C60.9513 26.1587 60.7029 26.4255 60.4191 26.6578C60.1279 26.8951 59.8013 27.0992 59.3327 27.323C59.0819 27.4435 59.0428 27.7988 59.0073 28.1418C58.9767 28.4221 58.9486 28.695 58.8115 28.904C58.6293 29.1844 58.376 29.4229 58.1338 29.6515C57.8781 29.8925 57.6334 30.1224 57.5319 30.3511C57.3802 30.6929 57.8328 30.9867 58.3087 31.2953H58.3075C58.3944 31.3543 58.4776 31.4096 58.5583 31.4637ZM58.5094 38.9621C58.7076 38.9252 58.9155 38.9129 59.137 38.9277C59.3339 38.9412 59.5407 38.9757 59.7621 39.031C59.8111 38.6019 60.0264 38.1839 60.3371 37.8347C60.7237 37.3983 61.2633 37.0639 61.8126 36.9458C61.9055 36.9262 62.0242 36.9987 62.0438 37.086C62.1992 37.7524 62.6261 38.1913 63.0445 38.6228C63.1583 38.7396 63.2721 38.8576 63.381 38.9793C63.3981 38.9695 63.414 38.9597 63.4311 38.9498V38.9511C64.2312 38.4716 64.8013 38.131 66.2878 37.9933C66.4101 37.9823 66.5178 38.0917 66.497 38.206C66.4089 38.688 66.3526 39.0617 66.3465 39.4158C66.3416 39.7244 66.3722 40.0244 66.4517 40.3784C66.7612 40.3477 67.0426 40.3748 67.2947 40.4485C67.5589 40.526 67.7901 40.6563 67.9847 40.8223C68.0654 40.7485 68.1425 40.6711 68.2159 40.5875C68.326 40.4608 68.43 40.3194 68.5278 40.1584C68.638 39.9764 68.7615 39.8006 68.8802 39.6322C69.2313 39.133 69.5384 38.6978 69.3671 38.1175C69.3377 38.0167 69.0564 37.8691 68.7615 37.7155C68.2991 37.4745 67.8109 37.22 67.8305 36.8315C67.8525 36.3987 67.8036 35.9783 67.6727 35.6205C67.5589 35.3045 67.3791 35.0365 67.1283 34.8509C66.9668 34.7304 66.6573 34.7205 66.2939 34.7095C65.9073 34.6972 65.4657 34.6837 65.0203 34.5398C64.6313 34.4144 64.3279 34.107 64.0404 33.8157C63.6856 33.4567 63.3589 33.1272 62.9932 33.3669C62.5564 33.6534 62.2114 33.8685 61.837 34.0419C61.4578 34.2165 61.0504 34.3468 60.4925 34.4624C60.1756 34.5275 60.0129 34.9 59.8576 35.2603C59.7328 35.5455 59.6117 35.8234 59.4061 36.0041C59.1247 36.2512 58.7834 36.4368 58.4555 36.6151C58.1069 36.8045 57.7753 36.9852 57.5881 37.2052C57.3043 37.5409 57.6774 37.97 58.0702 38.4199C58.2219 38.5945 58.3797 38.7753 58.5094 38.9621ZM64.1737 51.5332C64.4882 51.323 64.8796 51.173 65.2613 51.0279C65.9354 50.7709 66.5777 50.5263 66.519 50.0038C66.4823 49.6767 66.2817 49.3165 66.0712 48.9366C65.8755 48.5838 65.6724 48.2174 65.5635 47.8215C65.4852 47.5338 65.5464 47.1933 65.61 46.8429C65.692 46.3867 65.7776 45.9134 65.5134 45.6761C65.0583 45.2655 64.7573 44.9176 64.5102 44.5414C64.2655 44.1676 64.0783 43.768 63.8471 43.2492C63.6501 42.8041 63.1253 42.9689 62.5564 43.1484C62.1025 43.291 61.6229 43.4422 61.1788 43.366C60.665 43.2775 60.2417 43.0599 59.8698 42.8693C59.5174 42.6886 59.2165 42.5337 58.9828 42.5718C58.6195 42.6296 58.2745 42.8115 57.9588 43.0771C57.6028 43.3771 57.286 43.7816 57.029 44.2364C56.8113 44.6213 56.1959 44.6237 55.6148 44.6237C55.2318 44.6237 54.8673 44.625 54.7621 44.7233C54.2164 45.236 54.2299 45.8495 54.2446 46.5527C54.2482 46.7236 54.2519 46.9007 54.2482 47.0851C54.4905 47.0752 54.7376 47.0986 54.9908 47.1613C55.2514 47.2252 55.5181 47.3285 55.7983 47.476C55.9659 47.0224 56.3146 46.6228 56.7464 46.3216C57.2786 45.9515 57.9429 45.729 58.5595 45.7376C58.6574 45.7388 58.7528 45.831 58.7504 45.9232C58.7332 46.683 59.0685 47.2597 59.3988 47.8264C59.4918 47.9863 59.5835 48.1449 59.6679 48.3071C59.6899 48.2998 59.7169 48.2912 59.745 48.2826C60.7323 47.9666 61.4345 47.7428 63.0604 47.9604C63.184 47.9764 63.2611 48.1055 63.2121 48.2137C62.9858 48.7067 62.8219 49.0928 62.7167 49.4763C62.6237 49.812 62.5747 50.1464 62.5625 50.5546C62.9418 50.6013 63.2647 50.7169 63.5327 50.8841C63.8055 51.0513 64.0184 51.2763 64.1737 51.5332ZM48.6719 52.5758C48.9986 52.7159 49.2898 52.909 49.5442 53.1684C49.7926 53.4204 50.0055 53.7376 50.1865 54.131C50.6404 53.8544 51.2227 53.7671 51.8161 53.8163C52.5954 53.8802 53.4016 54.1802 53.9509 54.5835C54.0464 54.6535 54.0488 54.7949 53.9571 54.8675C53.5301 55.2092 53.1704 55.6187 52.9013 56.0846C52.6688 56.4866 52.5024 56.9305 52.4168 57.4087C52.5257 57.4309 52.626 57.4493 52.7239 57.4677C53.7368 57.6571 54.5847 57.8169 55.7836 59.0955C55.8631 59.1816 55.8387 59.3193 55.7334 59.3758C55.1915 59.666 54.751 59.9795 54.3608 60.3274C54.0011 60.6495 53.6793 61.0024 53.36 61.3921C53.4946 61.5765 53.601 61.7794 53.6879 61.997C53.776 62.2183 53.8433 62.4544 53.8947 62.699C54.1736 62.7507 54.4525 62.7814 54.7376 62.7826C55.0655 62.7851 55.4056 62.7494 55.7702 62.6695C56.4124 62.5269 57.0437 62.3031 57.5979 61.981C58.0824 61.6995 58.5069 61.3417 58.8287 60.8979C58.9253 60.7663 58.8299 60.5045 58.7332 60.2377C58.5766 59.8061 58.4164 59.3635 58.8311 59.0525C59.285 58.7107 59.6765 58.2214 59.9579 57.705C60.2515 57.1665 60.4228 56.6071 60.4154 56.1633C60.4105 55.9088 60.1585 55.6457 59.86 55.3359C59.5321 54.9953 59.1565 54.6044 58.9363 54.0622C58.7577 53.622 58.8066 53.1573 58.8507 52.7295C58.9082 52.1713 58.9584 51.6893 58.3393 51.5639C58.3185 51.5603 58.2023 51.5369 58.0237 51.5012C56.8627 51.2701 56.1115 51.1213 55.0263 50.3874C54.6593 50.139 54.1871 50.2767 53.7185 50.4132C53.3772 50.5128 53.0358 50.6124 52.6957 50.5902C52.2125 50.5595 51.7439 50.439 51.2937 50.3247C50.7848 50.1943 50.3015 50.0714 49.8856 50.1021C49.2249 50.1513 49.0647 50.8988 48.897 51.6807C48.8334 51.9856 48.7674 52.2905 48.6719 52.5758Z" fill="#8C9295"/>
<path fill-rule="evenodd" clip-rule="evenodd" d="M30.7123 76.6224L29.4253 75.3278C29.3617 75.2639 29.2296 75.259 29.1623 75.318L27.8398 76.4675C27.7664 76.5315 27.693 76.5942 27.8202 76.7417C27.9462 76.888 28.0196 76.8253 28.093 76.7614L29.2797 75.7311L30.4395 76.8978C30.508 76.9667 30.5765 77.0355 30.7136 76.8991C30.8494 76.7614 30.7808 76.6913 30.7123 76.6224ZM31.1454 75.6217L32.2869 76.9274C32.3456 77.0048 32.4055 77.081 32.5572 76.963C32.7102 76.845 32.6514 76.7675 32.5915 76.6913L31.351 75.2553C31.3008 75.1914 31.1772 75.1643 31.1063 75.2024C30.9118 75.3082 30.3673 75.4299 30.5215 75.72C30.6769 76.0102 30.9533 75.7286 31.1454 75.6217ZM33.3268 77.054L34.3654 76.186L35.4677 77.1019C35.535 77.1573 35.6647 77.1523 35.7271 77.0896L36.4575 76.3569L37.468 77.2716C37.5267 77.3245 37.6515 77.3294 37.7139 77.2827L38.574 76.6274C38.6523 76.5671 38.6706 76.4294 38.6094 76.352L37.1793 74.7402C37.1193 74.6639 37.0594 74.5877 36.9077 74.7082C36.756 74.8287 36.8159 74.9049 36.8759 74.9811L38.1837 76.438L37.6087 76.8757L36.581 75.945C36.5125 75.8835 36.3804 75.8872 36.3155 75.9512L35.5791 76.6888L34.4878 75.7815C34.4266 75.7311 34.3006 75.7311 34.2406 75.7815L33.0784 76.7528C33.0038 76.8155 32.9292 76.8769 33.0539 77.0269C33.1787 77.1782 33.2534 77.1155 33.3268 77.054ZM39.0193 77.1241L39.9491 76.2487L40.8214 76.9581C40.874 77.0011 40.9939 77.0073 41.0501 76.9691L42.0705 76.2843L42.8681 77.0011C42.9403 77.0663 43.0125 77.1302 43.1422 76.9851C43.2706 76.8401 43.1997 76.7749 43.1275 76.711L42.2319 75.9069C42.2099 75.8786 42.1891 75.859 42.1695 75.8454L41.6533 75.3143C41.5994 75.259 41.4759 75.2442 41.411 75.286L40.7113 75.7323C40.6293 75.784 40.5473 75.8368 40.6513 76.0003C40.7553 76.1651 40.8373 76.1122 40.918 76.0606L41.4857 75.6991L41.7878 76.0102L40.9535 76.5696L40.0616 75.843C39.9968 75.7901 39.8683 75.795 39.8071 75.8516L38.755 76.8425C38.6841 76.9089 38.6131 76.9753 38.7465 77.1167C38.8774 77.2568 38.9483 77.1905 39.0193 77.1241ZM39.1294 75.1274L38.9349 75.3561C38.8712 75.4299 38.8089 75.5036 38.9557 75.6303C39.1025 75.7557 39.1661 75.6819 39.2285 75.6082L39.423 75.3807C39.4866 75.3069 39.549 75.2332 39.4022 75.1065C39.2554 74.9799 39.1918 75.0537 39.1294 75.1274ZM32.8496 75.2246L32.6551 75.452C32.5915 75.5258 32.5291 75.5995 32.6759 75.7262C32.8227 75.8528 32.8851 75.7778 32.9487 75.7041L33.1432 75.4766C33.2069 75.4028 33.2693 75.3291 33.1225 75.2024C32.9756 75.077 32.9132 75.1508 32.8496 75.2246ZM37.5108 77.6318L37.3163 77.8593C37.2539 77.933 37.1903 78.0068 37.3371 78.1334C37.4839 78.2588 37.5475 78.1851 37.6099 78.1113L37.8044 77.8839C37.8668 77.8101 37.9304 77.7363 37.7836 77.6097C37.6368 77.4843 37.5732 77.5581 37.5108 77.6318Z" fill="#8C9295"/>
<path fill-rule="evenodd" clip-rule="evenodd" d="M15.6694 80.4558C15.6707 80.4558 15.6719 80.457 15.6731 80.457L15.6694 80.4558Z" fill="#8C9295"/>
<path d="M23.4819 80.9119L24.2466 81.1037L24.1768 79.7329L23.4819 80.9119Z" fill="#8C9295"/>
<path d="M12.3955 80.3647L14.6099 82.7794L15.3035 81.7848C14.5597 81.4577 13.8526 81.1233 13.1895 80.784C12.9179 80.6463 12.6536 80.5061 12.3955 80.3647Z" fill="#8C9295"/>
<path d="M48.0508 81.0398L48.8105 80.8357L48.0899 79.6702L48.0508 81.0398Z" fill="#8C9295"/>
<path d="M54.0536 79.0678L53.2144 77.9846L53.3183 79.3505L54.0536 79.0678Z" fill="#8C9295"/>
<path d="M58.7981 80.7852C58.135 81.1245 57.4267 81.4589 56.6841 81.786L57.3778 82.7806L59.5921 80.366C59.334 80.5061 59.0697 80.6463 58.7981 80.7852Z" fill="#8C9295"/>
<path d="M69.6692 73.3103C68.584 73.4394 67.456 73.523 66.3011 73.5795C66.1764 73.5857 66.0736 73.4591 66.1042 73.3373C66.24 72.8087 66.3831 72.2825 66.5275 71.7575C66.9496 70.2145 67.3716 68.6716 67.5588 67.1311C66.1421 68.4724 64.6618 69.7265 63.1386 70.9239C61.5176 72.1989 59.8648 73.4013 58.1997 74.5717L60.8998 79.3813L58.1851 82.4045C60.4643 81.2894 62.6835 79.9727 64.9028 78.4506C67.2444 76.8449 69.5872 75.0094 71.9998 72.9402C71.2547 73.0939 70.4754 73.2144 69.6692 73.3103Z" fill="#8C9295"/>
<path d="M58.6378 80.4385C59.2814 80.1091 59.8796 79.7783 60.424 79.4464C60.4289 79.4427 60.4326 79.4402 60.4375 79.4365C60.4522 79.4279 60.4644 79.4206 60.4754 79.4132C60.4717 79.4144 60.4717 79.4156 60.473 79.4144H60.4717C60.473 79.4144 60.4742 79.4132 60.4754 79.412L57.7778 74.6061C57.7766 74.6048 57.7753 74.6024 57.7753 74.6011L57.0768 73.3569C53.7736 75.0991 50.5731 76.5252 47.1904 77.5383C43.7465 78.5698 40.1167 79.1734 36.0048 79.2497L36.0121 79.2472C36.006 79.2472 36.0011 79.2472 35.995 79.2472L35.9987 79.2509C31.8868 79.1747 28.257 78.571 24.8143 77.5395C21.4316 76.5264 18.2299 75.1003 14.9267 73.3582L14.2281 74.6024C14.2269 74.6048 14.2257 74.6061 14.2257 74.6073L11.5269 79.4144C12.086 79.7562 12.7013 80.098 13.3644 80.4373C14.085 80.8061 14.8557 81.1676 15.6681 81.5192C15.6705 81.5192 15.6705 81.5205 15.6718 81.5205C18.822 82.8827 22.5865 84.09 26.3203 84.8941C32.6306 86.3694 39.3777 86.3669 45.6832 84.8941C49.417 84.09 53.1814 82.8827 56.3305 81.5205C56.3329 81.5192 56.3354 81.5192 56.3378 81.518C57.149 81.1676 57.9197 80.8061 58.6378 80.4385ZM16.6113 77.2936L16.0694 77.0748C16.1256 76.8904 16.1318 76.7477 16.0865 76.6432C16.0412 76.54 15.947 76.4539 15.8063 76.3875C15.6644 76.3211 15.5396 76.299 15.4356 76.3236C15.3304 76.3469 15.2582 76.4035 15.2167 76.492C15.1763 76.5805 15.1775 76.6691 15.2191 76.7613C15.2607 76.8547 15.3916 76.9949 15.6081 77.183C15.8381 77.3858 15.9923 77.5567 16.0706 77.6969C16.1489 77.837 16.188 77.9907 16.188 78.1542C16.188 78.319 16.1428 78.496 16.0535 78.689C15.925 78.9669 15.7305 79.1611 15.4723 79.2706C15.2142 79.38 14.9035 79.3493 14.5401 79.1796C13.899 78.8796 13.7119 78.346 13.9798 77.5789L14.5242 77.7583C14.3921 78.1948 14.4863 78.4899 14.8093 78.6411C14.9683 78.7149 15.1127 78.7321 15.2436 78.6915C15.3745 78.6509 15.4675 78.5686 15.525 78.4444C15.558 78.3718 15.5714 78.3018 15.5629 78.2366C15.5543 78.1702 15.525 78.1051 15.4748 78.0411C15.4246 77.9772 15.2925 77.8493 15.0772 77.6538C14.8839 77.4805 14.753 77.3293 14.6869 77.199C14.6184 77.0699 14.5854 76.926 14.5842 76.7662C14.5829 76.6076 14.6184 76.4527 14.6881 76.3027C14.7689 76.1281 14.8814 75.9892 15.0246 75.8859C15.1689 75.7839 15.3268 75.7285 15.4993 75.7224C15.6718 75.7175 15.8602 75.7617 16.0657 75.8576C16.374 76.0015 16.5746 76.1982 16.6688 76.4465C16.7655 76.6936 16.7459 76.9764 16.6113 77.2936ZM18.789 80.1914C18.6667 80.3709 18.5003 80.4902 18.2874 80.548C18.0745 80.6082 17.8335 80.5836 17.5632 80.4803C17.283 80.3721 17.0823 80.2369 16.9637 80.0746C16.845 79.9136 16.7851 79.7267 16.7851 79.514C16.7838 79.3038 16.878 78.9509 17.0677 78.4567L17.7405 76.6949L18.2825 76.9039L17.5986 78.6927C17.4922 78.9718 17.4298 79.1538 17.4114 79.2435C17.3784 79.3997 17.3931 79.5337 17.453 79.648C17.513 79.7623 17.617 79.8484 17.765 79.905C17.891 79.9541 18.0048 79.964 18.1051 79.9394C18.2054 79.9136 18.2899 79.8558 18.3559 79.7673C18.4232 79.6787 18.5199 79.4697 18.6459 79.1415L19.3432 77.3145L19.8876 77.5248L19.2245 79.2595C19.0569 79.7009 18.9101 80.0132 18.789 80.1914ZM21.5992 81.8057L19.6674 81.175L20.7465 77.8383L21.2994 78.019L20.4039 80.7889L21.7827 81.2389L21.5992 81.8057ZM24.3359 82.5679L24.2846 81.727L23.1664 81.4467L22.7431 82.1696L22.1424 82.0184L24.0839 78.8587L24.6834 79.0087L24.9525 82.7216L24.3359 82.5679ZM28.2251 83.404L27.6171 83.2859L27.5535 80.5787L26.4904 83.0659L25.8701 82.9442L25.8664 79.3394L26.4524 79.4538L26.4157 81.9213L27.3957 79.6382L28.0771 79.771L28.1053 82.2938L29.0106 79.9541L29.5868 80.066L28.2251 83.404ZM32.1168 81.0311L30.5668 80.8406L30.4713 81.6188L31.9113 81.7971L31.8391 82.3884L30.3991 82.2102L30.2817 83.1667L31.8831 83.3646L31.811 83.9572L29.6333 83.688L30.0615 80.1767L32.189 80.4385L32.1168 81.0311ZM34.6958 83.7826C34.5037 83.9892 34.2076 84.0875 33.8076 84.0814C33.1004 84.0691 32.7138 83.6572 32.6478 82.847L33.2179 82.788C33.2742 83.2417 33.4797 83.4716 33.8357 83.4777C34.0106 83.4814 34.1501 83.4372 34.2529 83.3462C34.3556 83.2564 34.4083 83.1421 34.4107 83.0056C34.4119 82.9245 34.396 82.8569 34.3618 82.7991C34.3275 82.7413 34.2737 82.6946 34.2027 82.6565C34.1305 82.6196 33.958 82.5556 33.6828 82.4659C33.4356 82.386 33.2558 82.3011 33.142 82.2102C33.0283 82.1204 32.9389 82.0024 32.8729 81.8573C32.808 81.7122 32.7775 81.5561 32.7799 81.3914C32.7836 81.1983 32.8301 81.0262 32.9194 80.8725C33.0087 80.7201 33.1322 80.6057 33.2864 80.5295C33.4418 80.4533 33.6314 80.4176 33.8577 80.4213C34.1966 80.4275 34.4596 80.5234 34.6468 80.7127C34.834 80.8996 34.9306 81.1676 34.9355 81.5118L34.352 81.5327C34.3287 81.3422 34.2761 81.2082 34.1929 81.1307C34.1097 81.0545 33.9898 81.0139 33.832 81.0115C33.6754 81.009 33.5531 81.0397 33.4675 81.1037C33.3806 81.1688 33.3365 81.2487 33.3353 81.3483C33.3341 81.4455 33.3708 81.5266 33.4467 81.593C33.5225 81.6606 33.6975 81.7356 33.9727 81.8192C34.2651 81.9102 34.4743 82.0036 34.6028 82.0995C34.7312 82.1954 34.8291 82.3196 34.8952 82.4684C34.9612 82.6184 34.993 82.7991 34.9894 83.0118C34.9857 83.3204 34.8866 83.5773 34.6958 83.7826ZM36.4783 84.0593L35.8971 84.0494L35.9583 80.5123L36.5394 80.5221L36.4783 84.0593ZM40.502 83.6388C40.3283 83.8601 40.042 83.9855 39.6432 84.0138C38.9373 84.0642 38.5152 83.688 38.3807 82.8864L38.9434 82.7782C39.0389 83.2245 39.264 83.4359 39.6175 83.4113C39.7925 83.399 39.927 83.3437 40.0225 83.2429C40.1167 83.1446 40.1595 83.0265 40.1497 82.8901C40.1448 82.8101 40.1228 82.7425 40.0836 82.6897C40.0445 82.6356 39.9882 82.5938 39.9124 82.5618C39.8377 82.5311 39.6603 82.4831 39.3777 82.4179C39.1245 82.3589 38.9373 82.2913 38.8174 82.2102C38.6951 82.1303 38.596 82.0208 38.5177 81.8819C38.4394 81.743 38.3953 81.5905 38.3843 81.4258C38.3709 81.2328 38.4015 81.057 38.4785 80.8971C38.5556 80.7373 38.6682 80.6119 38.815 80.5221C38.963 80.4336 39.149 80.3808 39.3753 80.3648C39.7142 80.3414 39.9845 80.4139 40.1864 80.5861C40.3895 80.757 40.5094 81.0139 40.5436 81.3569L39.9637 81.4295C39.9246 81.2414 39.861 81.1123 39.7705 81.0434C39.6811 80.9746 39.5576 80.9451 39.401 80.9561C39.2444 80.9672 39.1257 81.0078 39.0462 81.0803C38.9654 81.1516 38.9287 81.2365 38.9361 81.3348C38.9422 81.4307 38.9862 81.5082 39.0682 81.5696C39.149 81.6311 39.3312 81.6901 39.6126 81.7491C39.9111 81.8143 40.1289 81.8893 40.2647 81.9741C40.4017 82.059 40.5094 82.1733 40.5889 82.3171C40.6684 82.461 40.7149 82.638 40.7296 82.8507C40.7504 83.1532 40.6745 83.4175 40.502 83.6388ZM41.745 83.7507L41.1945 80.2566L43.311 79.9197L43.4052 80.5111L41.8625 80.757L41.9848 81.5315L43.4187 81.3041L43.5116 81.8917L42.079 82.1204L42.2283 83.072L43.8224 82.8187L43.9154 83.4076L41.745 83.7507ZM44.8488 83.19L44.1233 79.7574L44.691 79.6357L45.2941 82.4843L46.7121 82.1819L46.8356 82.7659L44.8488 83.19ZM49.5956 82.0725L49.1442 81.3619L48.0309 81.6618L48.0089 82.5003L47.4106 82.6614L47.5844 78.9521L48.1802 78.7923L50.2073 81.909L49.5956 82.0725ZM51.2264 81.5278L50.3223 78.7333L49.5076 79.0001L49.324 78.4309L51.5054 77.719L51.6889 78.2882L50.8753 78.5538L51.7794 81.3483L51.2264 81.5278ZM54.9627 80.2148L54.4403 79.5546L53.365 79.9701L53.4298 80.8074L52.8511 81.0311L52.6395 77.3231L53.2157 77.1006L55.5561 79.9873L54.9627 80.2148ZM56.2387 79.6664L54.7511 76.4613L55.2649 76.2203L57.3288 77.8592L56.3354 75.7187L56.8272 75.4888L58.3149 78.6952L57.7839 78.9435L55.7604 77.3465L56.7306 79.4378L56.2387 79.6664Z" fill="#8C9295"/>
<path d="M13.8013 74.5717C12.1362 73.4 10.4834 72.1989 8.86237 70.9239C7.34045 69.7265 5.86012 68.4724 4.44219 67.1311C4.62937 68.6716 5.05145 70.2158 5.47353 71.7587C5.61666 72.2837 5.76103 72.8087 5.8956 73.3373C5.92741 73.4603 5.82464 73.5857 5.69986 73.5795C4.54496 73.5242 3.41698 73.4394 2.33182 73.3103C1.52681 73.2144 0.747502 73.0927 0 72.939C2.41256 75.0094 4.75539 76.8437 7.09699 78.4494C9.43125 79.9714 11.615 81.2882 13.8147 82.4033L11.0633 79.3801L13.8013 74.5717Z" fill="#8C9295"/>
<path fill-rule="evenodd" clip-rule="evenodd" d="M50.6284 25.7948C50.4951 25.9362 50.4253 25.8686 50.3556 25.8022C49.9237 25.3879 49.5212 24.9465 49.12 24.5039C48.3296 23.6335 47.5393 22.763 46.5594 22.1631C46.01 21.8262 45.3274 21.7328 44.646 21.6393C43.8666 21.5324 43.0873 21.4254 42.4475 20.9656C41.3109 20.148 40.4338 18.9001 39.5676 17.6658C38.272 16.2765 37.0058 15.1552 35.3028 13.9086L34.9064 13.868C34.0023 14.4864 33.0346 15.54 31.8026 16.7818C30.9878 17.9252 29.7326 19.0169 28.6144 19.6058C27.9318 19.966 27.1745 19.7669 26.4111 19.5677C25.7712 19.4005 25.1265 19.2321 24.5808 19.4325C23.2388 19.9255 22.0875 20.834 20.9363 21.7414C20.3515 22.2036 19.7655 22.6659 19.155 23.0753C19.0743 23.1294 18.9935 23.1835 18.8859 23.0212C18.7782 22.8602 18.859 22.8061 18.9397 22.752C19.5441 22.3475 20.1215 21.8914 20.6977 21.4365C21.8722 20.5095 23.0479 19.5825 24.4487 19.0673C25.1069 18.8264 25.8104 19.0108 26.5077 19.1927C27.1977 19.3735 27.8828 19.5517 28.4358 19.2603C29.472 18.7157 30.7003 17.6608 31.4882 16.5543C33.0468 15.0815 34.2751 13.6086 35.1083 13.3762C36.87 14.2737 38.3258 15.9101 39.8832 17.4432C40.731 18.6505 41.5899 19.8726 42.6714 20.6496C43.2341 21.0529 43.9645 21.1537 44.6986 21.2545C45.4191 21.3541 46.1422 21.4537 46.7612 21.8323C47.7877 22.4606 48.5976 23.3519 49.4062 24.2421C49.8038 24.681 50.2027 25.1199 50.6211 25.5207C50.6908 25.5883 50.7618 25.6547 50.6284 25.7948Z" fill="#8C9295"/>
<path fill-rule="evenodd" clip-rule="evenodd" d="M53.4627 27.0365C52.7201 27.2787 51.9885 27.5885 51.2557 27.8983C49.7655 28.529 48.2742 29.1597 46.6703 29.2445C45.9179 29.2839 45.2964 28.8376 44.6713 28.3901C44.1342 28.0053 43.5959 27.6192 43.0074 27.5959C42.4483 27.5737 41.9174 27.913 41.3876 28.2524C40.8065 28.6249 40.2254 28.9962 39.5452 28.9691C38.7341 28.9384 38.0245 28.5204 37.3161 28.1036C37.2085 28.0397 37.1008 27.977 36.9932 27.9143C36.9932 27.9143 37.0458 27.4791 37.0433 27.4987C37.1999 27.586 37.3553 27.6782 37.5119 27.7692C38.1774 28.1602 38.8417 28.5524 39.5587 28.5806C40.119 28.6028 40.6487 28.2634 41.1784 27.9241C41.7596 27.5528 42.3419 27.1803 43.0221 27.2061C43.7244 27.2344 44.3104 27.6549 44.8952 28.0741C45.464 28.4823 46.0305 28.888 46.6507 28.8548C48.1922 28.7737 49.6493 28.1577 51.1064 27.5405C51.8478 27.227 52.5892 26.9135 53.3452 26.6676C53.437 26.6369 53.5287 26.6074 53.5887 26.7918C53.6474 26.9762 53.5557 27.0057 53.4627 27.0365Z" fill="#8C9295"/>
<path fill-rule="evenodd" clip-rule="evenodd" d="M33.4236 27.2037V27.6118C33.0749 27.7262 32.7299 27.8602 32.3825 27.993C31.6056 28.2917 30.8275 28.5917 30.0066 28.6937C29.45 28.7626 28.9117 28.6347 28.3721 28.5081C27.8767 28.3925 27.3824 28.277 26.9041 28.3274C26.6092 28.3581 26.3193 28.561 26.033 28.7614C25.6366 29.038 25.2463 29.3109 24.7619 29.2421C24.0327 29.1376 23.4161 28.7356 22.7995 28.3335C22.2551 27.9782 21.7082 27.6217 21.1051 27.5C20.3417 27.3463 19.5453 27.4791 18.7476 27.6106C18.3316 27.6795 17.9145 27.7483 17.512 27.779C17.4153 27.7864 17.3187 27.7938 17.3052 27.5983C17.2905 27.4041 17.3872 27.3967 17.4838 27.3893C17.8912 27.3586 18.2888 27.2934 18.6864 27.2283C19.5183 27.0893 20.3515 26.9516 21.181 27.1188C21.8538 27.2541 22.4325 27.6315 23.0099 28.0077C23.5898 28.3864 24.1697 28.7651 24.8157 28.8573C25.1497 28.9052 25.4788 28.6753 25.8116 28.4417C26.1382 28.2143 26.4673 27.9831 26.8649 27.9413C27.4081 27.8835 27.9342 28.0065 28.459 28.1307C28.9655 28.2487 29.4708 28.3679 29.9601 28.3077C30.7333 28.2118 31.4906 27.9204 32.2442 27.6303C32.6369 27.4791 33.0284 27.3278 33.4236 27.2037Z" fill="#8C9295"/>
</svg>
