<svg width="102" height="86" viewBox="0 0 102 86" fill="none" xmlns="http://www.w3.org/2000/svg">
<path d="M30.5538 72.2441C30.2138 72.2323 29.9709 72.606 29.9776 72.9177C29.9994 73.4606 30.0094 74.0052 30.0429 74.5498C30.063 76.4853 30.0345 78.4241 30.0697 80.3612C30.0563 80.4416 30.0312 80.6042 30.0178 80.6846C29.0547 79.0943 28.0346 77.5376 27.0547 75.9591C26.3529 74.8917 25.7968 73.7304 25.0464 72.6965C24.5021 71.9374 23.4519 72.3396 22.673 72.2608C22.6328 72.6446 22.6211 73.0317 22.6261 73.4171C22.6378 77.5493 22.6144 81.6833 22.6378 85.8156C23.3932 86.1005 24.2123 85.8692 24.9979 85.9128C25.0649 85.7469 25.1235 85.5776 25.1771 85.4084C25.1788 82.7893 25.1051 80.1634 25.2056 77.546C26.7951 80.1802 28.5304 82.7239 30.0881 85.3782C30.2372 85.6095 30.4131 85.8793 30.7129 85.9212C31.336 85.953 31.9725 85.9631 32.5872 85.829C32.5889 81.3029 32.5889 76.7769 32.5872 72.2508C31.9088 72.2642 31.2305 72.2122 30.5538 72.2441Z" fill="#8C9295"/>
<path d="M44.7846 72.9343C43.4128 72.192 41.7931 72.0077 40.2688 72.2858C37.6157 72.8438 35.3176 75.0223 34.8251 77.7201C34.6275 79.1227 34.7565 80.599 35.3427 81.901C36.1551 83.7795 37.8468 85.2709 39.8384 85.7702C41.8115 86.3031 44.0225 85.8959 45.6606 84.6693C46.5885 84.0074 47.354 83.1193 47.8766 82.1055C48.5014 80.8554 48.56 79.416 48.4712 78.0469C48.23 75.8467 46.7192 73.9331 44.7846 72.9343ZM42.0778 83.5365C41.7897 83.5549 41.5033 83.5583 41.2152 83.5549C39.1449 83.2634 37.2857 81.467 37.1818 79.3355C37.0713 77.4118 38.3309 75.463 40.175 74.858C41.0577 74.5648 42.0041 74.6687 42.9069 74.8111C44.5635 75.287 45.8046 76.832 46.1128 78.506C46.3473 80.9023 44.4245 83.1846 42.0778 83.5365Z" fill="#8C9295"/>
<path d="M17.6364 72.415C15.9446 72.1151 14.2211 72.2776 12.5126 72.2508L12.2815 72.2525C12.2848 76.4752 12.2865 80.698 12.2798 84.9208C12.2965 85.2358 12.2312 85.581 12.4138 85.8659L12.4054 85.9161C13.1558 85.9949 13.9079 85.9329 14.6599 85.9078C14.6549 84.3594 14.6583 82.8111 14.6583 81.2627C16.0619 81.2644 17.5375 81.3063 18.8373 80.6947C19.9244 80.202 20.6413 79.1446 21.0115 78.042C21.8439 75.6742 20.117 72.7887 17.6364 72.415ZM18.2762 78.0621C17.3298 79.0324 15.8776 78.7927 14.6549 78.8229C14.6717 77.4354 14.6415 76.0496 14.6717 74.6638C15.7101 74.6722 16.829 74.5214 17.7854 75.0258C18.8591 75.5687 19.2226 77.2276 18.2762 78.0621Z" fill="#8C9295"/>
<path d="M57.8047 80.7552C58.8214 80.0699 59.8047 79.1818 60.1564 77.9635C60.6857 76.1068 59.8231 73.9435 58.1632 72.9532C57.3676 72.4639 56.4212 72.2578 55.4949 72.2494C53.9188 72.2444 52.3409 72.2578 50.7648 72.2427C50.7581 76.7587 50.7698 81.273 50.7598 85.7907C51.5169 86.1125 52.356 85.8779 53.1516 85.9114C53.1567 84.363 53.16 82.8147 53.15 81.268C53.7714 81.2747 54.3928 81.1608 55.0142 81.2177C55.577 81.2697 55.7814 81.8696 56.0343 82.2868C56.644 83.5252 57.3341 84.72 58.0342 85.9131C58.937 85.9114 59.8415 85.9147 60.7426 85.9064C60.2887 84.8138 59.6238 83.8285 59.0375 82.808C58.6288 82.1243 58.3039 81.3853 57.8047 80.7552ZM56.1197 78.8114C55.1331 78.8366 54.1449 78.8165 53.1583 78.8181C53.1483 77.4038 53.1634 75.9912 53.15 74.5769C54.1348 74.5551 55.1281 74.4781 56.108 74.6171C56.7378 74.716 57.3826 75.0914 57.6088 75.7181C57.9052 76.5442 57.9488 77.5898 57.3156 78.2769C56.9957 78.5902 56.577 78.8165 56.1197 78.8114Z" fill="#8C9295"/>
<path d="M77.9796 72.2459C76.978 72.2527 75.9763 72.251 74.9747 72.2459C74.0401 74.4679 72.9262 76.6195 71.886 78.7963C71.4338 79.733 70.8944 80.6278 70.5226 81.6047C70.0034 80.9847 69.7236 80.2189 69.3786 79.5017C68.2915 77.2261 67.1978 74.9539 66.1191 72.6749C66.0119 72.3716 65.6886 72.2242 65.3838 72.2476C64.563 72.2342 63.7423 72.2594 62.9215 72.256C62.8395 72.9548 62.8797 73.6586 62.8746 74.3624C62.873 77.9919 62.8763 81.6215 62.8713 85.2511C62.8964 85.4622 62.8294 85.7286 63.0019 85.8979C63.6971 86.0152 64.4106 85.9264 65.1124 85.8996C65.4407 85.7823 65.4139 85.365 65.4256 85.0852C65.3871 82.4677 65.3603 79.8503 65.4424 77.2345C66.7355 79.7983 67.9867 82.3823 69.2262 84.9729C70.0251 85.1287 70.8392 85.0383 71.6448 85.0064C72.1792 84.2071 72.4589 83.2737 72.9312 82.4376C73.8692 80.6848 74.5693 78.8113 75.5777 77.0971C75.566 79.8117 75.5794 82.5281 75.5676 85.2427C75.5459 85.4823 75.6179 85.7085 75.7234 85.923C76.4755 85.9448 77.2292 85.923 77.9846 85.913C77.9712 81.3567 77.988 76.8022 77.9796 72.2459Z" fill="#8C9295"/>
<path d="M86.8254 72.2477C86.1587 72.2511 85.4954 72.2561 84.8305 72.2427C83.1186 76.6129 81.4771 81.015 79.7687 85.3869C79.7151 85.5511 79.71 85.7287 79.6899 85.9013C80.571 85.8578 81.5006 86.1007 82.3448 85.7656C82.6731 84.6965 83.1471 83.681 83.4955 82.6203C85.0532 82.6404 86.6126 82.6438 88.1704 82.6186C88.6745 83.6877 89.0162 84.8272 89.4869 85.9147C90.3328 85.9147 91.1803 85.9097 92.0278 85.9164C91.5555 84.3262 90.8905 82.803 90.3043 81.2546C89.1435 78.2534 87.8689 75.2925 86.8254 72.2477ZM84.4285 80.2257C84.7886 79.0092 85.348 77.858 85.6428 76.6213C85.6612 76.4554 85.7634 76.3331 85.9041 76.2543C86.3848 77.5647 86.75 78.9136 87.2324 80.2224C86.2977 80.2324 85.3631 80.2358 84.4285 80.2257Z" fill="#8C9295"/>
<path d="M101.998 83.4027C100.058 83.3826 98.1205 83.4044 96.1826 83.391C96.1792 79.9039 96.1775 76.4167 96.1842 72.9296C96.1876 72.7486 96.1692 72.5743 96.1306 72.4017C95.8928 72.1822 95.5561 72.2492 95.2647 72.2358C94.7136 72.2576 94.1424 72.1789 93.6182 72.385C93.6466 76.8256 93.6014 81.2679 93.6383 85.7068C93.6835 85.7571 93.7739 85.8526 93.8192 85.8995C96.5226 85.9414 99.226 85.8844 101.931 85.9263C102.057 85.0918 101.965 84.2423 101.998 83.4027Z" fill="#8C9295"/>
<path d="M9.57654 72.4003C8.83117 72.0384 7.92836 72.3299 7.11767 72.2512C7.10427 75.1954 7.11934 78.1379 7.10929 81.0821C7.08082 81.6385 7.03392 82.2618 6.6269 82.6875C5.72408 83.7683 3.83471 83.78 2.93189 82.6925C2.37412 82.0892 2.42605 81.2078 2.43107 80.4437C2.43107 77.7123 2.43945 74.9792 2.42605 72.2478C1.61871 72.2495 0.813043 72.2529 0.0073775 72.2478C0.00905248 75.0362 0.0107275 77.8246 0.00570252 80.6146C-0.0395219 81.7658 0.178225 82.9774 0.875017 83.9208C1.70246 85.1809 3.16974 85.9953 4.68225 85.997C6.24333 86.0556 7.79603 85.2546 8.67372 83.9694C9.35376 82.9924 9.64856 81.7826 9.61339 80.6012C9.58659 77.8681 9.66196 75.13 9.57654 72.4003Z" fill="#8C9295"/>
<path d="M82.8369 29.7463C82.3277 21.098 78.0063 12.7748 71.3013 7.30698C64.4423 1.58278 55.111 -0.997803 46.2905 0.351138C37.6325 1.60792 29.6111 6.61994 24.6967 13.8607C20.9749 19.2045 19.0453 25.7179 19.0671 32.2146C19.1508 38.718 21.2144 45.1879 25.0216 50.4697C28.6915 55.6661 33.966 59.6978 39.929 61.9031C49.9587 65.6834 61.8461 63.9424 70.3215 57.3585C78.765 51.0244 83.6945 40.2815 82.8369 29.7463ZM45.0711 42.351C44.9505 44.6031 45.0561 46.8653 45.0192 49.1241C42.8283 46.9122 40.609 44.7271 38.4315 42.5034C38.8486 41.7175 39.1886 40.8344 38.9809 39.9346C38.6627 38.3846 37.2406 37.4881 36.2624 36.3704C39.666 37.5434 42.7278 39.6196 45.0711 42.351ZM49.5651 18.246V18.9749C47.7963 19.114 45.9338 18.8073 44.2269 18.3784C43.3024 18.0616 42.3007 17.7717 41.6408 17.0076C42.9841 16.8551 44.1616 17.579 45.4279 17.874C46.8382 18.2577 48.0694 18.246 49.5651 18.246ZM45.505 17.1501L49.5651 17.1651V17.5422C48.1364 17.6327 46.8935 17.502 45.505 17.1501ZM49.5969 19.7759V20.5651C47.0392 20.4763 44.4028 20.2685 42.0344 19.2313C41.1366 18.7487 40.0177 18.2024 39.9189 17.0545C40.2103 17.1249 40.475 17.2489 40.7162 17.4215C43.1918 19.4307 46.5233 19.7675 49.5969 19.7759ZM49.6304 33.9942C47.1783 34.2238 44.6206 32.8129 43.7663 30.4518C43.3928 30.5104 43.0176 30.5758 42.6474 30.6395C43.5687 33.577 46.6423 35.2594 49.602 35.2477C49.5986 36.0486 49.5969 36.8496 49.602 37.654C47.6171 37.5836 45.5234 37.9941 43.6357 37.2082C41.5302 36.3603 40.0395 34.1802 40.0395 31.9063C40.0361 27.5679 40.0328 23.2295 40.0428 18.8878C42.7513 20.9522 46.3207 21.2002 49.602 21.274C49.602 22.4352 49.612 23.5982 49.5835 24.7645C48.5015 25.6392 46.3357 27.3936 46.3357 27.3936C47.4278 28.2549 48.5316 29.0995 49.6087 29.9776C49.5969 31.3181 49.5869 32.6537 49.6304 33.9942ZM37.0731 38.8018C37.8905 39.5324 38.1803 40.7339 37.5622 41.6891C35.5305 39.5726 33.3999 37.5551 31.3799 35.4337C32.2726 35.494 33.2073 35.5258 34.0514 35.8693C35.1435 36.7508 36.0715 37.8215 37.0731 38.8018ZM36.8453 42.5403C35.9877 42.8553 34.9208 42.9391 34.2005 42.2739C33.0716 41.1914 31.9895 40.0586 30.8656 38.9727C30.7333 38.0695 30.6496 37.163 30.6311 36.2564C32.6662 38.3846 34.8102 40.4088 36.8453 42.5403ZM33.8722 43.4435C35.0347 44.1926 36.5254 43.911 37.7163 43.3782C39.47 45.1276 41.1986 46.8971 42.9741 48.6231C43.3794 49.0069 43.7295 49.4459 44.0259 49.9235C41.8334 49.9469 39.6409 49.9318 37.4483 49.9385C34.7164 47.6646 32.6629 44.583 31.5373 41.2165C32.3346 41.9371 33.018 42.785 33.8722 43.4435ZM45.1984 51.0395C46.5987 52.07 47.731 53.4408 48.9504 54.6808C45.3492 54.4613 41.7748 53.2212 38.8804 51.0512C40.9825 51.0026 43.0947 50.9775 45.1984 51.0395ZM46.1934 50.3189C46.1381 48.1623 46.123 45.999 46.2034 43.839C48.3189 46.7195 49.617 50.2653 49.736 53.8496C48.5601 52.6699 47.401 51.4701 46.1934 50.3189ZM44.902 39.4889C46.7009 39.5324 48.5015 39.5073 50.3021 39.5106L50.2987 39.5425C50.2803 42.1599 50.2552 44.7807 50.3289 47.3948C49.0308 44.4623 47.3223 41.6338 44.902 39.4889ZM50.7677 35.2409C53.6537 35.2409 56.7005 33.5301 57.409 30.5775C57.0305 30.5473 56.6536 30.5188 56.2768 30.4954C55.5649 32.8246 53.1027 34.1115 50.7778 34.0596C50.6354 33.0374 50.6538 32.0068 50.6723 30.9796C50.6689 30.4417 50.6689 29.9038 50.6723 29.3676C49.9018 28.7024 48.8331 28.0706 48.0727 27.3936L50.6538 25.3744C50.6639 24.612 50.6639 23.8478 50.6605 23.0837C50.9235 23.0837 51.4495 23.0787 51.7124 23.0753C51.7543 24.4829 51.3774 26.2441 52.637 27.2579C53.7894 28.0472 55.2785 27.6048 56.5866 27.707C57.7826 27.8461 58.8679 26.8742 59.0723 25.7297C59.2264 24.8482 59.141 23.9467 59.1627 23.0569C59.6786 23.0586 60.1979 23.0653 60.7205 23.0787C60.702 26.0112 60.7523 28.9437 60.6987 31.8778C60.6099 34.4081 58.7976 36.7759 56.3505 37.4495C54.523 37.8986 52.6152 37.5702 50.756 37.6824C50.7493 36.8647 50.7527 36.0553 50.7677 35.2409ZM60.7205 22.214L50.6421 22.2023C50.6723 20.5199 50.6723 18.8325 50.6388 17.1501C53.9887 16.9758 57.3621 17.135 60.7238 17.0931C60.7087 18.8023 60.7171 20.5065 60.7205 22.214ZM57.5447 26.72C56.5833 27.206 55.4661 26.8892 54.4359 26.9797C53.4678 27.1305 52.5399 26.3513 52.441 25.3979C52.374 24.622 52.4042 23.8395 52.4008 23.0586C54.3924 23.0586 56.3856 23.0385 58.3805 23.0753C58.2599 24.2852 58.8009 25.9425 57.5447 26.72ZM51.7644 39.5106C53.6856 39.4889 55.652 39.6849 57.5162 39.1001C54.9686 41.3204 52.9553 44.1926 51.8163 47.3831C51.699 44.7589 51.7761 42.1348 51.7644 39.5106ZM55.853 43.6513C55.915 45.8532 55.9032 48.0601 55.8681 50.2653C54.6135 51.4266 53.4896 52.7252 52.1848 53.8329C52.4846 50.1882 53.766 46.6525 55.853 43.6513ZM56.7558 50.9926C58.8646 51.0512 60.9784 50.9624 63.0872 51.0428C60.2347 53.2698 56.6168 54.4093 53.039 54.6992C54.2601 53.4441 55.4795 52.1873 56.7558 50.9926ZM57.8077 49.9201C60.0371 47.673 62.2548 45.4091 64.5378 43.2123C66.4188 44.459 68.5678 43.1955 70.1875 42.1247C68.9296 45.0622 67.1289 47.8556 64.5997 49.8481C62.3603 50.0625 60.0656 49.8799 57.8077 49.9201ZM69.6314 40.9132C68.4505 42.113 66.541 43.1503 64.918 42.1683C64.0637 40.687 64.846 38.9577 65.861 37.7746C66.8693 36.6268 68.3199 35.6683 69.9027 35.7889C70.5476 35.7856 70.9512 36.3369 71.3449 36.7658C71.4403 38.3326 70.8072 39.8726 69.6314 40.9132ZM63.6467 42.4498C61.4441 44.6416 59.2867 46.8686 57.0439 49.0169C57.0372 46.7547 56.93 44.4808 57.0774 42.227C59.3018 39.6447 62.2112 37.5517 65.4908 36.5497C63.8192 38.0008 63.0537 40.2932 63.6467 42.4498ZM77.6813 45.8934C74.7568 51.4886 70.03 56.1102 64.3837 58.932C60.4743 60.8826 56.1377 61.9399 51.7727 62.1008C51.761 61.4489 51.7493 60.7988 51.7359 60.1486C57.6435 59.976 63.4926 57.9367 68.1658 54.3037C74.4 49.5515 78.5506 42.0661 79.0515 34.2204C79.0381 34.2054 79.0247 34.1886 79.0079 34.1702C78.9108 33.7546 78.5389 33.4446 78.095 33.4446C77.7483 33.4446 77.4451 33.6323 77.2843 33.9121C77.2341 33.9959 77.1989 34.0864 77.1772 34.1836C77.1621 34.2489 77.1554 34.316 77.1554 34.3847C77.1554 34.3897 77.1554 34.3964 77.1571 34.4014C76.5591 40.2697 74.05 45.9587 69.9027 50.1798C65.2211 55.0829 58.543 58.0908 51.7459 58.1528C51.7543 57.6233 51.7644 57.0988 51.7794 56.5693C57.6988 56.6313 63.573 54.0289 67.5678 49.6721C71.6229 45.4175 73.6764 39.4486 73.3733 33.6004L73.1455 33.5988C71.9445 33.577 70.7419 33.577 69.5443 33.6725C66.5226 33.9825 63.6065 34.9963 60.9751 36.5028C62.1191 34.9125 62.5898 32.9603 62.5579 31.0199C63.9833 31.0199 65.4506 31.1355 66.8291 30.683C68.8609 29.9776 70.5258 28.1896 70.9512 26.0665C71.1472 24.6991 71.1372 23.2362 70.5275 21.9677C69.7235 20.225 68.072 18.9095 66.201 18.5024C65.0017 18.2946 63.774 18.4001 62.5613 18.3968C62.5294 17.3511 62.5362 16.3055 62.5613 15.2615L38.2121 15.1191C38.2071 16.339 38.2071 19.548 38.2054 22.9044H34.038C33.8136 22.9044 33.6327 23.0854 33.6327 23.3099C33.6327 23.5345 33.8136 23.7155 34.038 23.7155H38.2054C38.2054 27.2612 38.2054 30.8054 38.202 32.2046C38.187 33.3893 38.6359 34.512 39.1183 35.5761C35.9073 33.9121 32.2123 33.4262 28.6329 33.5719C28.4352 38.036 29.5022 42.5872 31.9209 46.3726C35.7248 52.6197 42.8886 56.6665 50.2183 56.5793C50.2234 57.0988 50.2301 57.6216 50.2368 58.1445C44.6256 58.1109 39.0931 56.023 34.7047 52.5543C29.1471 48.1874 25.5409 41.5098 24.8726 34.4785V34.4735C24.8759 34.445 24.8776 34.4132 24.8776 34.383C24.8776 33.8635 24.4572 33.4429 23.9396 33.4429C23.7419 33.4429 23.5594 33.5049 23.4069 33.6088C23.4019 33.6105 23.3986 33.6138 23.3935 33.6189C23.1557 33.7881 22.9999 34.068 22.9999 34.383V34.3847C22.9832 34.4802 22.9815 34.579 23.0016 34.6829C23.072 36.5882 23.5862 38.4449 24.0686 40.2798C25.8742 46.0224 29.5056 51.1802 34.3831 54.7176C38.9608 58.0892 44.567 59.9777 50.2418 60.162C50.2267 60.8038 50.2217 61.4473 50.2217 62.0907C49.4512 62.0539 48.6807 62.0153 47.9136 61.96C41.9724 61.273 36.2172 58.9002 31.6613 55.0042C23.4254 48.2075 19.2898 36.7994 21.4171 26.3128C22.9179 18.194 27.9813 10.8544 34.9576 6.46745C39.7213 3.4093 45.3676 1.83581 51.0156 1.77884C56.0825 1.84419 61.1543 3.10432 65.5796 5.59776C71.2762 8.75982 75.9226 13.807 78.5506 19.7725C82.2808 28.0103 81.9341 37.9204 77.6813 45.8934ZM62.5429 20.1948C64.0487 20.2468 65.6968 19.9585 67.0452 20.8165C68.4321 21.6175 69.2294 23.1407 69.3098 24.7142C69.2009 26.4653 68.1222 28.1427 66.4774 28.8079C65.2429 29.3659 63.8661 29.1766 62.5579 29.2051C62.5278 26.2005 62.5462 23.1993 62.5429 20.1948Z" fill="#8C9295"/>
<path d="M49.0122 3.66746C46.2099 4.76001 45.7795 8.53202 46.8749 10.992C47.6638 13.0246 50.3823 13.9596 52.2064 12.728C54.414 11.2266 54.6619 8.03434 53.6854 5.74533C52.9434 4.02103 50.8061 2.89496 49.0122 3.66746ZM49.8413 12.2672C48.781 11.9169 47.8347 11.0875 47.5985 9.9614C47.0139 8.02093 47.4662 5.53419 49.4008 4.52877C49.3455 5.72019 49.3757 6.9267 49.7659 8.06785C50.2115 9.42685 50.0456 10.878 49.8413 12.2672ZM52.5715 10.8713C52.1762 11.5215 51.5113 11.9169 50.8681 12.2856C51.1528 10.878 51.3203 9.3682 50.8027 7.99412C50.3505 6.858 50.4661 5.61462 50.5733 4.4299C51.9551 4.74493 53.007 6.00841 53.0975 7.41936C53.1494 8.57894 53.2499 9.85583 52.5715 10.8713Z" fill="#8C9295"/>
<path d="M59.1157 6.03493C57.6551 6.44045 56.9415 7.9201 56.506 9.24725C56.4106 10.2225 56.568 11.2866 57.3201 11.9854C58.0035 12.7746 59.1944 12.7528 60.1156 12.478C61.8995 11.6485 62.7537 9.43326 62.2864 7.57155C61.8727 6.32818 60.3501 5.54898 59.1157 6.03493ZM60.5025 6.6717C60.2144 7.47268 59.856 8.26529 59.2564 8.88363C58.5076 9.62931 58.2195 10.6666 57.8862 11.6368C56.3235 9.79186 57.9683 6.22093 60.5025 6.6717ZM58.6333 11.9971C58.7237 9.98959 60.665 8.91546 61.1759 7.06884C62.6197 8.88698 60.9715 12.1462 58.6333 11.9971Z" fill="#8C9295"/>
<path d="M39.6372 6.14391C37.5719 7.12085 37.9488 10.0181 39.2536 11.4844C40.1481 12.8216 42.2786 13.0864 43.3975 11.8983C45.4611 9.57743 42.7242 4.87708 39.6372 6.14391ZM39.5384 7.13258C39.9471 8.98926 41.9453 9.99133 42.0123 11.9904C39.6623 12.2753 37.9421 8.80661 39.5384 7.13258ZM42.684 11.5212C42.5048 9.53721 40.3859 8.54855 40.21 6.58965C42.5885 6.34668 44.4477 9.82879 42.684 11.5212Z" fill="#8C9295"/>
<path d="M55.3974 25.6642C55.945 25.6642 56.3889 25.2201 56.3889 24.6722C56.3889 24.1243 55.945 23.6802 55.3974 23.6802C54.8497 23.6802 54.4058 24.1243 54.4058 24.6722C54.4058 25.2201 54.8497 25.6642 55.3974 25.6642Z" fill="#8C9295"/>
<path d="M44.4027 25.6642C44.9504 25.6642 45.3943 25.2201 45.3943 24.6722C45.3943 24.1243 44.9504 23.6802 44.4027 23.6802C43.8551 23.6802 43.4111 24.1243 43.4111 24.6722C43.4111 25.2201 43.8551 25.6642 44.4027 25.6642Z" fill="#8C9295"/>
<path d="M32.4271 24.2674C32.8896 23.8047 32.8896 23.0546 32.4271 22.592C31.9646 22.1293 31.2149 22.1293 30.7524 22.592C30.2899 23.0546 30.2899 23.8047 30.7524 24.2674C31.2149 24.7301 31.9646 24.7301 32.4271 24.2674Z" fill="#8C9295"/>
<path d="M31.5499 21.5353C31.7746 21.5353 31.9557 21.3543 31.9557 21.1298V16.0239C31.9557 15.7994 31.7746 15.6184 31.5499 15.6184C31.3252 15.6184 31.144 15.7994 31.144 16.0239V21.1298C31.144 21.3527 31.3268 21.5353 31.5499 21.5353Z" fill="#8C9295"/>
<path d="M29.7499 21.9677C29.909 22.1269 30.1653 22.1269 30.3228 21.9677C30.4819 21.8085 30.4819 21.5521 30.3228 21.3946L26.7132 17.7835C26.5541 17.6243 26.2978 17.6243 26.1403 17.7835C25.9812 17.9426 25.9812 18.199 26.1403 18.3565L29.7499 21.9677Z" fill="#8C9295"/>
<path d="M36.5937 17.7834L32.9841 21.3946C32.825 21.5538 32.825 21.8101 32.9841 21.9677C33.1432 22.1268 33.3995 22.1268 33.5569 21.9677L37.1665 18.3565C37.3256 18.1973 37.3256 17.9409 37.1665 17.7834C37.0091 17.6259 36.7528 17.6259 36.5937 17.7834Z" fill="#8C9295"/>
<path d="M31.5499 25.2471C31.3252 25.2471 31.144 25.428 31.144 25.6526V30.7585C31.144 30.983 31.3252 31.164 31.5499 31.164C31.7746 31.164 31.9557 30.983 31.9557 30.7585V25.6526C31.9574 25.4297 31.7746 25.2471 31.5499 25.2471Z" fill="#8C9295"/>
<path d="M29.7499 24.8147L26.1403 28.4258C25.9812 28.585 25.9812 28.8414 26.1403 28.9989C26.2995 29.1581 26.5557 29.1581 26.7132 28.9989L30.3228 25.3878C30.4819 25.2286 30.4819 24.9722 30.3228 24.8147C30.1653 24.6555 29.909 24.6555 29.7499 24.8147Z" fill="#8C9295"/>
<path d="M32.987 24.8147C32.8279 24.9739 32.8279 25.2303 32.987 25.3878L36.5966 28.9989C36.7557 29.1581 37.012 29.1581 37.1694 28.9989C37.3286 28.8397 37.3286 28.5834 37.1694 28.4258L33.5599 24.8147C33.4024 24.6555 33.1445 24.6555 32.987 24.8147Z" fill="#8C9295"/>
<path d="M29.7703 23.3098C29.7703 23.0853 29.5894 22.9043 29.365 22.9043H24.2613C24.0369 22.9043 23.856 23.0853 23.856 23.3098C23.856 23.5344 24.0369 23.7153 24.2613 23.7153H29.365C29.5877 23.7153 29.7703 23.5344 29.7703 23.3098Z" fill="#8C9295"/>
</svg>
